<?xml version="1.0" standalone="no"?>
<!DOCTYPE svg PUBLIC "-//W3C//DTD SVG 20010904//EN"
 "http://www.w3.org/TR/2001/REC-SVG-20010904/DTD/svg10.dtd">
<svg version="1.0" xmlns="http://www.w3.org/2000/svg"
 width="1920.000000pt" height="1080.000000pt" viewBox="0 0 1920.000000 1080.000000"
 preserveAspectRatio="xMidYMid meet">
<metadata>
Created by potrace 1.16, written by Peter Selinger 2001-2019
</metadata>
<g transform="translate(0.000000,1080.000000) scale(0.100000,-0.100000)"
fill="#000000" stroke="none">
<path d="M0 8392 l0 -2409 25 -23 c14 -13 25 -28 25 -33 0 -5 15 -27 32 -47
43 -50 73 -92 73 -105 0 -16 51 -78 82 -101 25 -19 35 -20 92 -13 65 9 91 19
201 74 36 18 80 36 98 40 19 4 57 20 85 37 42 23 60 43 90 96 21 36 36 74 34
83 -3 10 1 20 8 22 7 3 15 24 19 48 7 43 70 184 87 194 5 4 9 14 9 24 0 30 44
61 126 86 43 14 87 34 99 44 11 10 50 30 88 44 62 25 78 27 223 27 120 0 162
3 185 16 19 9 49 14 82 12 l52 -3 8 -45 c12 -69 13 -81 4 -285 -17 -433 -17
-435 -38 -435 -13 0 -20 -10 -24 -37 -3 -21 -11 -55 -17 -75 -6 -20 -8 -54 -4
-76 4 -29 2 -43 -9 -52 -20 -17 -9 -115 17 -152 16 -24 26 -56 45 -151 3 -15
9 -30 14 -33 5 -3 9 -31 9 -63 l0 -58 -39 -11 c-21 -7 -48 -12 -59 -12 -20 0
-72 -45 -72 -62 0 -14 -71 -118 -80 -118 -18 0 -10 74 10 105 11 17 20 46 20
66 0 33 -4 39 -37 54 -21 9 -49 28 -63 41 -61 59 -138 94 -208 94 -36 0 -127
23 -177 44 -42 19 -112 35 -165 39 -25 2 -52 7 -60 10 -8 3 -40 8 -70 12 -30
3 -77 13 -104 22 -42 13 -63 14 -148 4 -55 -6 -109 -16 -120 -22 -24 -13 -121
-45 -165 -54 -22 -4 -38 -17 -53 -43 -21 -34 -21 -38 -6 -69 9 -19 16 -42 16
-52 0 -18 29 -51 46 -51 8 0 22 -57 52 -209 7 -34 9 -35 87 -52 58 -13 106
-16 177 -13 118 6 155 -4 214 -58 39 -36 53 -71 59 -143 0 -5 3 -15 7 -20 3
-6 9 -27 13 -48 4 -20 12 -37 19 -37 14 0 66 -127 66 -161 0 -13 13 -43 29
-66 20 -30 30 -61 35 -105 7 -54 27 -112 47 -128 3 -3 9 -17 12 -32 4 -15 13
-33 20 -40 8 -7 16 -28 20 -46 4 -18 14 -40 22 -48 8 -9 15 -25 16 -37 2 -64
26 -108 95 -179 39 -40 73 -79 75 -87 6 -18 72 -41 149 -52 138 -18 210 -22
222 -12 14 11 51 2 62 -15 3 -6 -29 -23 -72 -38 -68 -26 -89 -29 -184 -27
-116 2 -157 12 -273 68 -86 41 -112 65 -121 110 -3 19 -10 35 -14 35 -5 0 -15
12 -23 27 -8 16 -33 62 -56 103 -24 46 -41 88 -41 109 0 19 -8 53 -19 75 -10
23 -24 57 -31 76 -22 58 -74 139 -90 140 -21 0 -82 -39 -76 -49 11 -17 -42
-33 -85 -26 -24 4 -118 8 -209 8 -110 1 -172 6 -186 14 -17 10 -24 26 -29 70
-8 71 -10 161 -4 167 3 3 22 1 43 -4 47 -10 64 -5 72 25 11 43 -20 81 -81 100
l-55 18 0 56 c-1 101 -14 142 -58 181 -22 19 -55 44 -73 56 -26 15 -34 26 -32
47 2 38 -39 111 -65 115 l-22 3 0 -2455 0 -2456 9600 0 9600 0 0 1930 c0 1674
-2 1930 -14 1930 -8 0 -18 -4 -21 -10 -8 -12 -165 -13 -184 -1 -12 8 -12 13 3
36 14 21 24 26 43 22 16 -3 32 3 48 17 13 12 46 33 74 46 49 25 50 26 51 71 0
34 -9 64 -31 105 -30 58 -31 61 -25 157 6 89 0 117 -19 87 -3 -5 -15 -10 -26
-10 -12 0 -19 -7 -19 -20 0 -17 -7 -20 -45 -20 -52 0 -58 14 -15 38 16 9 40
36 52 60 13 23 27 42 33 42 5 0 26 14 45 30 19 16 38 30 43 30 4 0 7 479 7
1064 l0 1064 -25 6 c-14 4 -31 17 -37 31 -6 13 -23 27 -37 30 -30 7 -133 99
-123 111 4 4 0 5 -9 2 -9 -4 -28 6 -47 23 -17 16 -35 29 -39 29 -12 0 -178
182 -196 215 -9 17 -28 41 -43 55 -15 14 -38 43 -52 65 -14 22 -38 56 -54 75
-15 19 -28 40 -28 46 0 12 -59 105 -73 115 -5 3 -8 8 -7 10 4 11 -14 39 -25
39 -7 0 -18 15 -26 33 -7 17 -16 34 -20 37 -26 18 -119 177 -119 203 0 7 -25
37 -56 67 -39 38 -68 80 -95 135 -42 88 -73 115 -131 115 -18 0 -38 4 -44 8
-19 12 -34 49 -34 81 0 35 25 56 92 76 l43 12 -3 54 c-6 96 -30 135 -169 276
-29 29 -55 64 -59 78 -3 14 -12 25 -18 25 -24 0 -198 197 -237 268 -13 24 -32
57 -41 74 -9 17 -26 40 -37 52 -35 38 -249 486 -264 556 -69 305 -79 381 -76
610 2 107 2 268 1 358 l-2 162 -8555 0 -8555 0 0 -2408z m11388 1902 c34 -4
65 -10 67 -15 6 -9 -25 -28 -53 -34 -59 -11 -101 -27 -106 -42 -4 -9 -9 -13
-12 -10 -15 15 -137 -113 -155 -164 -47 -128 -73 -189 -81 -189 -4 0 -8 -10
-8 -22 0 -26 -59 -165 -118 -281 -22 -43 -43 -96 -47 -117 -4 -26 -13 -40 -26
-43 -12 -3 -19 -14 -19 -29 0 -26 -44 -121 -52 -113 -3 3 -5 -1 -5 -8 0 -7 6
-18 13 -25 10 -9 16 -8 28 3 18 18 43 19 49 3 4 -10 7 -10 18 0 16 15 85 16
94 1 4 -6 21 -9 39 -8 17 1 38 -1 46 -4 8 -3 33 -8 55 -11 22 -3 78 -10 125
-16 47 -6 92 -17 100 -25 8 -7 27 -16 42 -20 15 -4 32 -13 39 -21 6 -8 19 -14
29 -14 10 0 47 -27 82 -59 35 -33 91 -79 123 -104 33 -24 69 -54 79 -65 11
-12 27 -22 36 -22 18 0 55 -31 62 -52 3 -9 35 -13 121 -14 65 0 120 -4 124 -7
3 -4 65 -7 136 -7 114 0 134 3 163 21 19 11 39 29 44 40 6 10 17 19 25 19 8 0
20 8 27 18 7 10 29 28 50 40 20 12 38 28 41 35 6 16 122 87 141 87 7 0 28 7
45 16 27 14 49 15 124 9 51 -4 108 -9 127 -10 44 -3 80 10 80 29 0 9 13 22 28
30 16 8 34 22 41 30 16 20 40 21 47 3 7 -20 -54 -108 -108 -155 l-48 -41 -107
6 -108 6 -80 -38 c-44 -20 -87 -45 -95 -54 -57 -65 -169 -142 -250 -172 -19
-7 -38 -18 -42 -25 -4 -6 -19 -9 -32 -7 -23 5 -25 2 -28 -38 l-3 -44 -48 -9
c-33 -6 -57 -5 -73 3 -14 6 -42 11 -62 11 -78 0 -108 10 -119 41 l-11 28 -118
-5 c-201 -10 -204 -9 -288 51 -26 19 -52 33 -56 30 -14 -9 -56 51 -70 100 -11
40 -19 50 -57 68 -23 11 -43 26 -43 32 0 29 -199 84 -307 84 -43 0 -95 0 -115
1 -20 0 -62 -11 -94 -25 -31 -14 -62 -25 -68 -25 -7 0 -22 -9 -34 -20 -12 -11
-24 -20 -27 -20 -3 0 -31 -25 -62 -55 -31 -30 -66 -58 -77 -61 -12 -4 -39 -24
-61 -45 -22 -21 -60 -53 -85 -72 -50 -38 -180 -119 -180 -113 0 3 -37 -9 -83
-25 -131 -45 -215 -59 -358 -59 -111 0 -147 -4 -247 -30 -117 -29 -181 -52
-257 -92 -94 -50 -108 -58 -124 -72 -9 -8 -36 -24 -61 -35 -42 -19 -230 -188
-230 -208 0 -5 -12 -20 -27 -34 -16 -13 -48 -49 -73 -78 -25 -30 -58 -69 -75
-86 -16 -18 -66 -72 -110 -120 -44 -48 -104 -110 -132 -138 -29 -28 -53 -57
-53 -65 0 -9 -3 -13 -6 -9 -4 3 -30 -16 -58 -42 -80 -77 -130 -121 -138 -121
-11 0 -113 -109 -112 -120 1 -6 2 -21 3 -33 0 -13 7 -24 14 -25 6 0 35 -3 62
-5 28 -2 71 -7 96 -12 40 -6 49 -4 72 17 15 14 24 27 21 30 -3 3 16 14 43 24
65 24 70 28 77 74 6 39 27 60 60 60 13 0 16 -14 16 -82 0 -75 -2 -84 -27 -110
-15 -15 -33 -28 -40 -28 -8 0 -16 -7 -19 -15 -4 -8 -11 -15 -16 -15 -5 0 -33
-16 -62 -35 -29 -19 -59 -35 -65 -35 -20 0 -8 -34 14 -40 11 -3 34 -14 52 -24
l31 -19 -36 -20 c-27 -14 -54 -19 -111 -18 -41 1 -80 6 -85 11 -6 6 -22 10
-36 10 -14 0 -30 4 -36 9 -15 15 -64 24 -138 26 -57 1 -72 -3 -88 -19 -10 -11
-18 -23 -18 -28 0 -4 -9 -8 -20 -8 -15 0 -20 -7 -20 -28 0 -15 -4 -32 -9 -37
-6 -6 -23 -47 -40 -93 -30 -81 -31 -84 -25 -225 4 -94 11 -149 20 -164 8 -12
14 -33 14 -46 0 -26 46 -87 66 -87 7 0 21 -10 31 -22 10 -13 52 -50 93 -83 41
-33 91 -74 112 -91 20 -18 56 -41 81 -52 55 -24 158 -106 181 -144 9 -15 29
-40 44 -55 28 -28 152 -205 152 -216 0 -6 28 -37 90 -103 11 -12 20 -30 20
-40 0 -23 65 -94 86 -94 8 0 14 -6 14 -14 0 -20 26 -40 35 -26 3 6 11 8 16 5
5 -4 9 1 9 9 0 12 11 16 44 16 25 0 48 -4 51 -10 3 -6 26 -10 51 -10 41 0 45
2 51 30 3 19 12 30 22 30 42 0 120 31 126 50 9 27 68 54 101 46 25 -7 26 -10
20 -49 -8 -49 -23 -63 -76 -72 -23 -4 -47 -17 -62 -33 -12 -15 -32 -32 -43
-38 -28 -16 -31 -61 -6 -85 17 -16 36 -19 119 -19 l99 0 -5 25 c-3 21 0 25 18
25 22 0 83 43 74 53 -3 2 6 7 20 11 16 4 28 16 32 31 3 13 17 31 30 40 14 9
22 20 19 25 -4 6 -1 10 4 10 6 0 11 9 11 20 0 11 -4 20 -8 20 -4 0 -8 8 -8 18
-1 9 -3 23 -5 31 -3 10 7 17 31 21 20 3 41 9 47 13 6 4 13 2 15 -4 3 -8 9 -6
20 5 18 17 38 21 38 7 0 -5 17 -3 38 5 52 19 131 18 138 -1 4 -8 15 -15 26
-15 10 0 16 -4 13 -10 -3 -5 0 -7 8 -4 8 3 20 -2 27 -10 18 -22 -10 -31 -51
-17 -39 13 -163 15 -187 2 -9 -6 -29 -12 -44 -16 -19 -4 -28 -12 -28 -25 0
-11 -8 -28 -18 -38 -14 -14 -16 -26 -9 -71 4 -34 4 -58 -3 -65 -5 -5 -10 -33
-10 -61 0 -44 5 -59 36 -98 20 -26 34 -53 31 -61 -3 -8 1 -20 9 -26 8 -7 14
-18 14 -25 0 -21 33 -41 89 -54 44 -9 56 -9 62 1 6 10 62 13 231 13 l223 0 9
37 c5 21 14 38 18 38 5 0 6 9 3 20 -3 11 -2 20 4 20 5 0 13 10 16 21 4 12 10
17 14 11 3 -5 15 -11 26 -13 10 -2 26 -18 34 -34 8 -17 18 -37 23 -45 5 -8 18
-36 29 -61 24 -53 81 -89 142 -89 20 0 39 -4 42 -10 3 -5 22 -10 40 -10 30 0
39 6 60 40 13 21 33 44 44 50 11 5 26 22 34 37 36 70 43 79 55 75 7 -2 12 6
12 22 0 18 -14 37 -49 66 -27 23 -52 48 -55 55 -5 15 3 55 13 55 3 0 35 -27
71 -60 35 -33 67 -60 71 -60 9 0 49 94 49 115 0 9 5 25 10 36 16 28 -3 57 -35
54 -22 -3 -25 0 -19 18 22 77 62 86 119 27 22 -22 49 -40 60 -40 12 0 30 -9
40 -20 16 -18 17 -20 1 -20 -13 0 -15 -6 -10 -27 4 -16 11 -32 15 -38 13 -14
11 -58 -5 -80 -8 -12 -15 -64 -19 -136 l-6 -116 35 -34 c20 -19 40 -45 45 -58
13 -32 2 -79 -19 -83 -19 -4 -133 50 -144 69 -5 6 -35 11 -73 12 -73 0 -85
-10 -85 -74 0 -40 38 -114 73 -143 12 -9 30 -34 41 -54 10 -20 27 -38 37 -41
10 -3 19 -11 19 -19 0 -8 9 -31 20 -53 11 -22 20 -48 20 -58 0 -11 14 -39 30
-64 17 -24 30 -46 30 -49 0 -14 66 -142 83 -161 11 -13 17 -26 14 -30 -4 -3
-3 -11 2 -17 4 -6 23 -38 41 -70 18 -33 43 -69 56 -81 13 -12 24 -27 24 -32 0
-6 7 -16 15 -23 8 -7 12 -16 10 -21 -6 -9 120 -139 134 -139 12 0 144 -61 151
-69 10 -12 126 -13 210 -1 105 14 120 18 120 35 0 13 49 51 63 47 4 -1 7 2 7
8 0 6 4 9 8 8 12 -4 82 35 82 45 0 12 27 37 40 37 6 0 28 16 48 36 20 20 49
42 64 50 15 8 31 20 35 26 11 18 82 50 94 42 5 -3 19 6 30 19 10 14 34 31 53
37 40 13 61 35 70 73 3 15 13 27 21 27 8 0 15 6 15 13 1 19 78 99 89 93 5 -4
25 1 44 10 24 12 46 15 71 10 32 -6 36 -10 30 -29 -8 -24 -32 -46 -51 -47 -7
0 -13 -7 -13 -15 0 -8 -8 -19 -19 -24 -24 -13 -33 -36 -25 -65 5 -19 14 -24
57 -30 29 -3 72 -10 97 -14 57 -10 198 -80 211 -104 6 -10 14 -16 18 -14 12 8
51 -23 51 -40 0 -8 5 -14 12 -14 6 0 8 -3 5 -6 -7 -8 36 -44 52 -44 6 0 10 -5
9 -11 -2 -6 47 -37 108 -69 79 -41 128 -60 167 -65 46 -6 58 -11 63 -29 3 -11
13 -29 22 -39 13 -15 14 -26 3 -86 -7 -39 -20 -76 -28 -83 -10 -8 -42 -13 -87
-12 -80 1 -168 32 -293 103 -40 23 -77 41 -82 41 -5 0 -16 11 -24 23 -9 13
-29 30 -46 37 -17 6 -33 21 -37 32 -3 11 -8 17 -11 14 -4 -3 -11 -2 -17 3 -25
21 -116 64 -182 87 -73 25 -204 34 -204 14 0 -5 -11 -10 -24 -10 -36 0 -92
-27 -114 -55 -11 -14 -27 -25 -35 -25 -9 0 -36 -24 -61 -53 -25 -29 -63 -61
-83 -72 -36 -19 -72 -51 -97 -87 -7 -9 -34 -23 -61 -30 -27 -7 -60 -23 -74
-36 -19 -17 -26 -19 -32 -10 -6 10 -18 8 -51 -10 -63 -33 -151 -52 -240 -52
-45 0 -78 -4 -78 -10 0 -5 -7 -10 -15 -10 -11 0 -15 -14 -16 -57 -1 -32 -4
-46 -6 -30 -2 15 -11 27 -19 27 -10 0 -14 12 -14 40 0 38 -1 40 -31 40 -30 0
-31 -1 -25 -37 3 -21 7 -69 9 -108 3 -69 24 -145 39 -145 4 0 17 -18 28 -40
11 -22 26 -40 34 -40 16 0 74 28 81 40 12 19 64 21 90 4 43 -28 43 -15 5 108
-10 35 -2 41 78 61 60 15 97 14 87 -3 -2 -4 10 -24 28 -44 28 -32 42 -38 112
-52 44 -9 85 -21 92 -26 7 -5 17 -35 23 -65 16 -73 3 -99 -53 -109 -23 -3 -48
-10 -57 -14 -8 -5 -33 -13 -56 -20 -37 -11 -73 -48 -75 -77 -1 -5 -4 -7 -8 -6
-4 1 -15 -20 -25 -47 -16 -44 -16 -51 -2 -78 9 -17 26 -39 38 -49 39 -31 138
-179 138 -206 0 -7 13 -28 30 -47 16 -19 29 -40 30 -47 0 -6 6 -13 13 -16 6
-2 9 -7 6 -11 -11 -11 -390 -37 -429 -30 -19 4 -39 8 -45 9 -5 2 -35 8 -66 14
-48 10 -59 16 -69 41 -7 16 -18 35 -26 41 -8 6 -14 18 -14 27 0 8 -13 36 -29
61 -16 25 -35 70 -42 98 -9 38 -18 53 -30 53 -9 0 -39 20 -65 45 -27 25 -58
48 -69 51 -11 4 -30 15 -42 27 -20 18 -31 19 -104 14 -64 -5 -87 -3 -112 10
-43 22 -164 53 -209 53 -20 0 -40 5 -43 10 -3 6 -15 10 -25 10 -23 0 -81 60
-78 80 4 20 46 40 86 40 17 0 32 5 32 10 0 12 8 23 68 86 47 50 48 74 8 126
-64 81 -61 73 -45 115 7 19 8 79 3 180 -6 142 -8 152 -28 158 -11 4 -29 6 -38
6 -12 -2 -20 10 -28 41 -15 62 -21 69 -70 85 -53 18 -92 42 -85 53 3 5 -19 11
-47 15 -29 4 -59 12 -67 19 -18 14 -130 34 -201 35 -41 1 -51 4 -40 12 11 7
-1 8 -40 4 -40 -5 -63 -2 -85 9 -16 9 -35 16 -41 16 -5 0 -33 19 -62 43 -57
47 -99 76 -156 107 -47 26 -106 79 -106 95 0 7 -9 20 -19 29 -20 18 -71 114
-71 134 0 6 -13 20 -30 32 -16 12 -30 30 -30 41 0 29 -20 45 -65 53 -22 4 -69
18 -105 30 -125 45 -164 53 -226 48 -39 -3 -64 0 -68 7 -10 15 -46 14 -46 -1
0 -10 -2 -10 -9 0 -7 11 -9 11 -14 -2 -8 -21 2 -46 17 -46 18 0 40 -45 33 -69
-6 -22 8 -29 16 -8 3 6 6 2 6 -11 1 -13 12 -34 26 -48 14 -14 25 -29 25 -34 0
-6 6 -10 14 -10 17 0 172 -158 193 -197 41 -75 47 -91 52 -147 5 -51 10 -63
29 -71 19 -9 27 -24 23 -47 -3 -22 73 1 91 27 4 6 33 10 65 9 64 0 116 -22
134 -56 10 -19 8 -25 -21 -49 -17 -15 -52 -32 -75 -38 -24 -6 -47 -15 -50 -21
-3 -5 -17 -10 -30 -10 -14 0 -29 -9 -35 -20 -6 -11 -16 -18 -21 -14 -6 3 -21
2 -32 -4 -81 -40 -96 -43 -140 -21 -23 12 -49 27 -57 34 -8 8 -28 17 -44 21
-28 7 -28 6 -23 -32 7 -56 15 -84 27 -99 22 -27 -26 -236 -61 -265 -3 -3 -11
-15 -18 -28 -15 -28 -50 -29 -85 -1 -34 27 -33 46 7 94 28 35 32 46 31 95 -1
31 -11 85 -22 121 -12 35 -25 87 -29 114 -12 70 -35 72 -100 8 -51 -49 -79
-115 -67 -159 10 -37 -53 -62 -119 -48 -27 6 -28 8 -22 47 4 23 14 53 24 67
10 14 23 42 30 63 15 45 45 77 106 113 25 14 45 30 45 34 0 12 84 57 122 65
58 13 64 56 18 115 -16 21 -30 45 -30 54 0 9 -4 16 -10 16 -5 0 -22 14 -37 30
-15 17 -67 52 -115 77 -59 31 -105 64 -136 98 -61 66 -97 109 -94 113 2 2 -6
11 -17 20 -31 27 -57 144 -51 232 9 136 -19 211 -98 259 -87 53 -142 79 -148
70 -3 -5 -18 -9 -34 -9 -20 0 -31 -6 -35 -20 -8 -26 -35 -26 -35 0 0 11 3 20
8 20 4 0 13 9 20 20 10 16 10 25 1 43 -14 26 -59 81 -59 72 0 -3 -15 5 -32 19
-18 13 -69 42 -114 65 -45 22 -87 47 -94 56 -7 8 -23 15 -36 15 -14 0 -25 8
-29 20 -3 11 -14 20 -23 20 -9 0 -32 10 -51 23 -19 12 -42 27 -51 32 -42 26
-120 88 -120 95 0 4 -31 24 -69 44 -37 19 -74 42 -81 51 -7 8 -17 15 -22 15
-5 0 -30 16 -55 35 -25 19 -54 35 -63 35 -10 0 -29 9 -43 20 -48 38 -197 68
-197 40 0 -5 -22 -10 -49 -10 -41 0 -51 -3 -56 -20 -4 -12 -18 -23 -36 -27
-16 -3 -26 -9 -24 -13 13 -21 -144 -74 -178 -61 -32 12 -206 6 -220 -8 -6 -6
-17 -11 -23 -11 -19 0 -140 -127 -192 -201 -9 -13 -31 -37 -48 -54 -18 -16
-38 -41 -44 -55 -7 -13 -24 -33 -37 -44 -15 -11 -23 -26 -20 -37 3 -10 -4 -26
-15 -36 -11 -10 -27 -36 -36 -57 -9 -22 -18 -34 -20 -28 -4 12 -42 -27 -42
-43 0 -4 -11 -20 -25 -37 -14 -16 -25 -37 -25 -47 0 -9 -13 -25 -29 -34 -17
-10 -33 -27 -37 -40 -4 -12 -16 -34 -28 -49 -11 -14 -36 -51 -55 -82 -18 -30
-39 -61 -47 -67 -8 -6 -14 -19 -14 -29 0 -9 -15 -32 -33 -51 -37 -38 -73 -90
-69 -101 1 -5 -2 -8 -8 -8 -5 0 -18 -15 -27 -34 -19 -35 -70 -101 -115 -148
-15 -16 -37 -43 -49 -61 -13 -18 -37 -47 -55 -64 -18 -18 -35 -42 -39 -53 -3
-11 -10 -20 -13 -20 -4 0 -21 -29 -37 -65 -15 -36 -36 -67 -44 -70 -9 -3 -37
-51 -63 -106 -44 -94 -48 -108 -48 -180 0 -43 4 -80 9 -83 5 -3 12 -23 15 -43
8 -43 42 -117 92 -200 19 -31 34 -66 34 -78 0 -12 6 -27 12 -33 21 -21 12
-295 -11 -357 -11 -27 -25 -86 -32 -129 -7 -44 -22 -98 -34 -120 -21 -41 -23
-60 -14 -191 3 -48 2 -50 -26 -56 -40 -9 -215 -11 -253 -3 -18 4 -32 14 -35
25 -6 23 -32 24 -94 2 -57 -19 -192 -21 -204 -2 -5 9 -34 10 -121 3 -164 -13
-347 -11 -356 2 -5 9 -21 9 -57 2 -66 -13 -368 -21 -423 -11 -46 8 -58 26 -22
31 11 2 18 8 14 13 -3 6 8 15 25 22 17 6 31 15 31 19 0 4 5 8 11 8 16 0 80 31
109 53 59 44 150 132 150 144 0 7 4 13 9 13 5 0 12 8 15 18 4 11 19 25 34 33
31 15 102 87 102 102 0 6 6 18 14 26 21 23 86 153 86 171 0 9 13 42 30 75 16
33 30 65 30 72 0 7 9 29 19 50 33 66 71 150 71 158 0 18 118 166 195 245 14
14 25 29 25 32 0 4 13 21 30 39 16 18 27 35 25 39 -2 3 9 22 26 41 16 19 29
37 29 42 0 4 6 7 14 7 8 0 18 9 21 21 4 11 26 30 50 41 32 16 48 32 62 62 9
23 24 46 33 53 8 7 12 13 8 13 -4 0 4 12 17 26 13 14 29 42 36 61 6 19 33 65
60 100 27 36 49 69 49 73 0 4 9 18 21 31 12 13 32 45 45 72 30 58 45 77 106
135 26 24 50 57 53 72 3 16 12 31 19 33 8 3 16 17 20 32 4 15 15 39 25 54 10
14 40 61 66 104 26 42 51 77 55 77 5 0 20 24 34 53 14 30 32 60 41 67 8 7 15
17 15 22 0 6 7 24 14 41 23 49 58 149 63 179 3 15 9 25 14 22 5 -3 9 1 9 8 0
7 14 40 30 73 30 60 39 105 20 105 -5 0 -10 11 -10 23 0 27 -22 32 -58 14 -18
-8 -25 -8 -31 1 -5 9 -17 4 -42 -18 -19 -16 -40 -30 -46 -30 -7 0 -13 -4 -13
-10 0 -5 -6 -10 -14 -10 -8 0 -21 -7 -30 -15 -8 -9 -32 -23 -53 -33 -21 -9
-54 -29 -73 -44 -19 -14 -62 -41 -95 -58 -53 -28 -108 -62 -197 -122 -15 -10
-31 -18 -37 -18 -5 0 -11 -6 -14 -13 -4 -12 -91 -44 -107 -40 -3 1 -10 -3 -15
-7 -6 -5 -33 -16 -60 -26 -28 -9 -52 -20 -55 -24 -3 -4 -27 -12 -55 -18 -101
-22 -136 -33 -182 -57 -27 -13 -66 -33 -88 -43 -22 -11 -46 -27 -54 -36 -7 -9
-20 -16 -28 -16 -8 0 -30 -15 -48 -33 -27 -27 -34 -43 -40 -93 -3 -32 -11 -69
-17 -81 -6 -12 -12 -43 -13 -70 -2 -26 -4 -51 -4 -54 -1 -4 -13 -10 -27 -13
-27 -7 -49 -24 -120 -94 -38 -37 -49 -42 -88 -42 -26 0 -51 6 -60 15 -8 8 -20
15 -26 15 -6 0 -9 4 -6 9 28 45 -154 -33 -219 -94 -19 -19 -64 -43 -111 -59
-119 -42 -210 -90 -219 -116 -8 -22 -95 -86 -165 -122 -14 -7 -27 -15 -30 -19
-10 -12 -49 -29 -66 -29 -9 0 -41 -11 -69 -26 -29 -14 -63 -27 -76 -28 -13 -2
-31 -6 -39 -9 -124 -44 -258 -35 -510 34 -41 12 -94 27 -118 35 -132 43 -458
-13 -468 -80 -1 -11 -10 -23 -18 -28 -34 -19 -5 -35 71 -40 76 -5 93 -14 93
-49 0 -11 -15 -20 -47 -28 -27 -7 -64 -16 -83 -21 -19 -5 -50 -11 -68 -13 -30
-3 -32 -2 -32 27 0 17 4 37 9 45 13 21 2 41 -23 41 -34 0 -110 29 -124 47 -17
24 -16 108 3 123 8 7 15 9 15 5 0 -4 13 6 29 23 16 16 32 28 34 25 3 -2 13 0
24 6 218 117 479 174 575 125 16 -8 51 -18 79 -21 27 -3 49 -9 49 -14 0 -4 28
-9 62 -12 60 -5 135 -17 223 -37 61 -13 235 21 255 50 3 4 28 19 55 33 28 14
69 39 92 54 l41 28 -24 22 c-20 18 -49 25 -147 38 -67 8 -131 14 -142 14 -26
-1 -52 5 -97 24 -29 12 -37 22 -42 51 -4 20 -11 36 -16 36 -6 0 -10 6 -10 13
0 22 -86 57 -140 57 -37 0 -67 -9 -118 -35 -88 -44 -165 -62 -198 -45 -13 7
-21 17 -18 22 8 12 79 45 114 53 17 4 33 11 36 17 4 5 35 23 71 39 55 25 78
29 149 29 83 0 112 -9 152 -47 6 -6 22 -15 35 -19 12 -4 38 -23 58 -43 34 -34
44 -37 165 -59 239 -42 330 -36 438 29 41 24 86 65 86 78 0 4 13 22 30 39 16
18 30 39 30 47 0 8 11 17 25 21 21 5 40 27 81 97 16 26 76 87 86 87 5 0 26 18
48 40 22 22 44 40 50 40 5 0 31 16 56 35 31 24 53 34 65 30 12 -4 19 -1 19 7
1 22 80 77 210 143 137 71 210 105 225 105 13 0 106 35 137 51 10 5 27 9 37 9
11 0 43 14 71 30 28 17 55 30 61 30 24 0 130 69 189 123 8 8 25 19 37 26 12 6
39 27 60 47 21 19 50 42 66 52 15 9 27 21 27 27 0 5 22 30 48 55 27 25 72 67
100 94 29 27 52 55 52 62 0 8 7 14 15 14 8 0 23 8 33 18 81 77 135 122 148
122 10 0 14 6 11 14 -3 7 2 20 11 27 10 8 28 29 42 47 14 17 31 32 38 32 7 0
22 21 33 48 12 26 28 59 35 74 20 37 19 271 0 363 -32 153 -55 223 -83 256 -7
8 -13 21 -13 28 0 21 -94 138 -125 155 -68 38 -123 73 -155 97 -19 15 -51 30
-70 34 -19 4 -39 14 -45 21 -5 8 -21 16 -33 19 -13 2 -38 13 -55 24 -40 26
-139 74 -192 94 -22 9 -84 18 -138 21 -110 5 -121 11 -148 73 -16 37 -21 41
-47 38 -16 -2 -42 4 -60 15 -30 18 -30 19 -17 57 8 21 14 45 15 52 0 28 -50
87 -100 116 -27 16 -50 32 -50 36 0 4 -12 10 -26 13 -15 4 -41 18 -58 31 -17
12 -129 71 -248 129 -119 58 -220 111 -224 117 -3 6 -27 20 -53 32 -25 11 -60
37 -78 57 -49 57 -75 64 -194 51 -56 -6 -115 -17 -133 -25 -73 -32 -154 -46
-267 -45 -128 0 -215 19 -349 77 -52 22 -143 27 -161 9 -8 -8 -41 -18 -74 -22
-33 -4 -68 -13 -79 -21 -11 -8 -27 -14 -36 -14 -9 0 -42 -14 -74 -30 -87 -45
-126 -51 -177 -28 -24 10 -46 23 -49 28 -9 15 -49 15 -110 1 -80 -19 -80 -19
-80 -30 0 -14 29 -24 89 -30 37 -4 57 -12 65 -24 9 -16 3 -26 -46 -71 -31 -30
-64 -68 -73 -87 -22 -41 -119 -136 -148 -145 -12 -3 -27 -11 -34 -16 -7 -5
-22 -7 -33 -3 -19 6 -21 12 -15 43 3 21 9 71 13 112 4 41 11 81 15 88 12 18
27 15 27 -5 0 -15 2 -16 10 -3 5 8 10 46 10 84 0 57 -3 67 -15 62 -16 -6 -62
11 -83 31 -7 7 -18 13 -23 13 -5 0 -27 17 -49 37 -38 37 -39 37 -22 65 19 32
57 43 129 35 184 -21 179 -22 378 37 82 25 133 52 120 64 -2 3 3 10 11 17 24
17 9 53 -29 71 -30 15 -58 46 -115 131 -15 22 -30 33 -47 33 -14 0 -25 5 -25
10 0 6 -7 10 -16 10 -11 0 -14 5 -9 18 4 9 9 28 11 42 3 14 16 35 29 47 14 12
25 30 25 40 0 21 -38 64 -93 106 -20 15 -36 33 -34 39 1 7 22 22 47 35 73 37
179 28 290 -23 60 -28 102 -62 94 -75 -3 -5 5 -9 17 -9 27 0 86 34 119 69 39
41 72 58 120 64 74 8 108 25 112 55 3 25 8 27 83 40 106 17 233 9 305 -21 60
-24 160 -77 147 -77 -14 0 75 -90 89 -90 7 0 28 -13 46 -29 18 -15 47 -35 63
-44 44 -23 198 -177 217 -217 9 -19 32 -52 51 -72 l34 -38 171 7 c168 6 262
-4 262 -28 0 -5 15 -9 33 -9 17 0 45 -7 61 -15 36 -19 33 -20 38 16 3 22 -4
51 -24 91 -15 32 -28 64 -28 71 0 15 -66 153 -90 187 -10 14 -34 68 -55 120
-21 52 -69 152 -106 222 -38 70 -69 136 -69 145 0 10 -25 47 -55 81 -31 35
-63 78 -72 95 -9 18 -25 39 -37 47 -12 8 -40 32 -63 53 -24 22 -43 36 -43 32
0 -5 -8 -1 -17 7 -10 9 -37 25 -61 37 -23 12 -42 25 -42 30 0 5 -13 14 -28 20
-30 13 -122 94 -122 108 0 4 -13 22 -29 39 -16 17 -59 87 -96 155 -37 68 -70
129 -75 134 -4 6 -10 27 -14 48 -4 21 -14 41 -22 44 -7 3 -14 14 -14 24 0 10
-4 19 -8 19 -13 0 -52 36 -52 48 0 18 19 24 89 32 135 15 212 -13 227 -82 4
-16 10 -28 14 -28 4 0 13 -13 20 -30 7 -16 17 -30 22 -30 13 0 47 -42 48 -58
0 -16 19 -49 47 -80 13 -14 23 -32 23 -40 0 -16 49 -62 66 -62 7 0 14 -10 18
-23 4 -19 72 -65 81 -55 2 2 -1 23 -5 48 -5 25 -9 91 -10 147 0 57 -7 127 -15
160 -8 31 -15 74 -15 95 0 36 2 38 33 39 71 3 124 -4 152 -20 25 -14 30 -24
30 -57 2 -160 58 -469 95 -530 12 -18 19 -38 16 -42 -3 -5 9 -31 27 -58 18
-26 42 -66 55 -88 12 -22 29 -47 36 -55 8 -9 29 -47 46 -86 17 -38 34 -72 38
-75 10 -7 45 -60 61 -92 8 -16 18 -28 21 -28 4 0 20 -28 35 -62 15 -35 34 -70
42 -80 8 -9 16 -22 17 -30 3 -15 22 -56 35 -78 6 -8 17 -31 27 -50 9 -19 35
-73 58 -120 23 -47 48 -101 55 -120 8 -19 22 -54 32 -77 11 -24 19 -51 19 -62
0 -10 16 -38 35 -61 19 -23 35 -46 35 -51 0 -6 9 -19 20 -31 11 -12 20 -30 20
-39 0 -10 11 -31 25 -47 14 -17 25 -33 25 -36 0 -18 42 -96 51 -96 6 0 28 -18
49 -40 21 -22 43 -40 48 -40 6 0 21 -13 34 -28 13 -16 65 -60 115 -100 77 -59
100 -72 149 -81 32 -6 59 -11 60 -11 2 0 17 14 34 30 28 27 37 30 93 30 85 -1
101 -14 92 -78 -7 -54 10 -111 43 -140 11 -9 24 -36 31 -59 7 -25 24 -52 44
-69 17 -15 40 -40 50 -57 20 -32 64 -72 111 -100 17 -11 58 -45 91 -77 109
-107 242 -156 328 -121 15 6 42 13 60 16 17 4 38 12 47 19 16 14 60 31 72 28
4 -1 33 9 64 23 31 14 62 25 69 25 8 0 26 6 42 14 15 8 52 24 81 37 28 12 52
26 52 31 0 4 9 8 21 8 33 0 148 130 201 228 26 48 47 97 48 109 0 12 5 25 10
28 6 4 8 11 5 16 -8 12 25 231 36 243 5 6 9 28 9 50 1 23 8 59 16 81 9 22 25
71 35 109 11 38 29 82 39 97 11 15 20 33 21 41 0 13 90 78 107 78 5 0 21 12
37 26 15 14 37 24 49 23 36 -2 47 1 41 11 -3 5 7 12 22 16 15 4 34 11 41 17 6
5 12 6 12 2 0 -4 6 -2 13 4 8 6 17 8 20 4 8 -7 73 25 98 49 22 21 43 58 43 78
1 8 11 33 22 55 12 22 25 56 29 75 4 19 13 53 20 75 7 22 15 93 18 158 l5 119
-50 55 c-56 62 -82 114 -72 145 4 12 2 18 -4 14 -6 -3 -9 10 -9 32 1 80 -2 92
-22 92 -24 0 -45 25 -38 45 10 24 54 28 106 11 74 -24 79 -22 86 32 4 26 13
82 21 126 8 43 14 121 14 173 0 87 11 144 41 218 5 11 13 40 19 65 6 25 13 54
16 65 3 11 7 29 8 40 5 39 53 45 313 40 133 -3 249 -8 257 -11 17 -6 22 -34 7
-34 -5 0 -32 -48 -61 -107 -28 -60 -56 -115 -60 -124 -14 -27 -32 -140 -26
-164 4 -14 -2 -31 -14 -45 -11 -13 -20 -17 -20 -10 0 7 -9 1 -20 -13 -27 -34
-25 -41 8 -32 15 4 38 7 51 6 19 -1 22 3 18 19 -3 11 -2 18 2 16 10 -7 85 48
89 64 2 7 12 26 23 41 10 15 19 30 19 34 0 3 11 22 24 41 16 23 26 31 29 22 3
-7 6 0 6 15 1 15 11 47 23 70 28 54 59 195 44 200 -6 2 21 10 60 17 55 10 79
10 104 1 18 -6 61 -11 96 -11 61 0 76 -7 80 -38 1 -7 -8 -19 -21 -28 -13 -9
-26 -30 -30 -51 -3 -19 -22 -64 -40 -100 -19 -35 -34 -67 -34 -71 3 -19 -3
-33 -24 -59 -13 -15 -27 -40 -30 -54 -7 -28 -102 -160 -156 -218 -44 -47 -58
-78 -70 -149 -11 -72 -33 -117 -64 -133 -12 -7 -24 -15 -27 -19 -3 -4 -19 -14
-36 -23 -18 -9 -46 -32 -64 -51 -18 -19 -38 -32 -45 -30 -6 3 -17 -2 -24 -10
-7 -8 -18 -13 -24 -10 -7 2 -28 -11 -47 -29 -31 -31 -34 -38 -32 -88 2 -30 9
-74 17 -99 11 -32 15 -102 17 -245 2 -306 -16 -555 -46 -627 -7 -18 -21 -64
-31 -103 -42 -170 -37 -202 22 -143 21 21 49 48 63 61 14 13 34 36 45 51 11
15 39 49 63 77 23 27 42 54 42 60 0 15 120 129 136 129 7 0 15 8 19 19 3 10
22 30 41 44 20 13 79 67 132 118 88 85 237 199 261 199 5 0 31 11 58 24 26 13
80 33 118 46 39 12 77 26 86 30 28 14 152 23 362 25 111 1 213 4 227 7 14 3
48 9 75 13 28 4 56 12 64 18 7 6 20 12 28 13 8 2 22 10 31 18 39 37 118 100
152 121 20 13 52 48 70 79 19 31 38 56 42 56 4 0 8 6 8 13 0 7 9 29 20 50 11
20 20 43 20 50 0 8 8 22 19 31 10 9 21 29 24 44 3 15 23 48 44 72 33 39 71
108 157 290 11 25 24 47 27 50 9 8 79 181 79 196 0 8 6 14 14 14 8 0 17 15 20
33 3 18 17 49 31 67 14 19 25 39 25 45 0 22 88 187 92 174 4 -9 9 -5 18 12 13
28 39 45 80 53 29 5 235 -1 328 -10z m2152 -998 c0 -13 -17 -29 -75 -66 -72
-47 -97 -58 -155 -64 -25 -3 -60 -8 -77 -11 -22 -5 -33 -3 -33 4 0 19 52 60
93 73 21 6 66 26 100 44 67 34 147 46 147 20z m-1724 -718 c5 -7 9 -20 9 -29
1 -9 16 -30 33 -47 18 -17 32 -35 32 -40 0 -20 -43 -57 -63 -54 -39 5 -75 23
-83 40 -9 22 -15 122 -8 133 8 14 72 11 80 -3z m5868 -1684 c20 -8 21 -53 2
-60 -18 -7 -66 -78 -66 -98 0 -7 -6 -19 -14 -25 -8 -6 -16 -24 -19 -39 -3 -15
-8 -37 -12 -49 -7 -21 -4 -23 33 -23 52 0 179 -46 213 -77 14 -12 28 -23 32
-23 9 0 77 -69 77 -79 0 -4 -11 -17 -23 -30 l-24 -22 -84 41 c-46 22 -97 48
-114 57 -36 21 -162 30 -178 14 -6 -6 -22 -11 -34 -11 -14 0 -39 -15 -61 -39
-43 -45 -112 -67 -237 -76 -132 -10 -145 -16 -247 -118 -51 -50 -105 -107
-120 -126 -16 -18 -28 -30 -28 -26 0 4 -12 -4 -26 -18 -30 -30 -26 -54 7 -59
37 -5 38 -59 2 -92 -15 -15 -37 -28 -48 -31 -11 -2 -47 -10 -80 -17 l-60 -13
-3 -43 c-3 -40 0 -46 63 -109 36 -37 87 -78 112 -92 28 -15 72 -55 106 -96 32
-38 68 -73 79 -77 11 -5 58 -12 104 -18 59 -6 97 -17 128 -35 41 -24 97 -32
234 -35 13 0 39 -7 59 -15 46 -19 53 -19 53 3 0 30 80 103 108 100 20 -2 28
-14 44 -66 20 -59 20 -63 4 -81 -9 -10 -35 -21 -56 -25 -22 -3 -40 -8 -40 -10
0 -28 31 -72 71 -102 53 -38 79 -78 79 -117 0 -21 35 -66 46 -59 2 1 15 -5 27
-13 14 -9 50 -16 85 -17 51 -1 65 -5 76 -23 17 -26 10 -73 -14 -87 -16 -10
-16 -14 -2 -50 13 -34 14 -49 3 -99 -7 -36 -8 -66 -3 -76 15 -29 21 -78 12
-93 -7 -11 -21 -12 -81 -3 -39 7 -75 15 -78 20 -3 5 -17 13 -31 19 -14 6 -45
28 -69 48 -59 49 -72 56 -138 66 -31 5 -60 15 -64 21 -9 15 0 45 17 60 10 8
14 35 14 90 0 76 -1 80 -25 89 -30 11 -61 17 -130 26 -27 3 -61 14 -75 23 -14
10 -41 26 -60 36 -43 21 -91 65 -84 77 11 18 -31 68 -66 78 -44 12 -97 13
-104 1 -8 -12 45 -68 72 -76 12 -3 22 -10 22 -14 0 -4 11 -21 25 -37 14 -16
25 -33 25 -39 0 -5 14 -22 32 -36 40 -33 33 -53 -26 -78 -24 -11 -47 -24 -50
-30 -10 -16 -42 -13 -56 4 -7 8 -24 15 -39 15 -15 0 -31 8 -38 19 -10 16 -8
26 9 58 23 41 20 73 -7 73 -8 0 -23 6 -32 14 -82 66 -81 66 -88 118 -13 91
-27 117 -86 159 -29 21 -74 48 -97 60 -24 11 -52 29 -63 40 -10 10 -24 19 -30
19 -6 0 -27 14 -46 31 -34 29 -39 30 -97 24 -33 -3 -86 -7 -117 -9 -84 -6
-126 -35 -184 -127 -23 -37 -51 -76 -73 -99 -12 -14 -25 -33 -28 -42 -3 -10
-12 -18 -20 -18 -8 0 -14 -4 -14 -9 0 -5 -24 -34 -52 -64 -58 -61 -81 -91
-115 -150 -28 -48 -31 -131 -6 -159 13 -14 18 -44 21 -127 l4 -108 -30 -12
c-34 -14 -93 -8 -149 15 l-34 15 31 25 c23 19 30 34 30 60 0 19 -2 34 -5 34
-19 0 -56 -27 -60 -44 -4 -12 -14 -37 -23 -57 -16 -36 -18 -37 -87 -43 -38 -3
-97 -9 -129 -12 -51 -6 -61 -4 -73 12 -19 26 -17 33 20 50 106 49 156 92 157
137 0 9 4 17 10 17 10 0 32 45 50 103 6 20 16 37 21 37 5 0 25 15 43 33 18 17
42 40 52 49 29 26 41 42 49 69 7 23 45 79 72 107 7 7 13 20 13 28 0 8 17 33
38 57 21 23 46 59 56 80 10 21 24 41 32 44 8 3 14 16 14 30 0 14 -4 22 -10 18
-6 -4 -23 -9 -38 -11 -15 -3 -28 -9 -30 -15 -2 -5 -8 -9 -12 -9 -5 0 -30 -14
-55 -31 -28 -19 -65 -34 -90 -37 -24 -2 -53 -13 -63 -23 -11 -10 -23 -15 -26
-12 -3 4 -16 2 -29 -4 -12 -6 -36 -16 -54 -23 -17 -6 -41 -22 -54 -36 -12 -13
-30 -24 -38 -24 -9 0 -27 -11 -41 -25 -33 -34 -85 -69 -137 -94 -24 -11 -43
-25 -43 -30 0 -6 -6 -11 -14 -11 -8 0 -16 -4 -18 -8 -1 -5 -28 -20 -57 -35
-42 -20 -70 -27 -115 -27 -73 0 -187 18 -200 31 -16 15 -66 10 -94 -9 -43 -30
-154 -82 -174 -82 -13 0 -18 7 -18 25 0 42 27 72 78 85 26 7 54 19 62 25 8 7
26 16 40 19 14 4 35 12 48 18 18 10 38 7 102 -15 65 -22 90 -26 134 -21 76 9
89 53 16 54 -21 1 -90 50 -90 64 0 12 47 13 60 1 21 -19 144 -22 194 -5 34 11
106 73 106 91 0 5 10 13 23 18 12 5 39 23 61 40 21 17 46 31 54 31 9 0 23 6
31 14 20 17 107 46 137 46 13 0 27 6 31 14 4 7 33 28 63 45 30 18 64 37 74 44
26 17 162 157 156 161 -3 2 3 12 12 23 14 15 16 31 12 83 -4 36 -11 71 -17 79
-6 7 -16 23 -22 35 -5 11 -30 31 -55 44 -25 12 -50 28 -55 36 -6 7 -26 17 -45
21 -41 8 -136 68 -150 94 -5 10 -21 22 -36 25 -14 4 -48 21 -74 39 -137 90
-129 87 -204 75 -51 -9 -86 -8 -151 2 -95 15 -164 9 -209 -19 -38 -23 -81 -13
-73 18 3 13 -4 21 -29 30 -19 7 -34 16 -34 21 0 4 -20 11 -45 14 -24 4 -48 13
-52 19 -5 7 -19 20 -33 29 -32 19 -98 85 -110 109 -21 38 30 79 55 45 7 -9 16
-16 21 -16 5 0 34 -27 66 -60 31 -33 64 -60 74 -60 9 0 36 -11 58 -24 38 -22
72 -30 119 -27 11 1 17 9 17 26 0 14 -4 25 -8 25 -11 0 -62 78 -62 95 0 16 27
27 35 15 8 -13 62 -13 70 -1 3 5 18 12 34 16 16 3 32 13 35 22 14 35 258 -9
288 -52 4 -5 13 -18 20 -28 33 -47 46 -56 96 -63 34 -4 57 -3 66 5 17 14 10
57 -15 93 -11 14 -19 30 -19 35 -1 17 -109 163 -122 163 -11 0 -78 72 -78 84
0 7 -7 21 -15 32 -8 10 -15 25 -15 31 0 21 48 27 75 9 15 -10 46 -16 82 -16
l58 0 24 -67 c14 -38 46 -111 73 -162 26 -52 48 -100 48 -106 0 -7 9 -20 21
-31 11 -10 26 -31 32 -46 15 -35 180 -203 185 -189 2 6 13 11 24 11 16 0 19
-5 15 -21 -5 -20 18 -49 79 -99 31 -26 116 -54 164 -54 59 -1 134 29 150 60 8
13 19 24 26 24 13 0 18 12 28 70 14 70 18 86 32 101 8 8 14 23 14 32 0 20 59
79 71 71 5 -3 12 2 15 10 3 8 20 20 37 26 18 6 43 20 56 30 21 18 23 27 21 83
-2 34 -3 75 -3 90 0 27 20 76 35 87 4 3 8 32 10 64 3 51 7 62 31 79 24 19 41
21 155 21 71 -1 134 -4 140 -8 21 -13 13 -52 -18 -81 -16 -16 -33 -43 -36 -61
-4 -21 -28 -57 -69 -101 l-62 -67 -6 -131 c-3 -71 -1 -134 4 -139 12 -13 59
10 59 29 0 9 13 21 29 26 15 5 34 21 41 35 15 27 86 67 148 83 20 6 87 11 149
12 l112 2 46 42 c26 24 45 51 45 63 0 11 12 35 26 52 15 17 42 61 60 97 29 56
70 128 81 142 9 13 114 24 137 15z m-3030 -260 c20 -19 70 -34 118 -34 44 0
69 -30 47 -57 -17 -20 -94 -11 -122 15 -15 13 -36 17 -92 16 -64 -1 -74 1 -78
17 -12 44 91 79 127 43z m4186 -2462 c0 -10 -7 -27 -15 -38 -8 -10 -15 -33
-15 -49 0 -29 -18 -63 -49 -95 -12 -12 -47 -15 -185 -15 -118 0 -178 -4 -193
-13 -12 -6 -29 -12 -37 -12 -8 0 -19 -6 -23 -13 -4 -7 -34 -25 -67 -40 -49
-24 -69 -27 -129 -25 -52 2 -73 7 -80 19 -14 23 15 51 54 54 17 2 38 10 48 19
10 9 22 16 28 16 6 0 28 16 49 35 22 19 55 38 74 42 46 10 281 9 347 -1 66
-11 109 5 118 42 16 65 75 123 75 74z"/>
<path d="M3009 8731 c-13 -37 -44 -41 -251 -34 l-158 6 0 -31 c0 -17 9 -46 20
-64 24 -39 25 -72 5 -132 -18 -53 -11 -76 23 -76 31 0 212 -61 298 -101 123
-56 133 -58 230 -60 71 -1 100 3 119 15 13 9 44 16 69 16 25 0 47 4 51 9 3 6
26 13 50 17 25 3 45 10 45 15 0 5 18 12 39 15 47 8 55 22 33 56 -16 24 -86 90
-141 134 -14 10 -42 37 -63 59 -70 75 -151 145 -167 145 -6 0 -16 9 -23 20
-11 17 -24 20 -91 20 -77 0 -78 0 -88 -29z"/>
<path d="M7805 8233 c-11 -3 -42 -12 -70 -21 -27 -9 -53 -15 -57 -14 -4 1 -11
-10 -14 -26 -4 -15 -10 -31 -14 -37 -4 -5 -15 -43 -24 -82 -25 -104 -7 -329
20 -259 3 9 12 16 18 16 7 0 20 22 30 49 10 28 24 55 32 62 8 6 14 16 14 22 0
6 13 38 29 71 66 141 74 159 74 182 0 31 -12 42 -38 37z"/>
<path d="M10402 4409 c-12 -9 -22 -22 -22 -28 0 -14 -27 -14 -35 -1 -7 12 -73
3 -92 -13 -7 -5 -13 -23 -13 -40 0 -16 -7 -35 -17 -42 -16 -12 -21 -64 -8 -84
12 -21 100 -73 130 -78 27 -4 31 -2 33 22 4 49 32 95 58 95 15 0 24 6 24 15 0
8 7 15 16 15 9 0 29 8 45 17 39 23 40 72 4 99 -30 22 -31 31 -7 37 15 4 15 5
0 6 -9 0 -19 -3 -22 -8 -3 -5 -21 -6 -39 -1 -25 5 -39 3 -55 -11z"/>
<path d="M5003 3319 c-58 -53 -62 -59 -69 -108 -6 -44 -9 -51 -25 -46 -14 5
-20 0 -25 -19 -3 -13 -12 -27 -20 -30 -8 -3 -14 -17 -14 -30 0 -14 -9 -43 -20
-64 -11 -22 -25 -68 -31 -103 -6 -35 -20 -80 -30 -99 -10 -19 -27 -64 -38
-100 -11 -36 -34 -103 -50 -149 -17 -47 -28 -87 -26 -89 2 -3 -5 -18 -16 -33
-24 -34 -20 -44 20 -52 32 -7 81 13 116 46 16 14 30 17 65 13 80 -9 120 -18
120 -27 0 -4 17 -13 38 -19 46 -13 56 -19 71 -48 12 -23 13 -23 32 -6 10 9 19
27 19 40 0 13 4 25 9 28 5 3 20 31 35 62 23 48 27 72 31 177 3 67 7 159 10
205 4 69 1 93 -19 150 -13 37 -33 83 -45 102 -11 19 -21 50 -21 68 0 28 -21
76 -41 92 -3 3 -11 15 -18 28 -12 23 -38 28 -58 11z"/>
<path d="M15073 6444 c-39 -19 -67 -49 -59 -63 32 -51 246 -70 246 -22 0 19
-30 51 -48 51 -6 0 -23 11 -38 25 -31 29 -56 31 -101 9z"/>
<path d="M1652 6455 c-7 -14 -12 -32 -12 -39 0 -15 -29 -21 -190 -35 -88 -7
-115 -14 -170 -41 -74 -38 -99 -64 -100 -102 0 -15 -4 -30 -10 -33 -5 -3 -10
-13 -10 -21 0 -9 -6 -22 -12 -29 -7 -8 -19 -21 -26 -30 -7 -9 -40 -71 -72
-139 -32 -67 -66 -129 -75 -136 -11 -9 -15 -26 -14 -54 3 -39 6 -43 57 -68 30
-16 64 -28 77 -28 13 0 30 -7 38 -15 33 -33 147 -27 147 8 0 29 59 155 86 181
16 17 41 47 54 66 35 50 46 60 68 60 11 0 34 13 50 28 17 16 43 37 57 46 14 9
30 28 35 42 6 14 23 37 40 51 16 13 30 31 30 38 0 7 12 16 26 19 23 6 25 10
18 38 -3 18 -15 44 -25 58 -11 14 -23 39 -28 56 -7 25 -5 33 10 42 24 15 24
31 2 48 -26 20 -38 17 -51 -11z"/>
<path d="M1028 5577 c-7 -7 -31 -26 -53 -42 -22 -17 -45 -36 -50 -43 -6 -7
-21 -18 -34 -25 -13 -7 -24 -16 -24 -22 1 -10 87 -45 113 -45 8 0 37 -15 63
-34 53 -38 171 -72 212 -62 24 6 25 10 25 74 0 44 -5 75 -15 88 -8 10 -15 25
-15 32 0 18 -28 44 -73 70 -43 25 -127 30 -149 9z"/>
<path d="M452 4645 c-8 -16 -7 -29 4 -46 7 -13 16 -31 19 -39 4 -8 29 -26 58
-40 28 -14 65 -36 82 -50 40 -33 89 -60 109 -60 9 0 16 -7 16 -15 0 -23 15
-18 28 9 9 20 6 35 -21 90 -18 36 -38 66 -45 66 -8 0 -16 9 -19 19 -5 20 -58
51 -86 51 -9 0 -22 6 -29 13 -7 8 -34 16 -60 19 -40 5 -47 3 -56 -17z"/>
<path d="M336 4271 c-4 -6 -11 -9 -16 -6 -9 5 -20 -63 -12 -82 2 -7 8 -11 12
-8 4 3 13 -2 20 -10 7 -8 19 -15 26 -15 8 0 14 -4 14 -10 0 -15 71 -12 123 6
34 11 49 22 53 39 9 35 -5 65 -34 77 -40 16 -178 23 -186 9z"/>
</g>
</svg>
