<?xml version="1.0" standalone="no"?>
<!DOCTYPE svg PUBLIC "-//W3C//DTD SVG 20010904//EN"
 "http://www.w3.org/TR/2001/REC-SVG-20010904/DTD/svg10.dtd">
<svg version="1.0" xmlns="http://www.w3.org/2000/svg"
 width="1920.000000pt" height="1080.000000pt" viewBox="0 0 1920.000000 1080.000000"
 preserveAspectRatio="xMidYMid meet">
<metadata>
Created by potrace 1.16, written by Peter Selinger 2001-2019
</metadata>
<g transform="translate(0.000000,1080.000000) scale(0.100000,-0.100000)"
fill="#000000" stroke="none">
<path d="M0 9225 l0 -1575 30 0 c17 0 30 -4 30 -10 0 -5 16 -10 35 -10 42 0
43 -7 9 -40 -15 -13 -21 -26 -15 -28 6 -2 11 -12 11 -23 0 -11 7 -19 18 -19
23 -1 52 -24 52 -43 0 -10 10 -15 34 -15 18 0 43 -5 53 -11 11 -6 24 -7 28 -3
5 4 5 1 1 -6 -9 -14 28 -30 88 -38 22 -2 55 -8 71 -13 17 -5 37 -9 45 -9 41 1
178 -14 200 -22 14 -5 61 -12 105 -15 44 -3 132 -10 195 -16 63 -5 154 -12
202 -15 49 -3 88 -9 88 -14 0 -4 37 -10 83 -13 107 -9 120 -11 125 -25 2 -7
12 -12 23 -12 24 0 25 -15 2 -17 -10 -1 -61 -6 -113 -12 -52 -6 -169 -17 -260
-25 -91 -8 -205 -22 -255 -30 -123 -20 -228 -30 -302 -28 -34 1 -64 -2 -68 -7
-3 -5 -30 -13 -60 -16 -31 -4 -58 -11 -61 -16 -3 -5 -23 -9 -44 -9 -21 0 -42
-4 -45 -10 -3 -5 -15 -10 -25 -10 -11 0 -27 -11 -36 -25 -9 -14 -22 -25 -28
-25 -31 0 -60 -70 -36 -85 6 -3 10 -11 10 -16 0 -6 -5 -7 -11 -3 -6 3 -15 1
-18 -5 -8 -12 -47 -18 -123 -20 l-38 -1 0 -599 0 -599 66 -4 c71 -4 80 -10
139 -92 20 -27 91 -57 170 -72 54 -10 43 10 -34 61 -52 34 -72 54 -80 78 -14
45 -33 144 -37 197 -2 25 -8 68 -13 95 -5 28 -10 59 -11 70 0 11 -2 47 -3 80
-2 33 -7 68 -11 78 -5 11 -2 38 8 70 19 57 20 54 -44 89 -20 11 -30 24 -28 35
3 14 19 17 120 19 113 1 117 1 138 -24 13 -14 26 -47 30 -76 8 -52 34 -154 41
-160 30 -25 95 -66 106 -66 18 0 19 100 1 100 -17 1 53 60 70 60 8 0 41 26 75
59 67 63 95 81 126 81 31 0 26 -16 -19 -59 -37 -35 -39 -40 -30 -72 6 -18 10
-52 10 -74 0 -57 11 -69 51 -60 19 4 76 7 127 6 51 -1 99 2 105 7 19 15 65 23
71 13 20 -31 -50 -71 -122 -71 -26 1 -67 5 -92 10 -48 9 -65 3 -113 -36 -16
-13 -35 -24 -42 -24 -8 0 -34 -13 -58 -30 -38 -25 -46 -36 -51 -72 -6 -46 10
-107 38 -139 9 -11 16 -24 16 -29 0 -5 9 -14 19 -20 27 -14 58 -67 87 -152 37
-106 74 -175 101 -187 53 -24 131 -8 206 42 l27 18 0 -54 c0 -35 5 -59 14 -66
18 -15 132 -7 153 11 19 15 37 13 118 -14 169 -57 276 -32 330 75 8 17 15 40
15 53 0 13 4 26 10 29 16 10 12 35 -5 29 -10 -4 -15 0 -15 15 0 11 -8 25 -18
30 -10 5 -26 27 -36 48 -9 21 -32 49 -51 62 -19 13 -35 30 -35 38 0 7 -7 16
-15 19 -8 4 -15 12 -15 20 0 8 -5 14 -11 14 -5 0 -8 4 -4 9 3 5 1 12 -5 16
-16 10 -12 37 11 61 11 12 22 28 23 35 8 49 18 60 46 54 16 -3 31 -2 35 4 4 7
17 6 39 -3 32 -13 34 -13 44 9 6 13 18 22 26 21 21 -3 33 -16 14 -16 -20 0
-36 -35 -41 -91 -3 -29 -12 -56 -25 -69 -30 -33 -15 -52 54 -66 41 -8 53 -8
43 0 -8 6 -16 33 -17 59 -3 40 1 55 23 87 23 34 26 46 21 83 -6 40 -4 46 20
62 14 9 29 13 33 8 4 -4 13 -46 19 -92 l12 -84 57 -54 c32 -30 57 -58 56 -63
-2 -5 9 -17 23 -27 14 -10 54 -41 87 -69 68 -55 93 -68 102 -54 8 13 111 1
144 -17 15 -7 32 -13 39 -13 7 0 20 -6 27 -14 9 -9 50 -17 110 -21 52 -4 98
-11 100 -16 3 -4 18 -1 33 7 15 7 43 17 62 20 50 9 187 52 238 75 23 10 51 19
61 19 25 0 143 38 155 50 6 6 20 10 32 10 13 0 26 5 29 10 4 6 11 8 16 5 5 -4
9 1 9 10 0 9 4 14 9 10 11 -6 61 15 61 26 0 4 9 10 19 14 11 3 23 14 26 24 3
10 15 23 28 30 12 7 39 40 61 73 36 58 38 65 34 123 -4 50 -11 66 -34 91 -16
16 -41 36 -56 44 -16 7 -28 19 -28 26 0 14 -25 26 -34 16 -12 -11 -49 -12 -62
-1 -8 6 -14 23 -14 38 0 15 -7 36 -15 48 -10 15 -13 32 -9 50 8 30 28 56 37
47 3 -3 25 -8 50 -10 39 -4 47 -1 71 27 26 29 27 35 23 102 -12 177 -51 293
-107 322 -14 7 -42 31 -62 52 -92 96 -116 121 -160 160 -26 24 -79 59 -119 79
-62 32 -85 37 -158 41 -78 4 -95 2 -175 -27 -66 -23 -100 -30 -126 -26 -48 8
-129 43 -157 68 -20 18 -40 21 -182 26 -137 4 -162 3 -176 -11 -17 -18 -12
-56 12 -94 15 -22 11 -43 -8 -43 -15 0 -38 25 -49 55 -9 24 -13 26 -43 19 -66
-16 -122 5 -129 47 -2 17 -15 25 -57 36 -47 12 -56 11 -71 -2 -9 -8 -21 -15
-27 -15 -20 0 -73 32 -68 41 4 5 -1 6 -9 3 -16 -6 -72 41 -58 49 4 3 39 8 77
12 39 3 94 11 123 17 44 10 51 14 46 30 -3 10 -1 18 4 18 16 0 -20 83 -63 149
-37 57 -54 71 -99 85 -10 4 -16 9 -13 13 4 3 19 1 34 -5 15 -6 40 -13 55 -16
38 -9 168 -152 168 -186 0 -5 9 -25 20 -45 11 -20 20 -42 20 -50 0 -8 5 -15
11 -15 5 0 7 5 4 10 -4 6 13 10 42 11 26 0 62 2 78 4 17 2 60 4 98 4 50 1 69
4 73 15 3 9 16 18 27 22 40 12 77 61 79 101 0 21 2 43 3 48 2 6 3 16 4 23 1
17 16 15 35 -4 22 -22 20 -89 -4 -139 -11 -23 -18 -49 -15 -57 3 -8 31 -19 64
-26 45 -10 60 -17 69 -37 6 -13 23 -32 38 -41 23 -16 34 -16 97 -6 38 7 92 24
118 39 48 26 51 26 186 20 128 -6 136 -5 116 10 -27 18 -28 26 -8 47 13 13 14
26 4 85 -9 64 -9 72 10 98 11 15 23 46 27 67 7 37 6 39 -18 34 -20 -4 -29 1
-40 21 -20 35 -6 91 22 91 11 0 20 5 20 10 0 6 7 10 15 10 9 0 20 12 25 26 6
16 16 24 27 22 10 -1 31 7 48 17 22 15 50 21 122 23 103 4 118 -1 128 -49 8
-36 26 -33 40 7 15 46 41 57 69 29 9 -10 15 -35 15 -71 0 -38 5 -62 16 -74 15
-17 14 -20 -14 -49 -30 -31 -31 -34 -31 -132 l0 -101 34 -34 c19 -19 43 -34
54 -34 25 0 52 -10 52 -19 0 -4 -13 -15 -30 -24 -37 -22 -40 -47 -5 -47 32 0
32 -16 0 -24 -29 -7 -42 -44 -26 -74 5 -10 13 -110 15 -222 l6 -202 30 -53
c16 -29 30 -61 30 -72 0 -12 7 -26 15 -33 8 -7 15 -18 15 -25 0 -7 11 -20 25
-29 14 -9 25 -25 25 -35 0 -11 11 -42 25 -69 14 -28 25 -58 25 -68 0 -20 25
-55 72 -106 14 -15 23 -28 20 -29 -4 0 18 -7 48 -15 30 -8 62 -24 71 -35 15
-20 18 -20 65 -6 27 8 48 20 46 27 -1 6 2 9 7 6 5 -3 33 17 62 45 29 27 57 53
63 57 22 14 76 90 76 107 0 9 5 13 10 10 6 -3 10 0 10 8 0 8 9 22 20 32 11 10
20 26 20 35 0 10 7 24 17 31 9 8 25 32 35 54 10 22 24 47 30 55 33 39 130 84
146 68 5 -5 14 -3 22 7 7 8 20 15 30 15 15 0 29 25 30 53 0 12 -28 8 -33 -5
-3 -7 -3 3 0 22 6 37 26 60 54 60 23 0 29 20 39 130 5 52 19 125 32 162 29 84
114 195 184 240 34 21 50 37 46 47 -3 7 2 19 11 26 15 10 14 17 -2 81 -10 38
-25 86 -34 106 -9 21 -19 58 -22 83 -4 25 -11 48 -16 51 -11 6 -1 104 12 118
14 15 23 -25 11 -45 -14 -23 -15 -59 -2 -79 8 -13 10 -13 10 2 0 9 5 20 11 24
6 4 10 -1 8 -12 -3 -22 133 -305 155 -324 29 -23 189 30 253 84 40 34 66 86
97 196 14 47 33 106 44 131 18 41 23 46 51 45 17 0 31 -4 31 -8 0 -10 -29 -99
-40 -123 -6 -11 -11 -29 -13 -40 -20 -115 -58 -196 -119 -255 -37 -37 -90 -66
-235 -132 -29 -12 -53 -28 -53 -35 0 -6 -9 -15 -20 -18 -25 -8 -26 -23 -2 -32
21 -8 32 -23 32 -45 0 -29 -61 -24 -88 7 -12 14 -30 25 -39 25 -15 0 -16 -2
-3 -10 12 -8 10 -10 -8 -10 -19 0 -22 4 -17 20 8 25 -12 26 -42 2 -30 -24 -73
-91 -73 -113 0 -11 -4 -19 -8 -19 -15 0 -42 -96 -41 -150 1 -91 -19 -197 -49
-258 -38 -78 -72 -132 -83 -132 -5 0 -9 -7 -9 -15 0 -7 -6 -18 -13 -22 -32
-20 -97 -193 -97 -260 0 -31 59 -89 115 -113 37 -16 61 -20 98 -15 42 4 107
33 127 54 3 4 14 11 25 17 11 6 20 20 21 32 2 43 38 85 84 100 25 8 49 21 53
28 4 8 13 14 18 14 6 0 36 19 67 43 32 23 68 47 82 54 59 27 181 21 202 -11 4
-6 9 -4 14 7 3 9 13 17 21 17 8 0 11 -4 8 -10 -3 -5 -1 -10 4 -10 6 0 11 7 11
15 0 8 9 15 20 15 11 0 20 5 20 11 0 6 6 9 13 6 6 -2 24 4 38 14 27 19 47 24
83 21 18 -2 18 -19 1 -64 -5 -13 3 -13 49 -5 46 9 56 14 61 35 3 14 17 33 30
44 13 10 30 34 37 53 10 29 24 41 75 66 66 32 110 37 51 5 -20 -11 -54 -49
-88 -99 -30 -45 -67 -95 -82 -111 -28 -29 -29 -46 -2 -46 19 0 19 -89 -1 -116
-14 -18 -15 -18 -38 10 -29 35 -35 27 -31 -39 4 -73 4 -73 40 -100 18 -14 35
-37 38 -52 7 -28 62 -73 90 -73 7 0 29 -7 49 -15 40 -17 167 -16 188 2 8 6 30
13 49 17 19 3 44 7 55 9 11 2 30 9 43 16 12 6 66 14 120 17 53 3 113 12 133
21 36 15 37 15 95 -22 53 -34 62 -37 108 -31 27 3 52 9 55 14 3 5 15 11 26 14
11 3 28 9 38 13 13 5 17 2 17 -14 0 -12 5 -21 10 -21 6 0 10 10 10 23 2 94 10
142 26 154 18 13 18 15 0 48 -26 47 -15 108 24 149 21 21 33 27 40 20 8 -8 6
-15 -5 -24 -8 -7 -15 -27 -15 -45 0 -79 31 -87 63 -17 37 78 51 93 96 99 51 7
56 -14 12 -49 -19 -15 -36 -45 -50 -90 -22 -65 -22 -69 -6 -132 14 -55 15 -81
6 -154 -5 -48 -9 -117 -8 -154 2 -75 11 -82 65 -54 15 7 45 16 67 20 22 4 47
9 55 11 8 2 29 4 47 4 18 1 37 7 42 14 6 6 24 28 40 48 39 46 48 72 66 183 9
50 26 116 40 146 13 30 34 88 45 128 17 58 25 72 40 72 28 0 26 -37 -5 -83
-36 -52 -27 -60 59 -52 58 6 80 13 117 40 62 45 108 67 119 60 17 -11 11 -24
-23 -47 -136 -93 -163 -108 -212 -118 -29 -6 -61 -20 -71 -31 -17 -19 -44
-129 -47 -194 -2 -25 2 -30 26 -32 56 -4 137 -33 137 -49 0 -20 -40 -34 -64
-22 -50 27 -170 -24 -199 -85 -20 -40 -17 -39 -151 -58 -86 -12 -89 -14 -102
-45 -14 -33 -31 -44 -68 -44 -54 0 -124 -119 -133 -227 -7 -77 1 -111 30 -124
12 -6 38 -18 57 -29 19 -10 80 -33 135 -50 55 -18 108 -36 117 -41 39 -20 119
1 231 62 9 5 38 12 63 16 35 4 48 12 56 29 6 13 23 26 38 29 15 3 40 19 55 35
33 35 60 38 75 10 14 -26 2 -46 -40 -68 -18 -9 -40 -27 -48 -39 -13 -21 -11
-26 42 -78 31 -31 56 -62 56 -69 0 -23 27 -26 53 -6 14 11 36 21 49 22 l23 3
0 -123 c0 -68 -3 -126 -7 -128 -8 -5 -48 35 -48 48 0 7 -72 48 -84 48 -2 0 -9
-13 -14 -28 -8 -25 -17 -30 -57 -35 -38 -6 -50 -4 -59 9 -8 10 -27 16 -52 16
-50 0 -85 13 -152 55 -53 34 -54 34 -124 24 -58 -8 -82 -6 -143 10 -98 25
-233 30 -248 8 -17 -27 0 -63 55 -120 40 -41 68 -59 113 -75 59 -20 60 -21
100 -98 38 -76 42 -79 99 -103 32 -13 65 -22 72 -19 21 8 64 -11 64 -29 0 -8
12 -34 26 -56 40 -63 22 -69 -34 -12 -43 44 -57 53 -87 53 -21 0 -48 9 -66 22
-30 23 -31 23 -45 4 -14 -20 -14 -20 -15 0 -1 10 -1 22 -1 25 1 3 -16 25 -38
47 -21 23 -44 58 -50 77 -8 24 -18 35 -31 35 -10 0 -19 -2 -19 -4 0 -11 61
-126 70 -131 17 -10 11 -56 -11 -92 -18 -29 -21 -44 -16 -93 7 -60 24 -110 39
-110 4 0 8 -4 8 -10 0 -5 -7 -10 -15 -10 -8 0 -23 -16 -32 -37 -22 -44 -47
-63 -64 -46 -8 8 -9 28 0 75 8 46 8 74 0 103 -6 22 -9 68 -6 103 5 48 3 62 -7
62 -19 0 -67 40 -61 51 4 5 20 9 37 9 l30 0 -7 53 c-8 56 -20 76 -78 126 -28
26 -43 32 -62 27 -29 -7 -28 -10 -25 99 2 71 0 78 -14 66 -16 -14 -31 -8 -61
24 -5 5 -37 30 -70 55 -33 24 -74 56 -91 70 -17 14 -41 32 -54 40 -12 8 -40
29 -62 47 -21 17 -47 34 -57 38 -10 3 -24 17 -32 32 -8 14 -31 37 -52 50 -21
13 -40 30 -44 38 -3 8 -16 15 -29 15 -28 0 -32 24 -7 38 16 9 16 12 0 35 -9
14 -25 26 -34 26 -10 1 -35 4 -55 7 -24 4 -38 2 -38 -4 0 -7 -11 -6 -33 2 -17
8 -46 12 -63 9 -18 -3 -35 0 -38 6 -4 6 -18 11 -31 11 -19 0 -24 -7 -30 -40
-7 -39 -5 -42 42 -85 26 -25 56 -45 66 -45 9 0 17 -7 17 -16 0 -8 5 -12 10 -9
6 3 10 -5 10 -19 0 -13 -6 -27 -13 -29 -9 -4 -9 -6 1 -6 6 -1 12 -14 12 -30 0
-17 5 -33 10 -36 6 -3 10 -15 10 -26 0 -13 4 -18 12 -13 8 5 9 2 5 -10 -4 -10
0 -30 10 -47 22 -36 14 -44 -24 -23 -24 14 -63 75 -63 100 0 23 -34 31 -135
31 -61 0 -120 5 -132 9 -25 10 -144 121 -141 132 4 23 -17 94 -31 101 -9 5
-33 25 -53 43 -19 19 -61 47 -92 62 -32 16 -55 33 -53 39 4 12 -32 57 -46 57
-5 0 -24 15 -43 33 -19 17 -37 31 -39 30 -3 -2 -21 6 -41 18 -34 19 -37 19
-55 3 -18 -16 -20 -16 -41 2 -13 10 -20 15 -16 10 4 -4 -2 -17 -13 -29 -10
-11 -19 -27 -19 -34 0 -8 -16 -21 -35 -29 -24 -10 -35 -21 -35 -35 0 -14 -12
-25 -37 -36 -21 -8 -57 -30 -80 -49 -49 -40 -55 -41 -100 -13 -26 16 -44 20
-76 16 -32 -4 -50 0 -82 19 -67 39 -143 34 -198 -12 -16 -13 -41 -27 -55 -30
-15 -4 -36 -13 -47 -20 -11 -8 -27 -14 -37 -14 -10 0 -18 -4 -18 -8 0 -5 -10
-19 -22 -32 -13 -14 -24 -31 -25 -40 -2 -8 -7 -40 -13 -70 -6 -36 -6 -56 0
-58 6 -2 10 -10 10 -17 0 -7 9 -15 20 -18 13 -3 18 -11 14 -20 -3 -10 2 -18
15 -22 11 -3 20 -10 18 -15 -1 -4 12 -21 28 -37 17 -15 39 -40 48 -55 9 -15
42 -46 72 -68 86 -63 213 -198 250 -265 21 -38 46 -111 68 -200 58 -234 89
-279 234 -346 112 -52 237 -134 294 -196 52 -55 149 -214 149 -243 0 -11 9
-35 20 -55 11 -19 17 -35 14 -35 -23 0 -52 36 -106 135 -46 85 -69 117 -90
126 -34 14 -62 38 -71 62 -3 9 -11 17 -17 17 -6 0 -10 -41 -10 -110 0 -109
-13 -165 -56 -248 -8 -15 -14 -44 -14 -65 0 -31 -4 -39 -25 -47 -14 -5 -32 -7
-41 -3 -22 8 -14 68 27 193 48 151 48 181 3 270 -38 73 -41 75 -119 115 -56
28 -100 60 -147 107 -38 38 -68 72 -68 78 0 6 -9 29 -19 53 -11 23 -25 59 -33
81 -7 22 -23 43 -35 49 -23 10 -32 47 -12 47 8 0 10 18 7 54 -4 47 -11 61 -63
125 -33 39 -62 71 -66 71 -4 0 -20 13 -36 28 -43 42 -188 152 -201 152 -7 0
-15 -18 -18 -40 -4 -22 -11 -43 -16 -46 -15 -9 33 -54 58 -54 12 0 27 -6 33
-13 6 -8 30 -20 53 -27 24 -8 52 -20 63 -27 11 -7 28 -13 38 -13 22 0 97 -77
97 -100 0 -33 -16 -41 -36 -19 -42 47 -91 69 -153 69 -45 0 -62 4 -69 17 -7
12 -18 15 -44 10 -21 -3 -54 2 -87 13 -49 18 -53 18 -73 2 -31 -26 -88 -82
-82 -82 2 0 -15 -27 -38 -61 -70 -100 -107 -167 -101 -187 3 -11 -5 -28 -21
-43 -20 -19 -26 -34 -26 -69 0 -47 23 -180 41 -240 14 -46 66 -150 86 -173 29
-31 5 -30 -39 2 -41 31 -78 40 -78 21 0 -5 -8 -10 -18 -10 -15 0 -18 9 -19 56
-1 32 -6 60 -11 63 -5 3 -13 26 -17 51 -13 80 -39 110 -95 110 l-39 0 1 -50
c2 -65 -18 -90 -58 -71 -22 9 -29 9 -35 0 -4 -7 -29 -13 -56 -13 -42 -1 -48 1
-45 19 6 44 25 66 50 60 16 -4 30 0 41 10 9 9 25 23 36 31 11 9 15 13 9 10 -7
-3 -15 5 -18 18 -3 13 -11 26 -18 29 -22 8 -78 -5 -78 -18 0 -7 -7 -15 -15
-19 -8 -3 -15 -13 -15 -22 0 -9 -6 -14 -14 -11 -8 3 -28 -14 -49 -41 -34 -45
-36 -52 -51 -186 -8 -76 -20 -144 -25 -149 -6 -6 -11 -37 -11 -68 0 -32 -3
-64 -6 -73 -9 -23 -76 -39 -109 -26 -15 6 -57 8 -94 5 -36 -3 -90 -8 -118 -10
-99 -9 -131 27 -99 108 10 26 12 43 6 45 -5 2 -10 8 -10 13 0 6 4 7 10 4 5 -3
12 5 16 19 3 14 12 30 20 37 9 8 14 33 14 75 0 42 5 67 15 78 8 8 15 26 15 40
0 13 4 35 9 48 13 35 88 108 110 108 11 0 23 5 26 10 4 6 11 8 16 5 5 -4 9 -1
9 4 0 6 5 11 10 11 6 0 20 9 31 19 12 11 35 22 52 25 20 4 42 19 59 40 28 35
62 105 59 120 -1 4 5 18 13 30 24 37 33 134 19 201 -6 33 -12 88 -13 123 0 34
-4 62 -10 62 -13 0 -13 57 0 62 6 2 12 35 12 75 1 55 -2 77 -15 91 -9 10 -17
26 -17 36 0 9 -7 19 -16 23 -8 3 -13 11 -10 18 7 18 -5 27 -20 15 -8 -8 -16
-7 -25 3 -23 22 -45 26 -71 13 -14 -8 -53 -15 -87 -18 -42 -3 -70 -11 -91 -26
-16 -12 -41 -22 -55 -22 -25 0 -160 -63 -170 -80 -3 -5 -29 -20 -58 -35 -64
-31 -187 -47 -250 -34 -44 10 -125 38 -142 49 -18 11 -95 12 -95 1 0 -6 -10
-11 -22 -11 -19 0 -20 -2 -8 -10 10 -7 11 -10 2 -10 -7 0 -15 7 -18 15 -4 8
-12 15 -20 15 -17 0 -17 -5 -4 -30 8 -16 3 -20 -40 -36 -49 -18 -71 -44 -82
-99 -2 -11 -10 -19 -16 -18 -7 2 -12 -4 -12 -12 0 -8 -13 -16 -32 -19 -98 -15
-128 -17 -128 -7 0 6 -7 11 -15 11 -8 0 -15 4 -15 9 0 15 -64 77 -103 99 -46
27 -47 27 -47 3 0 -22 -29 -32 -74 -24 -18 3 -59 -1 -92 -8 -32 -7 -71 -12
-86 -11 -16 2 -28 -2 -28 -8 0 -7 -7 -10 -15 -6 -10 3 -20 -7 -31 -32 -10 -20
-19 -39 -20 -41 -5 -7 -34 27 -43 51 -6 16 -22 27 -57 36 -27 8 -58 17 -69 21
-22 9 -136 -17 -147 -33 -4 -6 -9 -15 -11 -20 -5 -16 -85 -15 -98 0 -16 19 -2
139 18 160 8 8 12 18 8 22 -4 4 -10 1 -12 -5 -6 -18 -84 -16 -110 2 -12 8 -43
18 -68 22 l-47 6 5 -80 c4 -67 11 -93 46 -165 22 -47 47 -88 55 -91 8 -3 18
-23 22 -44 9 -49 21 -73 51 -96 24 -19 33 -80 13 -92 -5 -3 -10 -15 -10 -26 0
-10 -7 -19 -15 -19 -8 0 -15 -4 -15 -10 0 -5 4 -10 8 -10 5 0 9 -19 9 -43 0
-23 1 -48 4 -56 2 -9 -8 -21 -24 -29 -40 -20 -73 3 -82 58 -8 46 -11 48 -34
19 -17 -21 -17 -21 -43 17 -80 120 -97 156 -87 181 16 44 10 81 -26 140 -19
32 -35 65 -35 73 0 9 -13 30 -29 48 -28 30 -29 34 -15 59 28 55 15 74 -58 88
-53 10 -101 -10 -168 -69 -37 -33 -80 -60 -121 -75 -35 -13 -73 -32 -84 -42
-11 -10 -33 -23 -49 -28 -65 -25 -136 -83 -156 -127 -11 -23 -20 -47 -20 -53
0 -12 -41 -42 -50 -36 -4 3 -5 16 -2 30 3 18 0 25 -12 25 -15 0 -16 -192 -16
-2340 l0 -2340 9600 0 9600 0 0 2545 0 2545 -35 0 c-19 0 -35 -4 -35 -10 0 -5
-11 -10 -25 -10 -14 0 -44 -9 -65 -20 -33 -17 -66 -21 -199 -26 -107 -3 -161
-2 -166 5 -3 6 -25 11 -49 11 -23 0 -51 7 -62 15 -10 8 -44 17 -75 21 -69 8
-79 23 -79 124 0 127 -41 175 -180 210 -19 5 -41 18 -49 29 -10 15 -24 21 -52
21 -21 0 -41 4 -44 10 -8 12 -55 13 -74 1 -7 -5 -11 -13 -7 -19 5 -9 -28 -26
-46 -23 -4 0 -5 -6 -2 -14 4 -10 0 -15 -15 -15 -12 0 -21 5 -21 10 0 6 -13 10
-30 10 -21 0 -30 -5 -30 -16 0 -13 -3 -14 -14 -5 -18 15 -162 -20 -159 -38 2
-6 -3 -11 -10 -11 -6 0 -25 -7 -40 -15 -15 -8 -34 -12 -42 -9 -8 4 -18 -1 -21
-10 -3 -9 -13 -16 -20 -16 -11 0 -12 -5 -6 -17 7 -13 3 -24 -13 -40 -13 -12
-26 -19 -29 -16 -3 4 -6 2 -6 -4 0 -6 -8 -10 -17 -9 -14 1 -17 -5 -15 -26 3
-24 -3 -30 -42 -49 -25 -12 -46 -25 -46 -29 0 -5 -8 -11 -17 -14 -10 -3 -30
-17 -46 -31 -15 -15 -32 -23 -37 -20 -6 3 -10 1 -10 -5 0 -6 -4 -9 -9 -6 -13
9 -61 -33 -61 -53 0 -22 -39 -56 -65 -58 -11 -1 -37 -6 -57 -11 -26 -7 -38 -7
-38 1 0 6 -3 7 -7 4 -3 -4 -5 -34 -4 -67 1 -49 -3 -66 -21 -91 l-23 -31 24
-19 c13 -11 30 -31 37 -45 11 -21 11 -26 -2 -31 -42 -16 -308 -1 -319 18 -8
11 -62 -19 -70 -39 -12 -31 -25 -265 -24 -421 2 -139 0 -155 -17 -168 -12 -9
-21 -10 -28 -3 -7 7 -14 117 -18 288 -11 428 -18 532 -34 532 -13 0 -18 -12
-15 -32 0 -5 -7 -9 -17 -9 -34 -2 -59 -11 -104 -35 -26 -14 -29 -14 -52 11
-21 22 -30 25 -60 19 -28 -5 -36 -11 -37 -28 0 -12 -3 -15 -6 -8 -4 10 -11 8
-29 -9 -13 -12 -24 -28 -24 -34 0 -7 -22 -22 -50 -33 -38 -16 -51 -27 -56 -49
-4 -15 -12 -34 -18 -42 -7 -9 -10 -58 -8 -138 3 -122 -2 -153 -36 -233 -8 -19
-19 -71 -25 -116 -9 -76 -8 -86 16 -150 14 -38 30 -91 37 -119 6 -27 20 -65
31 -83 25 -43 24 -52 -6 -52 -30 0 -48 26 -70 104 -10 33 -24 75 -32 94 -14
33 -15 34 -34 16 -19 -17 -119 -189 -119 -206 0 -15 -44 -27 -58 -16 -13 11
-13 10 102 213 50 88 51 92 52 175 0 60 7 106 23 155 19 59 21 83 17 153 -4
46 -10 92 -15 101 -5 9 -12 37 -15 62 -2 24 -5 45 -5 47 -2 6 -97 -11 -146
-26 -92 -28 -134 -52 -192 -110 -96 -94 -160 -150 -180 -155 -10 -3 -56 -11
-103 -17 -111 -16 -132 -33 -129 -107 2 -51 -13 -89 -32 -77 -5 2 -6 24 -3 47
5 31 2 46 -9 55 -16 14 -10 45 19 105 13 26 12 28 -14 38 -63 24 -230 62 -273
62 -51 0 -107 -32 -169 -98 -77 -82 -176 -141 -285 -171 -69 -19 -77 -18 -73
9 2 15 11 23 28 25 32 4 108 32 140 51 14 8 70 58 126 111 55 53 122 107 148
120 43 20 58 22 130 17 44 -3 107 -15 138 -27 41 -14 82 -20 141 -20 76 0 88
3 126 28 23 16 67 57 98 92 66 77 105 106 233 182 30 17 66 39 80 49 14 9 62
40 107 69 60 39 90 67 115 104 18 28 54 73 81 101 69 71 80 91 73 130 -8 42
-18 44 -186 41 -130 -3 -160 -9 -160 -32 0 -15 -26 -19 -34 -6 -3 5 -44 12
-92 15 -54 4 -91 11 -96 19 -5 7 -6 33 -2 58 14 89 18 83 -76 96 -101 15 -130
23 -130 36 0 6 13 7 33 2 17 -4 79 -7 137 -7 94 1 111 4 159 28 29 15 70 29
91 32 36 5 38 4 53 -36 10 -23 17 -48 17 -56 0 -19 51 -45 90 -45 17 0 52 9
77 21 25 11 52 18 60 15 8 -3 25 -3 39 0 46 12 30 46 -52 115 -42 35 -104 90
-138 122 -47 45 -92 74 -192 123 -137 67 -161 74 -170 49 -6 -16 -64 -48 -72
-40 -3 2 1 12 8 21 12 13 11 17 -1 25 -8 5 -24 9 -37 9 -13 0 -52 14 -87 30
-36 17 -86 33 -112 37 -36 5 -43 8 -28 14 36 14 102 9 146 -10 35 -16 119 -27
161 -22 4 1 -8 29 -26 64 -19 34 -51 102 -72 151 -20 48 -52 103 -69 122 -29
31 -38 34 -88 34 -31 0 -67 -4 -81 -10 -14 -5 -79 -14 -143 -19 -132 -12 -238
-43 -312 -92 -56 -37 -86 -45 -116 -31 -13 6 -50 14 -83 18 -48 5 -68 2 -107
-15 -60 -26 -67 -26 -63 2 5 35 61 57 143 56 39 -1 81 -4 95 -8 32 -10 88 9
147 49 61 42 172 77 263 85 103 9 112 13 74 33 -17 9 -42 26 -55 37 -30 24
-132 176 -153 226 -8 20 -29 50 -47 65 -45 41 -103 103 -112 121 -15 25 23 0
58 -39 17 -18 51 -45 76 -59 39 -22 49 -35 67 -85 25 -67 136 -195 187 -214
17 -6 64 -13 105 -14 85 -3 126 -22 198 -90 49 -46 80 -102 107 -191 23 -73
55 -127 92 -152 15 -11 70 -34 121 -53 51 -18 118 -48 149 -66 30 -19 59 -34
64 -34 5 0 9 -4 9 -9 0 -10 143 -102 217 -140 23 -11 52 -21 64 -21 21 0 21 3
15 68 -3 37 -10 144 -16 237 -11 177 -17 223 -46 365 -22 108 -22 218 1 293
14 44 16 62 7 80 -6 12 -13 47 -15 78 -6 70 -22 101 -81 159 -49 49 -54 58
-116 230 -23 63 -48 127 -56 142 -19 37 -18 58 5 58 22 0 64 -82 112 -220 30
-85 61 -132 110 -164 26 -17 27 -16 46 16 10 18 25 49 33 68 7 19 24 44 37 55
l24 20 -21 42 c-11 23 -27 46 -36 51 -10 6 -14 19 -12 38 3 26 7 29 38 30 49
1 116 31 135 60 16 25 44 31 62 13 13 -13 78 -16 115 -5 21 6 29 4 34 -8 7
-19 -41 -66 -68 -66 -10 0 -21 -7 -24 -15 -4 -8 -10 -12 -15 -9 -5 3 -9 0 -9
-5 0 -6 -11 -21 -24 -32 -20 -18 -25 -34 -31 -101 -7 -72 -11 -84 -40 -117
-35 -39 -105 -164 -105 -188 0 -19 22 -55 43 -71 18 -14 18 -15 -3 -37 -20
-21 -42 -93 -57 -182 -3 -18 0 -47 6 -65 15 -42 37 -150 51 -253 6 -44 13 -91
16 -105 2 -14 13 -73 23 -132 13 -69 31 -130 53 -175 29 -59 39 -71 81 -92 37
-18 51 -21 60 -12 9 9 14 109 18 349 3 185 12 401 19 479 11 114 12 183 3 356
-12 218 -8 274 21 302 19 20 24 39 30 130 8 105 15 144 41 210 25 64 45 209
37 263 -3 20 0 32 7 32 7 0 11 -10 10 -22 -5 -57 -6 -57 84 -51 108 7 112 3
115 -113 2 -49 5 -97 8 -106 3 -10 1 -18 -5 -18 -6 0 -11 -12 -10 -27 0 -25 1
-26 9 -8 7 16 9 13 9 -16 1 -25 9 -45 29 -65 16 -17 31 -38 35 -47 7 -18 110
-71 137 -70 48 1 60 4 60 18 0 10 11 15 35 15 35 0 51 19 18 21 -15 0 -15 2 2
8 11 5 22 5 25 1 7 -10 70 0 70 11 0 5 11 9 25 9 14 0 41 7 61 15 37 15 36 15
63 15 10 0 34 13 52 30 19 16 41 30 49 30 9 0 20 4 25 9 6 5 27 12 48 15 21 3
51 13 68 21 16 9 52 17 79 18 28 1 50 5 50 10 0 4 14 7 30 7 17 0 30 4 30 9 0
5 37 14 83 21 70 10 97 9 166 -4 46 -9 85 -16 87 -16 2 0 3 -5 1 -12 -1 -7 12
-13 33 -14 123 -7 203 -19 260 -41 36 -13 79 -30 95 -36 17 -6 33 -16 37 -21
11 -16 234 -14 250 2 24 24 98 7 98 -22 0 -15 -43 -26 -101 -26 l-39 0 0 -56
0 -56 68 6 c91 8 145 8 151 -1 3 -5 23 -9 44 -10 l37 -3 0 1285 0 1285 -30 0
c-18 0 -30 5 -30 13 0 16 37 57 50 57 6 0 10 187 10 500 l0 500 -9600 0 -9600
0 0 -1575z m13090 -1914 c0 -25 -71 -84 -133 -110 -59 -26 -75 -58 -88 -184
-5 -50 -13 -95 -18 -101 -7 -10 -24 -75 -25 -101 -1 -5 24 -11 54 -12 94 -6
136 -24 225 -99 28 -24 74 -55 104 -69 l53 -27 61 32 c34 17 78 46 97 64 19
18 60 44 90 58 30 14 70 43 88 63 38 44 51 41 26 -6 -19 -38 -42 -59 -104 -96
-25 -15 -72 -51 -106 -80 -91 -79 -170 -100 -249 -67 -21 8 -70 37 -109 64
-89 61 -116 71 -188 72 -53 1 -63 -3 -116 -41 -97 -71 -155 -93 -262 -101 -97
-7 -137 -20 -198 -64 -18 -14 -37 -26 -41 -28 -4 -2 -64 -77 -132 -168 -68
-91 -126 -167 -129 -170 -31 -28 -85 -109 -100 -154 -23 -63 -25 -89 -9 -118
6 -11 13 -35 15 -53 2 -19 9 -46 16 -62 10 -25 12 -26 16 -8 7 36 20 38 27 5
4 -19 3 -35 -3 -39 -7 -4 -5 -13 4 -25 7 -11 17 -17 20 -13 4 3 13 0 21 -8 8
-8 23 -15 34 -15 10 0 19 -3 19 -8 0 -9 74 -42 94 -42 8 0 18 -4 21 -10 3 -5
17 -10 31 -10 21 0 75 -29 94 -51 11 -12 148 -49 200 -53 30 -3 75 -9 100 -13
59 -11 90 -6 90 14 0 31 -35 91 -63 107 -16 9 -31 25 -34 36 -3 10 -16 26 -29
35 -28 18 -32 45 -6 45 9 0 37 -10 62 -22 25 -12 60 -29 78 -37 17 -9 34 -23
37 -32 7 -20 52 -42 60 -29 9 14 33 1 41 -22 5 -16 13 -19 35 -16 17 3 32 1
34 -2 3 -4 32 -1 66 7 33 7 82 13 107 11 l47 -3 0 40 0 40 52 7 c29 4 73 18
99 29 l46 22 -5 46 c-3 25 -6 55 -8 66 -3 14 2 21 19 23 23 4 26 -3 22 -63 -1
-23 8 -39 39 -70 23 -21 41 -43 41 -49 0 -16 -42 -56 -59 -56 -8 0 -29 5 -47
12 -27 9 -37 9 -58 -6 -14 -9 -26 -22 -26 -29 0 -7 -10 -24 -21 -36 l-22 -23
46 -42 c25 -22 76 -84 113 -136 69 -96 93 -122 106 -114 5 3 8 -4 8 -15 0 -14
6 -21 20 -21 11 0 20 -4 20 -10 0 -5 5 -10 11 -10 6 0 9 7 5 15 -4 11 2 15 23
15 15 0 46 13 68 29 25 18 64 34 98 40 31 6 69 18 85 28 25 15 39 15 109 6 69
-9 83 -14 105 -39 42 -47 34 -124 -13 -124 -39 0 -72 -11 -65 -21 3 -5 10 -7
15 -4 5 4 9 1 9 -5 0 -14 25 -40 38 -40 5 0 17 -9 27 -20 13 -14 16 -28 11
-55 -4 -19 -10 -35 -14 -35 -4 0 -34 20 -67 45 -33 25 -68 48 -79 51 -21 7
-39 -13 -31 -35 11 -28 -36 -45 -120 -46 -66 0 -83 3 -97 19 -10 10 -18 17
-18 15 0 -17 33 -155 40 -168 17 -32 57 -61 90 -65 19 -3 48 -9 63 -15 15 -6
31 -10 35 -10 25 4 46 -4 67 -26 14 -13 25 -23 25 -21 0 11 105 -23 114 -36
18 -30 -11 -50 -70 -47 -45 2 -56 -1 -73 -22 -20 -24 -23 -22 -25 16 -1 22
-93 73 -136 75 -55 3 -188 79 -190 110 -1 8 -20 53 -44 100 -31 61 -48 85 -62
85 -52 1 -144 18 -144 26 0 18 -69 39 -125 39 -30 0 -87 9 -126 20 -40 11 -75
17 -79 15 -15 -9 -40 7 -40 25 0 10 -4 20 -9 22 -5 2 -31 28 -58 58 -48 54
-76 70 -88 50 -3 -5 -14 -10 -24 -10 -10 0 -30 -9 -44 -20 -26 -21 -72 -27
-82 -11 -3 5 -17 8 -31 5 -14 -3 -32 0 -40 7 -8 6 -20 9 -29 6 -8 -4 -17 -2
-20 4 -4 5 -11 7 -16 4 -5 -4 -9 1 -9 9 0 17 -69 56 -103 59 -12 1 -33 10 -47
19 -24 16 -92 42 -177 68 -44 14 -73 4 -73 -25 0 -6 -9 -20 -21 -31 -17 -15
-23 -16 -40 -6 -24 15 -25 2 0 -29 10 -13 21 -34 25 -46 6 -18 28 -29 109 -54
237 -74 280 -106 369 -274 50 -93 59 -131 52 -213 -7 -76 7 -174 32 -224 8
-14 28 -36 44 -48 28 -20 39 -21 96 -15 60 6 68 5 90 -16 13 -12 24 -34 24
-47 0 -14 8 -34 17 -44 14 -16 15 -22 4 -40 -10 -16 -10 -23 3 -37 19 -21 21
-41 3 -41 -18 0 -36 33 -43 82 -4 24 -15 55 -25 69 -17 24 -22 25 -103 24 -66
-1 -89 -5 -104 -18 -18 -16 -20 -16 -26 -2 -3 9 -6 27 -6 40 0 13 -5 27 -10
30 -6 4 -7 11 -4 17 5 7 -2 9 -20 4 -29 -7 -31 -4 -15 26 8 14 7 28 -1 49 -21
50 -36 34 -65 -74 -12 -42 -11 -57 8 -132 19 -76 20 -92 9 -156 -14 -78 -36
-129 -56 -129 -11 0 -13 26 -13 128 1 108 -2 136 -21 186 -29 77 -28 95 8 163
17 31 30 68 30 82 0 15 12 44 26 65 36 52 31 127 -14 217 -60 123 -115 166
-237 187 -77 14 -189 54 -226 81 -16 12 -29 17 -29 12 0 -5 5 -13 10 -16 30
-18 -5 -74 -37 -60 -10 5 -22 7 -27 6 -21 -5 -37 24 -34 63 l3 41 -34 -3 c-47
-5 -81 -29 -81 -58 0 -31 -7 -30 -43 7 -26 27 -29 37 -24 73 3 22 2 57 -2 76
-6 31 -10 35 -36 32 -17 -2 -33 -9 -37 -15 -5 -9 -10 -9 -20 1 -9 9 -16 8 -34
-9 -20 -19 -23 -19 -38 -3 -9 9 -18 15 -20 13 -6 -7 -54 -134 -72 -189 -10
-30 -21 -57 -25 -60 -5 -3 -16 -24 -25 -45 -9 -22 -43 -80 -75 -128 -62 -93
-69 -111 -44 -121 8 -3 15 -17 15 -31 0 -14 3 -25 8 -25 4 -1 26 -18 49 -39
40 -36 42 -41 48 -109 7 -76 0 -88 -34 -58 -25 23 -41 5 -51 -57 -5 -32 -12
-62 -15 -67 -7 -11 -39 -13 -71 -4 -21 6 -21 6 -4 42 38 77 70 151 70 161 0 6
-6 11 -14 11 -8 0 -31 19 -52 43 -22 23 -36 38 -31 33 12 -16 8 -26 -10 -26
-28 0 -73 -64 -79 -114 -10 -72 2 -115 34 -122 54 -12 59 -15 32 -28 -33 -15
-74 -63 -80 -95 -3 -14 -2 -44 3 -66 7 -33 5 -41 -12 -55 -18 -14 -19 -17 -5
-55 32 -84 33 -79 -27 -72 -133 17 -154 21 -161 31 -6 7 -10 8 -15 1 -22 -30
-111 -45 -143 -25 -13 8 -13 14 -1 42 7 18 16 44 19 58 6 29 51 101 69 113 7
4 13 13 13 18 0 6 9 24 21 40 15 21 19 37 14 59 -5 23 -3 30 9 30 13 0 12 4
-5 21 -12 12 -17 24 -12 28 20 12 25 53 13 101 -10 42 -9 58 4 97 10 28 16 80
16 132 0 134 8 152 119 262 104 104 121 123 121 138 0 15 -23 19 -44 9 -10 -6
-41 -8 -68 -6 -54 6 -116 -12 -213 -59 -129 -63 -261 -184 -335 -308 -37 -62
-107 -132 -169 -169 -31 -19 -67 -46 -80 -60 -14 -14 -34 -26 -46 -26 -26 0
-65 -27 -65 -44 0 -9 -9 -12 -25 -8 -14 2 -56 -5 -93 -16 -81 -25 -147 -39
-226 -47 -62 -6 -88 -16 -122 -47 -12 -11 -48 -30 -80 -43 -76 -31 -141 -88
-184 -161 -33 -57 -95 -122 -106 -112 -5 6 9 41 62 153 38 80 100 135 209 185
35 16 66 34 70 40 3 6 32 23 63 39 43 22 82 31 161 40 98 11 151 28 201 67 8
6 36 15 61 18 43 6 129 58 129 77 0 4 -14 11 -32 14 -29 7 -36 4 -65 -30 -28
-32 -39 -38 -83 -41 -69 -6 -90 7 -90 53 l0 36 23 -21 c39 -37 100 -26 140 24
23 30 78 40 129 23 40 -13 41 -13 70 22 16 18 45 59 65 89 133 203 202 269
372 360 57 30 96 56 87 58 -9 2 -16 8 -16 13 0 5 -15 0 -32 -11 -34 -21 -93
-27 -103 -11 -10 17 -65 -9 -71 -34 l-6 -23 -35 24 c-20 13 -42 24 -49 24 -7
0 -16 9 -19 20 -3 11 -13 20 -21 20 -19 0 -18 26 2 34 23 9 54 7 54 -3 0 -12
51 -30 80 -28 18 2 25 8 23 22 -2 29 14 34 58 18 34 -11 44 -11 68 1 16 9 36
31 45 49 9 19 22 37 31 40 8 4 23 24 34 45 14 27 29 42 48 46 57 14 113 42
119 59 3 10 -3 30 -13 45 -10 15 -22 35 -28 46 -24 45 -156 67 -191 31 -24
-24 -89 -12 -89 16 0 14 -118 51 -201 64 -24 3 -47 12 -51 20 -5 8 -34 21 -65
29 -31 8 -69 21 -84 29 -19 10 -38 12 -58 7 -17 -5 -43 -11 -58 -14 -22 -5
-28 -12 -28 -34 0 -15 -4 -32 -9 -37 -6 -6 -11 -21 -13 -35 -2 -14 -14 -47
-26 -74 -12 -27 -22 -56 -22 -66 0 -11 -12 -21 -32 -26 -20 -6 -34 -17 -37
-29 -2 -11 -9 -24 -17 -28 -8 -4 -14 -11 -14 -15 0 -9 56 -9 66 1 4 4 15 7 25
7 16 0 17 4 9 26 -13 33 -13 34 5 34 8 0 15 -5 15 -11 0 -7 12 -9 35 -5 43 8
45 -5 8 -43 -32 -31 -124 -66 -201 -76 -41 -6 -52 -10 -48 -22 4 -9 1 -13 -6
-10 -7 2 -12 10 -11 16 4 16 -33 13 -47 -4 -14 -16 -52 -35 -112 -56 -46 -16
-149 1 -202 32 -30 17 -40 19 -74 9 -33 -8 -61 -34 -50 -46 2 -1 30 -6 63 -11
52 -7 60 -11 63 -31 7 -45 -3 -52 -44 -32 -20 11 -41 17 -46 14 -5 -3 -7 0 -6
8 2 10 -15 14 -67 16 -50 2 -73 7 -82 19 -9 12 -22 14 -52 9 -37 -6 -42 -4
-56 23 -18 35 -19 83 -2 131 11 30 10 42 -6 85 -17 43 -18 56 -7 97 7 30 9 75
5 120 -6 71 7 145 23 123 4 -6 21 -17 37 -25 17 -8 41 -21 54 -29 37 -23 50
-22 68 9 15 26 18 27 30 12 13 -16 15 -15 29 6 9 12 23 22 30 22 8 0 24 11 36
25 18 21 30 25 80 25 49 0 58 3 58 18 0 40 53 59 63 22 3 -10 0 -21 -7 -24 -6
-2 2 -5 17 -5 16 -1 35 6 44 15 9 9 22 12 32 8 9 -4 55 -9 103 -12 87 -4 89
-3 140 31 93 61 117 70 169 64 38 -5 47 -3 43 8 -12 30 -55 47 -104 41 -54 -7
-79 9 -62 40 7 13 25 17 78 18 38 1 75 5 81 9 12 8 29 -6 78 -64 45 -53 51
-55 110 -23 30 15 55 33 55 40 0 18 26 35 43 28 13 -5 21 -21 26 -51 1 -4 -10
-8 -25 -10 -28 -4 -67 -43 -85 -86 -13 -30 -5 -46 23 -51 8 -1 23 -10 34 -20
16 -17 28 -18 114 -11 52 4 142 9 199 11 69 2 107 7 112 15 6 10 11 10 22 1
12 -10 16 -9 20 7 6 24 -20 78 -42 86 -9 3 -32 26 -51 51 -19 24 -39 50 -45
57 -24 29 -54 107 -69 177 -47 213 -92 379 -114 415 -43 71 -72 95 -113 95
-49 0 -87 15 -122 48 -27 26 -28 28 -26 137 2 61 -1 116 -5 123 -4 7 5 17 22
26 16 8 32 22 35 31 7 16 37 21 37 6 0 -5 -7 -26 -16 -47 -29 -70 2 -224 45
-224 29 0 34 16 15 49 -11 19 -14 35 -9 47 9 22 12 29 14 47 3 16 30 -82 31
-110 0 -12 13 -32 31 -45 72 -54 122 -105 140 -140 25 -48 56 -134 64 -178 9
-46 69 -225 90 -270 32 -69 81 -140 96 -140 5 0 19 -8 30 -19 11 -10 33 -21
48 -24 19 -4 31 -14 35 -30 7 -30 52 -75 91 -94 37 -17 68 -35 76 -46 8 -11
105 -21 126 -12 10 4 23 9 30 11 7 1 37 14 67 28 42 20 72 46 129 114 84 99
103 135 112 219 12 108 92 460 106 469 5 3 9 13 9 23 0 10 9 30 20 44 11 14
20 32 20 41 0 25 -22 66 -37 66 -7 0 -13 5 -13 10 0 6 -12 21 -26 34 -20 17
-28 34 -31 73 -6 53 11 81 29 49 5 -9 13 -16 18 -16 16 0 11 52 -10 95 -24 52
-20 54 118 62 105 6 110 5 116 -15 4 -12 4 -37 0 -57 -5 -26 -3 -35 7 -35 11
0 11 -2 -1 -10 -9 -6 -10 -10 -3 -10 6 0 14 4 17 9 4 5 25 8 49 6 60 -4 59
-25 -7 -91 -31 -30 -59 -67 -63 -82 -11 -42 -9 -169 5 -263 10 -70 10 -110 -2
-225 -8 -76 -17 -147 -21 -156 -14 -35 6 -17 59 55 81 108 161 182 236 216 56
25 82 30 185 36 96 5 126 10 155 27 46 27 90 69 90 84 0 6 6 17 14 23 12 10
31 96 29 130 -2 24 46 199 63 233 42 81 132 136 227 137 40 1 47 -2 47 -18z"/>
<path d="M9799 5793 c-14 -2 -41 -19 -59 -38 -20 -21 -38 -31 -48 -28 -10 4
-13 2 -8 -5 5 -8 0 -12 -12 -12 -35 0 -86 -28 -117 -62 -27 -30 -29 -39 -23
-74 4 -21 7 -58 7 -82 1 -37 -2 -44 -26 -53 -25 -9 -26 -12 -11 -20 25 -14 58
6 58 35 0 22 23 42 44 37 18 -4 47 11 43 23 -3 6 4 12 14 12 11 0 19 -3 19 -7
0 -3 16 -9 36 -12 40 -7 71 5 92 35 7 10 20 18 28 18 8 0 14 6 14 14 0 8 8 17
18 21 16 6 16 7 -1 20 -19 14 -19 20 -1 119 6 36 6 38 -14 32 -11 -4 -23 -2
-27 4 -3 6 3 10 15 10 12 0 18 5 15 10 -6 10 -9 10 -56 3z"/>
<path d="M13055 5396 c11 -8 25 -12 31 -9 18 7 54 -15 54 -32 0 -21 -41 -28
-89 -15 -47 12 -93 -2 -72 -23 6 -6 11 -19 11 -29 0 -32 89 -124 128 -135 35
-8 128 10 124 25 -1 7 3 22 9 34 11 21 12 21 25 -8 13 -28 13 -28 11 -4 -1 15
-11 29 -24 35 -13 5 -22 14 -21 20 6 39 -58 120 -103 130 -16 4 -29 11 -29 16
0 5 -17 9 -37 9 -34 0 -35 -1 -18 -14z"/>
<path d="M11146 5027 c-3 -12 -20 -31 -38 -41 -18 -11 -60 -47 -92 -80 -45
-47 -59 -68 -61 -94 -1 -18 3 -36 8 -39 6 -4 8 0 4 11 -4 10 1 24 13 36 13 13
15 20 7 24 -7 2 -4 5 6 5 10 1 20 -6 24 -14 5 -14 8 -14 29 0 13 8 24 13 24
10 0 -11 56 24 84 51 55 56 84 147 41 130 -8 -3 -21 1 -29 9 -12 13 -15 11
-20 -8z"/>
<path d="M3105 7200 c3 -5 15 -10 26 -10 10 0 19 -5 19 -10 0 -14 81 -89 103
-96 9 -3 17 -10 17 -15 0 -5 11 -9 25 -9 14 0 25 -3 25 -7 0 -5 11 -13 25 -20
25 -11 25 -11 24 40 0 29 -3 46 -6 39 -4 -10 -13 -5 -32 16 -35 38 -62 52
-100 52 -16 0 -36 7 -45 15 -16 17 -91 21 -81 5z"/>
<path d="M688 6217 l-43 -33 1 -68 c1 -83 9 -93 66 -77 58 17 81 54 64 105 -7
20 -15 39 -19 42 -4 4 -7 20 -7 36 0 36 -9 35 -62 -5z"/>
<path d="M295 6210 c-4 -6 -9 -77 -12 -158 -5 -136 -4 -151 15 -196 15 -34 26
-47 37 -43 12 5 13 -6 8 -74 -6 -74 -4 -81 18 -105 13 -14 40 -34 60 -45 20
-10 50 -31 65 -46 16 -15 44 -39 63 -53 18 -14 45 -35 60 -47 21 -19 61 -32
61 -20 0 26 -37 163 -61 227 -21 59 -34 116 -41 185 -13 127 -20 146 -70 176
-22 13 -48 31 -57 40 -42 41 -85 96 -90 118 -8 29 -46 57 -56 41z"/>
<path d="M18503 6193 c-13 -2 -23 -8 -23 -13 0 -5 -16 -12 -35 -16 -29 -5 -37
-12 -42 -35 -3 -16 -12 -29 -19 -29 -8 0 -14 -7 -14 -15 0 -8 -7 -15 -15 -15
-9 0 -18 -7 -21 -15 -4 -8 -11 -15 -17 -15 -5 0 -24 -15 -40 -32 -19 -21 -31
-28 -34 -20 -5 13 -34 17 -32 5 3 -16 -14 -93 -20 -93 -12 0 -11 -54 1 -61 6
-4 11 -27 10 -51 -2 -32 3 -50 19 -66 13 -15 18 -29 14 -43 -8 -25 6 -42 58
-69 36 -19 144 -63 157 -65 3 0 11 -4 18 -8 7 -5 12 -4 12 2 0 6 8 11 19 11
10 0 24 7 31 15 21 25 101 19 141 -10 19 -13 51 -33 72 -45 20 -11 37 -25 37
-31 0 -20 60 -36 103 -28 23 5 45 8 50 9 4 0 7 7 7 16 0 16 47 16 190 1 33 -3
37 -3 15 3 -28 7 -27 7 13 9 l42 1 0 280 0 280 -92 -4 c-67 -4 -100 -1 -118 9
-14 7 -24 16 -22 19 6 16 -1 26 -28 39 -27 14 -49 14 -122 2 -19 -3 -27 0 -25
8 2 12 -3 13 -33 4 -8 -2 -12 -2 -7 0 4 3 7 9 7 14 0 6 -18 8 -45 3 -36 -5
-45 -3 -45 9 0 8 -7 17 -15 21 -8 3 -15 1 -15 -4 0 -6 -11 -10 -25 -10 -14 0
-25 4 -25 9 0 7 -60 35 -64 30 -1 -1 -11 -4 -23 -6z"/>
<path d="M7092 6154 c-15 -11 -22 -25 -22 -50 0 -20 -8 -42 -19 -53 -18 -18
-19 -31 -15 -162 6 -163 10 -176 42 -154 29 21 40 66 52 225 17 222 15 231
-38 194z"/>
<path d="M0 5345 l0 -295 38 0 c20 0 69 -9 107 -20 82 -24 131 -25 171 -6 16
8 45 21 64 30 20 9 54 35 75 57 48 49 72 71 104 96 20 16 22 23 12 40 -6 12
-8 28 -5 36 8 23 -82 110 -151 145 -33 16 -94 46 -135 65 -44 21 -96 56 -126
85 -48 46 -83 62 -135 62 -18 0 -19 -13 -19 -295z"/>
<path d="M15646 5350 c-46 -12 -61 -22 -68 -40 -22 -61 32 -103 97 -76 31 13
33 17 37 71 1 31 1 58 -2 59 -3 1 -32 -5 -64 -14z"/>
<path d="M2210 5343 c-54 -5 -108 -24 -114 -40 -3 -8 -10 -12 -16 -8 -5 3 -15
-3 -22 -15 -7 -11 -18 -20 -24 -20 -7 0 -15 -7 -18 -16 -3 -8 -11 -12 -16 -9
-6 4 -21 -4 -34 -17 -25 -25 -43 -88 -25 -88 6 0 8 -4 5 -9 -4 -5 8 -13 26
-16 18 -4 44 -16 58 -27 34 -25 100 -40 116 -27 8 7 14 6 17 -3 4 -10 6 -10 6
1 1 15 58 83 66 79 3 -2 14 12 26 31 11 19 27 41 35 49 9 8 22 25 31 38 14 22
14 26 -1 49 -9 14 -23 25 -30 25 -7 0 -19 7 -26 15 -7 8 -15 14 -19 13 -3 0
-22 -3 -41 -5z"/>
<path d="M7715 5201 c-71 -44 -82 -91 -29 -126 22 -14 30 -15 57 -4 18 7 38
19 46 27 11 11 29 13 68 8 29 -3 53 -3 53 0 0 4 -26 31 -57 60 -62 60 -88 66
-138 35z"/>
<path d="M13 4973 c-10 -3 -13 -38 -13 -125 l0 -120 33 7 c41 9 67 32 67 60 0
26 29 59 83 95 20 14 36 29 34 34 -3 10 -145 56 -172 55 -11 0 -26 -3 -32 -6z"/>
</g>
</svg>
