<?xml version="1.0" standalone="no"?>
<!DOCTYPE svg PUBLIC "-//W3C//DTD SVG 20010904//EN"
 "http://www.w3.org/TR/2001/REC-SVG-20010904/DTD/svg10.dtd">
<svg version="1.0" xmlns="http://www.w3.org/2000/svg"
 width="1920.000000pt" height="1080.000000pt" viewBox="0 0 1920.000000 1080.000000"
 preserveAspectRatio="xMidYMid meet">
<metadata>
Created by potrace 1.16, written by Peter Selinger 2001-2019
</metadata>
<g transform="translate(0.000000,1080.000000) scale(0.100000,-0.100000)"
fill="#000000" stroke="none">
<path d="M0 5400 l0 -5400 3640 0 c3128 0 3640 2 3640 14 0 41 -32 171 -45
186 -34 38 -53 90 -48 130 8 56 -14 160 -40 187 -21 24 -80 32 -92 13 -3 -5
-22 -10 -42 -10 -20 0 -65 -5 -101 -11 -42 -8 -67 -8 -74 -1 -11 11 36 27 52
17 5 -3 26 2 47 11 21 9 67 27 103 40 55 19 65 26 65 46 -1 40 -37 131 -67
170 l-29 37 -79 -6 c-79 -6 -79 -6 -90 21 -5 15 -10 38 -10 52 0 13 -4 24 -8
24 -14 0 -32 -23 -32 -41 0 -10 -22 -44 -48 -76 -26 -32 -57 -72 -69 -88 -12
-17 -47 -48 -80 -70 -61 -42 -148 -109 -248 -194 -33 -28 -66 -51 -72 -51 -7
0 -13 -5 -13 -10 0 -6 -8 -14 -17 -17 -22 -9 -45 -31 -114 -112 -67 -80 -282
-241 -320 -241 -6 0 -7 9 -4 20 7 21 -9 28 -20 9 -4 -6 -14 -8 -22 -5 -11 4
-13 2 -9 -9 4 -11 -1 -15 -18 -15 -14 0 -31 -3 -40 -6 -35 -13 -14 22 24 40
22 11 40 24 40 30 0 6 41 38 91 71 113 73 174 124 337 282 30 29 61 53 70 55
27 5 26 28 -2 28 -14 0 -26 5 -26 10 0 15 46 60 62 61 79 4 130 32 219 123 41
40 82 83 91 95 10 11 55 45 100 75 46 30 99 71 117 90 19 20 40 36 47 36 7 0
27 19 45 41 19 23 61 69 93 103 33 33 69 75 81 91 11 17 33 44 47 60 15 17 36
41 47 55 l20 25 -6 -51 c-6 -57 2 -69 40 -55 37 14 144 186 129 207 -17 22
-68 42 -85 33 -13 -8 -16 -6 -11 8 9 27 55 116 69 133 7 8 32 62 56 120 23 58
48 112 54 120 7 8 15 23 18 32 4 10 11 18 16 18 5 0 17 33 26 72 9 40 27 90
41 110 13 21 24 41 24 45 0 4 8 16 19 27 10 12 31 46 47 76 16 30 32 57 37 58
4 2 7 9 7 16 0 24 48 112 89 161 23 28 44 65 47 85 3 19 12 53 19 75 7 22 16
72 20 110 4 39 11 78 17 88 14 27 1 33 -24 11 -12 -10 -18 -13 -13 -5 5 10 3
12 -11 7 -11 -3 -39 -10 -64 -15 -30 -7 -53 -20 -70 -39 -14 -17 -42 -50 -62
-74 -69 -79 -109 -140 -104 -154 9 -23 26 -16 26 10 0 23 23 56 38 56 4 0 20
11 35 25 l27 26 0 -29 c0 -18 -14 -47 -36 -76 -34 -45 -37 -66 -9 -66 17 0 55
-47 55 -69 0 -9 -9 -22 -21 -29 -14 -9 -19 -21 -17 -39 2 -16 -3 -30 -14 -36
-25 -17 -48 8 -48 53 0 54 -7 66 -56 100 -82 55 -83 55 -254 1 -72 -23 -88
-25 -109 -12 -12 8 -12 13 3 35 15 24 15 27 0 33 -9 3 -32 -4 -52 -16 -21 -12
-45 -25 -54 -28 -23 -7 -23 -21 0 -46 16 -19 16 -20 -2 -31 -10 -6 -57 -40
-105 -76 -47 -37 -102 -76 -121 -87 -19 -12 -62 -50 -95 -84 -33 -34 -78 -78
-100 -98 -82 -74 -102 -100 -119 -153 -3 -9 -24 -27 -46 -38 -23 -12 -70 -49
-105 -83 -96 -93 -122 -115 -173 -147 -26 -16 -55 -42 -65 -59 -9 -16 -34 -43
-55 -60 -45 -35 -232 -131 -256 -131 -21 0 -156 -61 -156 -70 0 -13 -124 -63
-174 -71 -27 -5 -56 -15 -65 -23 -10 -9 -33 -19 -52 -22 -53 -10 -147 -45
-160 -60 -6 -7 -26 -16 -45 -20 -19 -3 -34 -10 -34 -14 0 -18 -33 -40 -50 -35
-22 7 -87 -24 -114 -54 -11 -12 -25 -21 -31 -21 -15 0 -45 -43 -45 -65 0 -17
16 -20 25 -5 3 6 13 10 20 10 20 0 10 -24 -34 -85 -62 -85 -80 -112 -107 -162
-33 -61 -32 -59 -75 -67 l-36 -6 7 38 c4 22 18 54 33 73 14 19 29 48 33 64 3
17 14 39 24 50 9 11 38 53 64 93 l47 73 -27 28 c-21 23 -35 28 -78 30 -58 2
-94 7 -127 20 -34 12 84 23 139 12 24 -5 51 -7 60 -5 10 1 34 6 55 9 28 4 37
11 37 25 0 11 5 20 10 20 6 0 10 5 10 10 0 15 -53 12 -96 -6 -27 -12 -73 -17
-149 -19 -117 -2 -185 -12 -185 -26 0 -5 14 -9 31 -9 38 0 30 -15 -12 -24 -38
-7 -54 1 -39 19 17 21 -7 29 -77 27 -35 -2 -63 2 -63 7 0 5 57 12 128 15 139
7 323 29 417 51 146 34 221 58 241 76 11 10 27 19 35 19 15 0 78 21 94 32 6 3
27 9 48 13 20 4 39 11 42 15 3 5 24 11 48 15 114 20 233 58 339 109 65 31 122
56 128 56 12 0 104 63 135 93 11 10 54 47 95 81 96 78 289 272 360 361 91 114
161 185 238 241 39 30 72 58 72 63 0 34 288 187 435 232 39 11 81 31 95 43 14
13 39 28 55 35 17 6 69 54 117 105 89 96 132 124 223 147 36 9 52 9 66 1 27
-17 30 -15 23 13 -8 33 17 62 60 71 17 3 40 13 51 22 29 25 61 90 69 140 3 24
10 51 15 60 5 9 12 25 15 35 3 9 16 22 28 27 13 5 17 9 9 9 -11 1 -12 16 -6
74 5 60 4 76 -9 86 -9 8 -16 20 -16 27 0 8 -5 14 -11 14 -16 0 -6 62 11 73 24
14 128 -10 132 -31 3 -14 11 -10 39 18 44 45 100 114 136 167 33 49 89 94 108
87 25 -10 33 28 22 104 -8 55 -8 78 1 93 7 10 12 25 12 33 0 8 4 16 8 18 20 8
53 69 47 88 -9 27 3 60 21 60 8 0 14 -10 14 -22 0 -21 1 -21 15 5 18 34 81
141 111 187 30 46 74 146 74 168 0 10 8 35 18 56 24 48 24 155 1 179 -18 17
-30 100 -30 204 0 35 -5 65 -10 68 -5 4 -9 15 -9 25 0 11 -16 35 -35 54 -19
20 -35 40 -35 46 0 5 -3 9 -7 9 -27 -4 -35 1 -23 16 13 15 1 20 -65 29 -105
15 -125 21 -219 69 -11 5 -48 10 -82 12 -35 1 -69 7 -77 13 -10 9 -16 9 -25 0
-9 -9 -12 -8 -12 6 0 9 4 15 9 12 11 -7 33 18 24 27 -3 4 5 7 18 7 20 0 21 -2
9 -11 -12 -9 -12 -10 3 -5 10 3 21 6 23 6 3 0 2 4 -1 10 -3 6 -1 10 4 10 6 0
11 -4 11 -10 0 -18 29 -11 40 10 9 18 65 39 111 43 11 1 19 4 19 8 0 9 -35 39
-47 39 -6 0 -21 9 -35 19 -14 11 -47 25 -74 32 -108 25 -259 81 -285 105 -10
9 -29 17 -43 17 -15 0 -26 6 -29 18 -3 13 -11 17 -21 13 -9 -3 -16 -1 -16 5 0
6 -6 11 -13 11 -7 0 -19 9 -27 20 -18 26 -113 80 -138 80 -11 0 -38 14 -61 30
-39 29 -47 31 -114 28 l-72 -3 57 -28 c31 -16 62 -35 69 -43 6 -8 19 -14 28
-14 19 0 56 -96 40 -105 -14 -9 -63 22 -83 53 -10 16 -38 41 -62 56 -42 26
-44 27 -70 10 -24 -16 -27 -16 -35 -1 -19 33 -41 47 -75 47 -19 0 -52 10 -74
22 -33 20 -41 21 -63 9 -35 -19 -67 -6 -74 31 -4 21 -14 33 -33 40 -16 5 -38
22 -50 38 -32 41 -106 64 -177 55 -39 -5 -52 -10 -42 -16 8 -5 9 -9 3 -9 -6 0
-17 -11 -24 -25 -11 -21 -20 -24 -54 -23 -23 1 -49 6 -58 12 -14 8 -21 6 -32
-9 -9 -12 -11 -22 -4 -26 11 -7 -50 -19 -96 -19 -44 0 -167 43 -302 106 -28
13 -56 24 -62 24 -6 0 -16 9 -22 20 -6 11 -23 23 -38 26 -22 6 -112 62 -132
84 -3 3 -16 5 -30 5 -30 0 -82 23 -93 41 -7 13 -66 33 -111 38 -41 5 -141 40
-165 58 -15 12 -41 18 -73 18 -27 0 -57 4 -67 9 -9 5 -64 15 -121 21 -58 6
-121 16 -140 20 -19 5 -48 12 -65 16 -16 3 -24 9 -18 11 18 6 16 23 -2 23 -8
0 -15 5 -15 10 0 6 -9 10 -20 10 -11 0 -23 6 -26 14 -17 44 -193 53 -243 12
-12 -9 -13 -6 -6 19 4 17 8 35 8 42 0 7 19 19 41 28 48 19 78 44 70 57 -3 5
-14 6 -24 3 -17 -5 -60 24 -60 41 0 14 -61 64 -79 64 -11 0 -26 8 -33 18 -30
41 -131 63 -159 35 -6 -6 -33 -6 -72 -1 -50 7 -67 14 -90 38 -25 27 -38 34
-58 32 -4 -1 -15 8 -24 18 -10 11 -15 20 -11 20 3 0 -7 14 -22 30 -33 34 -72
39 -118 15 -16 -8 -46 -15 -66 -15 -32 0 -39 -4 -44 -26 -4 -15 0 -40 11 -65
18 -38 18 -41 0 -77 -15 -33 -18 -35 -25 -17 -4 11 -11 45 -15 75 -4 30 -18
79 -32 109 -25 55 -25 81 1 81 16 0 26 21 26 56 0 29 -42 71 -130 130 -36 24
-85 64 -110 89 -53 54 -93 74 -158 81 -74 8 -75 7 -64 -151 12 -179 1 -218
-88 -299 -24 -23 -53 -50 -63 -61 -21 -22 -104 -170 -143 -255 -31 -67 -95
-174 -106 -178 -5 -2 -30 -47 -56 -100 -27 -54 -56 -110 -66 -125 -23 -34 -77
-236 -70 -259 5 -18 -59 -121 -70 -111 -3 4 -6 -6 -6 -22 0 -15 -9 -46 -19
-69 -10 -23 -31 -75 -46 -116 -32 -87 -65 -160 -81 -177 -17 -17 -69 -131 -87
-188 -23 -73 -38 -128 -41 -148 -1 -9 -8 -23 -14 -29 -7 -7 -12 -18 -12 -24 0
-7 -12 -19 -27 -26 -15 -7 -31 -26 -36 -43 -5 -16 -18 -39 -27 -50 -24 -27
-35 -103 -30 -211 0 -12 -9 -43 -21 -70 -11 -27 -21 -66 -21 -86 1 -26 -9 -53
-31 -86 -33 -48 -69 -130 -73 -167 -1 -11 -5 -60 -8 -110 -5 -71 -11 -94 -26
-110 -32 -32 -40 -10 -29 85 5 47 11 91 14 97 2 7 -2 18 -9 25 -11 11 -11 14
0 23 10 7 11 14 3 25 -8 11 -12 12 -16 3 -8 -21 -20 -15 -36 19 -17 35 -10 47
28 48 33 0 103 124 90 158 -3 8 2 23 10 32 9 10 19 48 24 91 4 40 13 75 19 77
8 2 6 11 -5 28 -15 23 -14 29 9 92 14 37 33 92 43 122 9 30 23 69 31 87 8 17
14 42 14 56 0 13 6 30 14 36 8 7 34 51 58 98 24 47 49 97 57 112 7 14 36 52
64 84 l50 59 5 94 c4 83 9 101 36 147 36 60 46 81 76 157 11 30 25 64 29 75 5
11 24 67 42 124 19 57 42 117 51 132 19 31 38 38 38 15 0 -24 20 -29 41 -10
29 26 21 60 -13 56 -22 -3 -26 0 -21 17 3 11 15 31 28 45 12 13 25 36 29 51 4
15 26 48 50 73 24 26 48 57 55 69 6 12 21 23 32 25 24 3 48 33 36 44 -4 4 -15
0 -26 -10 -18 -16 -18 -15 -15 24 2 23 12 53 22 68 10 15 28 47 39 72 12 25
33 60 47 79 14 19 26 42 26 51 0 8 8 31 18 50 21 40 46 170 40 215 -2 22 -9
31 -25 33 -29 4 -66 -15 -216 -115 -102 -69 -137 -98 -172 -147 -25 -34 -51
-68 -59 -76 -16 -17 -63 -104 -89 -165 -9 -22 -21 -47 -26 -55 -5 -8 -17 -53
-27 -100 -9 -47 -21 -90 -27 -97 -16 -22 -77 -154 -77 -169 0 -8 -4 -14 -10
-14 -5 0 -10 -6 -10 -14 0 -8 -16 -33 -36 -57 -19 -23 -42 -56 -51 -73 -8 -17
-31 -47 -50 -68 -35 -36 -46 -52 -79 -118 -10 -19 -24 -39 -30 -45 -31 -26
-115 -152 -124 -186 -25 -99 -28 -117 -24 -169 2 -30 6 -68 9 -84 3 -16 0 -35
-7 -43 -7 -8 -13 -29 -13 -46 -4 -79 -6 -87 -19 -87 -8 0 -17 11 -20 25 -4 14
-10 25 -14 25 -10 0 -31 -80 -25 -96 7 -19 34 -26 49 -13 32 26 23 -69 -10
-110 -6 -8 -15 -28 -21 -44 -16 -49 -34 -45 -28 5 l5 43 -21 -25 c-12 -14 -24
-37 -28 -53 -5 -15 -12 -26 -18 -25 -5 2 -8 8 -6 13 2 6 6 33 9 60 2 28 8 55
13 61 18 22 36 130 29 179 -3 28 -2 63 3 78 6 18 5 49 -2 85 -16 81 -7 176 24
250 30 74 44 99 68 124 9 10 17 22 17 26 0 5 11 14 25 20 14 6 25 16 25 22 0
5 8 18 17 28 33 35 54 63 66 89 6 13 23 31 37 38 25 13 26 13 22 -19 -3 -24 1
-35 12 -39 10 -4 16 -1 16 8 0 8 13 30 30 48 16 19 30 46 30 59 0 22 -4 24
-31 20 l-30 -4 22 38 c48 87 73 100 64 35 -2 -17 -1 -31 2 -31 9 0 32 34 33
48 0 7 9 22 20 34 11 12 20 30 20 40 0 16 -3 17 -21 7 -35 -19 -44 3 -22 53
26 56 63 185 63 220 0 15 4 29 9 32 5 3 18 25 30 48 22 44 42 79 51 88 12 12
50 90 50 102 0 25 79 136 116 165 20 15 42 39 48 53 49 107 157 227 229 253 9
3 17 11 17 17 0 5 11 10 24 10 16 0 27 7 31 21 4 11 5 22 3 23 -8 6 -77 36
-83 36 -3 0 -52 20 -108 44 -56 24 -129 49 -162 56 -33 6 -73 15 -90 20 -16 5
-57 14 -90 21 -33 7 -71 19 -85 26 -50 26 -140 11 -140 -23 0 -8 -13 -23 -30
-32 -23 -13 -30 -24 -30 -47 0 -20 -12 -43 -35 -69 -19 -22 -35 -45 -35 -51 0
-6 -12 -17 -27 -25 -71 -33 -95 -48 -140 -91 -26 -25 -68 -56 -93 -70 -25 -13
-51 -30 -58 -36 -7 -7 -32 -17 -55 -23 -23 -6 -62 -17 -87 -25 -25 -8 -61 -16
-80 -19 -19 -2 -52 -10 -74 -16 -29 -9 -45 -9 -67 1 -33 13 -32 20 3 24 25 3
167 54 183 65 6 4 26 11 45 15 44 9 168 70 196 96 11 10 25 19 30 19 12 0 44
37 44 50 0 5 33 43 74 83 41 41 86 97 101 125 30 58 39 67 79 76 34 8 24 24
-20 29 -16 2 -45 11 -64 20 -125 57 -318 84 -378 53 -20 -10 -53 -16 -94 -15
-35 1 -54 4 -43 6 34 9 47 25 43 55 -7 44 22 55 73 29 65 -34 108 -24 66 15
-23 21 -90 64 -101 64 -3 0 -6 -11 -6 -24 0 -37 -14 -39 -44 -6 -17 20 -39 32
-66 36 -38 6 -40 8 -40 44 0 33 -7 44 -50 82 -28 25 -63 51 -78 59 -15 7 -44
28 -65 46 l-37 33 27 1 c16 1 38 0 51 -1 29 -2 28 5 -8 50 -16 21 -30 40 -30
43 0 17 125 -67 255 -171 49 -39 168 -123 192 -135 16 -9 36 -23 43 -32 7 -9
32 -27 55 -41 69 -40 265 -47 265 -9 0 8 -23 40 -50 70 -28 30 -50 58 -50 61
0 3 12 -7 28 -24 15 -16 37 -32 48 -36 11 -3 27 -17 34 -31 31 -57 177 -61
195 -5 4 12 13 19 20 17 7 -3 17 -1 23 5 8 8 52 15 109 17 6 1 9 10 6 21 -4
14 -14 20 -35 20 -19 0 -28 4 -25 13 2 6 10 11 18 10 45 -5 185 -38 189 -43 3
-4 16 -10 30 -13 14 -3 43 -11 65 -17 22 -6 74 -17 115 -24 72 -12 129 -35
163 -67 38 -33 49 -41 54 -35 10 10 -19 117 -60 216 -21 52 -40 103 -42 113
-2 9 -17 41 -33 70 -16 28 -60 113 -96 187 -67 136 -89 173 -158 265 -21 27
-38 55 -38 60 0 6 -10 21 -22 35 -62 68 -98 121 -98 141 0 22 1 22 31 -7 31
-29 31 -29 24 -4 -4 14 -24 41 -44 61 -34 35 -63 68 -164 189 -10 12 -34 45
-54 73 -41 59 -103 127 -115 127 -5 0 -2 -13 7 -30 9 -16 19 -30 23 -30 5 0
21 -18 38 -40 16 -23 37 -50 47 -62 9 -12 16 -26 14 -32 -2 -6 3 -16 12 -23 9
-6 13 -14 9 -18 -7 -7 -57 45 -108 112 -16 21 -42 52 -57 70 -24 27 -28 41
-29 95 0 35 -4 75 -9 91 -5 18 -4 27 4 27 6 0 11 -7 11 -16 0 -13 96 -143 121
-164 3 -3 28 -36 54 -75 26 -38 58 -81 71 -96 13 -14 24 -30 24 -37 0 -7 4
-12 9 -12 4 0 20 -17 33 -37 14 -21 38 -52 54 -69 48 -50 128 -147 147 -176 9
-15 32 -42 50 -60 67 -69 121 -139 152 -200 18 -35 56 -107 84 -160 28 -54 48
-98 45 -98 -6 0 17 -39 38 -65 4 -5 25 -44 46 -85 58 -116 107 -173 179 -210
69 -36 95 -34 117 9 8 15 30 46 49 69 44 52 84 157 92 242 9 87 22 128 58 172
26 33 31 50 44 160 8 68 18 151 22 185 5 42 13 67 25 76 10 7 19 31 22 55 3
23 11 57 19 76 8 20 15 62 15 95 0 33 5 63 11 66 6 4 8 27 4 61 -5 47 -3 54
12 54 14 0 15 2 4 9 -7 5 -11 13 -7 19 7 12 -16 22 -54 22 -32 0 -70 33 -70
62 0 24 36 41 75 34 36 -7 48 3 59 47 7 30 26 37 26 9 0 -45 60 -58 78 -17 7
14 12 35 12 46 0 28 48 74 85 82 17 3 24 4 18 1 -8 -4 -13 -27 -13 -64 0 -50
-4 -63 -25 -84 -14 -14 -25 -34 -25 -45 0 -11 -4 -23 -10 -26 -14 -9 -13 -45
1 -45 7 0 18 8 25 18 27 35 13 -6 -14 -44 -16 -22 -42 -71 -58 -109 -25 -59
-29 -84 -30 -165 -2 -148 -14 -252 -34 -285 -10 -16 -22 -48 -26 -70 -4 -22
-27 -85 -50 -140 -24 -55 -44 -106 -44 -113 0 -7 -4 -20 -9 -30 -5 -9 -23 -66
-39 -127 -33 -119 -77 -263 -113 -362 -27 -77 -19 -136 21 -158 32 -17 107
-42 190 -62 36 -9 96 -31 133 -49 37 -18 134 -54 215 -79 81 -25 192 -62 247
-81 145 -51 205 -66 238 -58 27 6 29 4 24 -15 -3 -11 -1 -21 4 -21 5 0 12 14
16 30 8 41 18 45 54 19 21 -15 28 -26 24 -38 -4 -9 -8 -41 -10 -72 l-3 -55 54
-28 c54 -28 63 -39 44 -51 -22 -14 -7 -22 45 -28 30 -3 62 -13 71 -21 8 -9 24
-16 34 -16 10 0 22 -5 25 -10 4 -6 12 -4 22 5 10 11 25 14 44 10 16 -4 29 -3
29 2 0 4 43 10 96 11 60 3 117 11 152 23 30 10 65 19 76 19 39 0 55 60 23 81
-5 4 -6 16 -2 28 5 17 14 21 51 21 63 0 88 -14 73 -42 -15 -29 6 -40 45 -24
17 7 47 16 67 20 21 3 50 17 65 29 24 18 43 23 119 25 113 4 233 -15 260 -40
11 -11 48 -42 83 -69 34 -28 62 -54 62 -59 0 -5 21 -22 48 -38 26 -16 76 -60
112 -97 36 -37 75 -78 88 -90 12 -12 22 -25 22 -29 0 -18 103 -144 132 -160
18 -11 39 -26 46 -33 7 -7 17 -13 21 -13 14 0 71 53 71 67 0 8 9 31 20 53 25
48 29 77 19 113 -4 15 -4 27 1 27 11 0 30 -65 30 -105 0 -30 -21 -70 -48 -91
-18 -13 -23 -104 -6 -104 7 0 14 -7 18 -15 12 -33 256 -128 256 -101 0 6 7 3
14 -6 7 -10 22 -18 34 -18 11 0 22 -4 24 -9 2 -5 35 -24 73 -44 84 -42 140
-85 172 -132 26 -39 43 -45 43 -16 0 18 3 19 33 9 34 -12 121 -61 147 -83 8
-7 41 -26 72 -43 64 -34 121 -73 126 -84 2 -5 21 -8 42 -8 28 0 43 -6 54 -21
21 -30 66 -56 114 -64 23 -4 42 -10 42 -14 0 -4 35 -18 78 -31 42 -13 109 -38
147 -55 39 -18 86 -35 105 -38 19 -3 29 -3 23 0 -7 2 -13 9 -13 15 0 13 56 68
69 68 24 0 33 -52 17 -92 -6 -12 0 -18 23 -23 45 -10 151 -2 163 12 6 7 23 13
38 13 22 0 29 5 33 29 3 15 4 39 1 52 -2 13 -2 18 2 12 8 -18 54 -17 54 1 0 8
7 17 16 20 8 3 12 11 9 16 -4 6 -3 9 2 8 4 -1 17 3 28 9 11 6 54 14 95 18 100
10 114 18 130 80 4 14 33 34 42 29 5 -3 8 -1 8 5 0 5 9 13 20 16 11 4 18 11
15 15 -6 10 10 82 25 115 14 30 39 145 32 145 -4 0 -1 4 6 8 17 12 23 202 6
202 -23 0 -44 -12 -44 -26 0 -18 -34 -36 -54 -28 -32 12 -17 61 17 55 4 -1 10
12 13 29 4 18 13 30 22 30 8 0 30 11 48 25 18 14 36 25 41 25 5 0 9 33 11 73
3 103 13 187 23 187 10 0 7 36 -4 46 -4 4 -7 15 -7 25 0 10 -7 25 -16 34 -24
24 -11 83 21 91 44 11 55 -13 48 -104 -4 -53 -2 -91 6 -109 6 -16 13 -74 14
-128 l2 -100 50 0 c53 0 53 1 43 -60 -4 -24 -24 -39 -40 -29 -6 4 -8 3 -4 -4
3 -6 2 -13 -4 -17 -14 -9 -12 -26 2 -24 17 3 68 -18 68 -28 1 -5 19 -28 42
-53 23 -25 38 -39 34 -32 -6 9 3 25 25 47 19 18 42 44 51 58 10 14 30 28 46
31 30 7 54 41 112 160 19 37 46 82 61 98 45 50 57 65 70 90 7 13 25 39 40 58
29 37 35 61 44 177 5 69 -7 129 -23 119 -5 -3 -19 1 -33 8 -13 7 -40 11 -60 8
-23 -2 -39 1 -47 11 -13 15 -7 47 8 47 17 0 65 -21 71 -32 5 -8 38 1 57 17 2
2 -4 20 -12 40 -9 21 -16 48 -16 62 0 13 -7 31 -15 39 -11 11 -15 37 -15 89 0
46 -6 83 -15 101 -11 20 -14 43 -9 75 4 34 1 56 -11 80 -11 21 -15 45 -12 71
4 32 2 38 -11 36 -10 -2 -23 -11 -30 -20 -9 -12 -27 -18 -56 -18 -39 0 -45 -3
-50 -25 -8 -30 -47 -51 -73 -40 -10 5 -38 15 -62 24 -24 9 -47 23 -51 31 -21
47 -30 56 -60 65 -19 6 -42 23 -54 42 -12 18 -24 33 -28 33 -4 0 -26 -22 -50
-50 -24 -27 -51 -50 -61 -50 -10 0 -52 -33 -93 -74 -61 -61 -74 -80 -74 -106
0 -17 -5 -41 -12 -53 -6 -12 -15 -44 -19 -72 -13 -93 -47 -188 -81 -225 -22
-25 -34 -50 -39 -85 -17 -108 -29 -135 -70 -156 -68 -34 -176 -108 -182 -123
-3 -8 -23 -24 -44 -35 -21 -10 -49 -28 -62 -40 -13 -12 -34 -21 -45 -21 -12 0
-42 -11 -68 -25 -26 -14 -73 -32 -105 -40 -50 -13 -68 -25 -136 -93 -43 -42
-85 -89 -94 -103 -9 -15 -36 -39 -59 -54 -24 -15 -56 -43 -70 -62 -41 -54 -52
-27 -19 44 15 32 33 61 39 65 6 3 50 44 97 90 47 46 101 91 120 98 19 8 39 18
44 22 58 47 196 118 228 118 14 0 41 18 71 49 37 37 59 51 89 57 31 5 54 20
97 63 53 52 100 124 100 152 0 7 7 20 15 29 22 24 55 146 55 202 0 60 27 178
46 199 8 9 19 33 25 52 6 23 30 55 64 88 31 29 61 70 70 93 10 25 27 48 46 59
27 15 30 22 28 55 -3 49 1 90 8 75 2 -7 9 -13 14 -13 6 0 9 6 8 13 -3 23 1 37
11 37 6 0 10 -16 10 -35 0 -39 20 -47 42 -17 7 9 33 26 58 37 77 32 93 73 38
96 -18 7 -44 21 -58 31 -16 13 -38 18 -65 17 -22 -1 -50 3 -62 9 -29 16 -68
15 -101 -2 -39 -20 -97 -28 -123 -17 -13 5 -56 16 -96 26 -70 17 -73 17 -104
-1 -17 -11 -39 -33 -49 -51 -35 -66 -50 -83 -75 -83 -39 0 -29 48 19 96 36 35
86 96 86 104 0 11 -20 25 -60 40 -19 7 -44 21 -55 31 -11 10 -42 23 -70 30
-27 6 -59 17 -70 23 -76 46 -261 75 -319 51 -22 -10 -50 -11 -96 -6 -36 5 -67
5 -70 1 -23 -33 -135 -36 -176 -5 -11 8 -29 15 -40 15 -12 0 -48 12 -80 27
-31 14 -78 28 -103 30 -25 2 -59 7 -76 12 -16 5 -46 12 -66 15 -45 8 -71 27
-60 44 9 15 16 15 117 4 39 -4 78 -13 87 -20 9 -8 21 -11 26 -8 6 4 27 -3 48
-14 21 -11 44 -20 51 -20 7 0 26 -10 43 -22 26 -19 33 -21 62 -10 19 7 44 12
57 12 43 0 102 23 110 44 9 21 9 21 9 -1 2 -50 54 -68 98 -33 22 17 28 18 61
5 20 -7 85 -16 143 -18 79 -4 116 -10 145 -25 21 -11 53 -23 71 -26 17 -4 37
-13 43 -21 6 -8 34 -21 61 -30 27 -9 57 -27 68 -41 10 -13 29 -24 41 -24 12 0
36 -7 53 -14 99 -46 279 -54 352 -16 21 11 46 20 54 20 17 0 78 -18 103 -31
30 -15 38 -10 38 23 0 23 -8 38 -27 54 -19 15 -24 26 -19 39 6 16 8 16 19 3
42 -51 121 -59 130 -12 2 12 0 27 -5 32 -12 12 -1 19 34 23 18 3 32 -2 40 -14
11 -15 18 -16 41 -8 16 6 43 11 61 11 42 0 69 29 99 106 21 53 23 73 20 183
-3 110 -1 131 18 174 30 72 32 91 8 137 -19 37 -20 45 -9 86 10 34 10 58 2 97
-6 29 -13 70 -17 92 -3 22 -16 72 -29 110 -13 39 -31 94 -39 123 l-16 52 39
53 c39 51 52 96 28 98 -7 1 -26 0 -41 -1 -23 -1 -28 2 -25 17 2 14 14 19 50
21 43 3 48 5 58 38 14 41 24 43 46 9 19 -29 15 -120 -7 -167 -11 -25 -31 -39
-28 -20 3 18 -2 24 -14 14 -10 -9 -10 -35 -2 -131 9 -99 14 -124 30 -139 11
-10 31 -39 45 -65 22 -42 23 -49 11 -82 -14 -39 -6 -62 10 -32 10 16 59 24 72
11 3 -4 1 -16 -6 -28 -6 -11 -14 -66 -18 -121 -3 -65 -12 -112 -23 -133 -29
-56 -49 -254 -32 -322 3 -14 10 -51 15 -82 11 -68 16 -77 39 -73 9 2 58 9 107
15 83 11 199 36 218 47 5 3 1 14 -9 24 -16 18 -16 19 1 19 17 0 17 1 -2 23
-11 12 -25 36 -32 53 -7 17 -24 37 -37 45 -31 16 -42 36 -50 86 -3 21 -10 55
-15 76 -8 28 -28 202 -31 272 -1 9 7 83 17 159 2 15 8 40 13 55 12 31 33 108
33 118 0 5 7 18 15 31 9 13 17 32 19 43 3 17 54 86 93 127 6 7 12 18 12 24 0
5 26 37 58 71 61 66 112 138 112 160 0 7 4 17 9 22 16 18 59 140 65 185 3 25
10 70 15 100 6 30 13 78 16 105 3 28 19 76 35 108 l28 57 -449 0 -449 0 -10
-26 c-6 -14 -7 -58 -4 -97 l6 -72 -23 23 c-21 19 -24 32 -24 97 l0 75 -2597 0
c-1429 0 -2598 -4 -2598 -8 0 -5 8 -18 18 -30 15 -17 21 -19 31 -9 9 9 11 0 7
-42 -3 -29 -10 -58 -14 -65 -5 -6 -15 -36 -21 -66 -7 -30 -16 -74 -22 -98 -5
-24 -6 -54 -3 -67 6 -26 -12 -69 -27 -60 -5 4 -9 15 -9 26 0 20 -21 49 -36 49
-3 0 -3 -32 0 -71 7 -65 6 -70 -11 -67 -16 3 -18 14 -16 108 1 97 17 179 45
233 5 11 12 47 14 80 3 34 7 68 9 75 4 9 -299 12 -1491 12 l-1496 0 6 -37 6
-38 -20 24 c-11 13 -20 29 -20 37 0 12 -130 14 -840 14 l-840 0 0 -5400z
m1664 5308 c-6 -21 12 -75 33 -96 11 -11 13 -10 13 7 0 12 5 21 12 21 6 0 8
-3 5 -7 -4 -3 3 -11 15 -17 14 -7 31 -33 43 -66 16 -43 39 -72 110 -142 49
-48 83 -88 76 -88 -14 0 17 -36 100 -119 41 -40 66 -61 74 -61 2 0 16 -10 30
-22 35 -30 64 -91 68 -141 3 -37 25 -96 60 -162 6 -11 23 -42 38 -70 15 -27
30 -70 33 -95 8 -49 3 -48 -22 2 -19 36 -37 36 -37 -1 1 -23 1 -23 -23 5 -12
16 -32 47 -44 69 -72 138 -92 171 -111 193 -10 10 -17 25 -17 34 0 23 -57 103
-93 131 -35 26 -116 38 -167 23 -14 -4 -46 0 -75 9 -27 8 -57 15 -66 15 -27 0
-32 -55 -9 -102 15 -31 17 -45 9 -54 -8 -10 -4 -27 15 -66 31 -62 35 -110 9
-106 -14 2 -17 -3 -15 -27 2 -16 8 -36 14 -43 6 -7 8 -15 5 -18 -7 -8 -77 67
-77 83 0 7 -4 13 -9 13 -5 0 -15 24 -21 53 -6 29 -17 65 -25 81 -8 15 -15 48
-15 71 0 39 -4 47 -42 78 -24 19 -60 37 -80 41 -21 4 -38 12 -38 18 0 6 -8 17
-17 24 -17 12 -17 15 -3 41 9 15 26 29 38 31 13 2 39 25 63 58 34 46 39 60 34
87 -3 18 -9 73 -12 122 l-6 90 22 -20 c22 -19 22 -19 46 10 32 40 42 100 21
124 -12 13 -13 20 -4 29 17 17 50 -15 42 -40z m236 -1031 c19 -12 37 -24 40
-27 3 -3 22 -19 44 -35 40 -30 76 -97 76 -141 l0 -25 -31 18 c-17 10 -38 32
-46 48 -8 17 -48 62 -89 102 -41 40 -74 77 -74 83 0 14 33 5 80 -23z m-1153
-659 c51 -34 101 -78 165 -145 22 -23 80 -66 129 -94 50 -29 107 -69 129 -88
21 -20 46 -42 55 -49 11 -10 14 -23 10 -41 -4 -18 0 -33 13 -47 11 -11 23 -31
27 -43 4 -13 13 -21 23 -19 10 2 38 -21 70 -55 30 -33 72 -77 95 -100 24 -24
36 -42 29 -45 -7 -2 -30 14 -51 36 -22 22 -59 52 -83 66 -63 37 -110 89 -106
117 2 14 -2 24 -9 24 -6 0 -42 24 -78 53 -36 29 -84 64 -106 77 -21 14 -39 32
-39 40 0 8 -4 15 -8 15 -4 0 -13 14 -19 30 -13 35 -48 41 -58 10 -3 -11 -10
-20 -15 -20 -22 0 -60 21 -86 47 l-28 28 29 3 c47 6 52 29 15 77 -16 21 -120
95 -133 95 -5 0 -15 6 -23 14 -7 8 -19 16 -26 18 -15 5 -1 28 17 28 8 0 36
-14 62 -32z m8096 -694 c18 -19 -98 -144 -121 -130 -4 3 -16 -8 -26 -24 -23
-39 -48 -44 -156 -32 -69 9 -98 17 -123 36 -17 13 -55 32 -82 41 -60 19 -111
57 -101 73 13 21 60 13 105 -18 24 -17 48 -30 53 -30 5 0 22 -10 38 -21 26
-20 38 -21 105 -16 42 3 82 10 88 15 7 6 26 12 43 15 17 3 59 26 94 51 63 47
72 51 83 40z m-7059 -393 c6 -9 -61 -39 -97 -45 -10 -1 -23 -8 -29 -14 -7 -7
-20 -12 -30 -12 -26 0 -100 -39 -93 -49 17 -29 -40 -71 -95 -71 l-31 0 20 26
c26 33 27 47 4 40 -10 -2 -38 -8 -63 -11 -112 -17 50 50 220 91 63 15 117 30
120 34 13 18 65 25 74 11z m-478 -156 c-11 -8 -26 -15 -33 -15 -21 0 -113 -43
-113 -53 0 -6 27 -8 66 -4 77 6 74 0 -21 -36 -128 -48 -368 -68 -422 -34 -23
14 -307 3 -425 -17 -33 -5 -46 19 -17 35 11 6 18 17 15 24 -9 24 77 29 269 17
222 -14 338 -2 466 48 29 12 57 19 64 16 6 -2 45 4 86 14 91 23 88 22 65 5z
m187 -549 c101 -13 137 -28 97 -41 -15 -5 -19 -12 -15 -23 19 -46 17 -47 -123
-47 l-132 0 -40 -45 c-21 -25 -39 -50 -40 -55 0 -6 -9 -17 -20 -25 -11 -8 -20
-19 -20 -25 0 -11 -111 -129 -134 -142 -42 -24 -246 -215 -246 -231 0 -6 -10
-14 -22 -18 -33 -10 -78 -46 -78 -61 0 -7 -9 -13 -20 -13 -11 0 -20 6 -20 13
0 18 38 77 50 77 6 0 9 4 5 9 -3 5 4 12 15 16 11 3 20 11 20 16 0 5 5 9 10 9
6 0 21 10 33 23 12 13 38 34 57 47 40 27 180 169 180 182 0 4 6 8 14 8 8 0 18
9 21 20 3 11 12 20 19 20 6 0 20 21 31 46 15 38 20 43 26 28 6 -14 8 -11 8 14
1 33 31 88 71 130 12 13 23 31 24 40 2 9 7 17 12 18 5 0 16 3 24 7 15 6 53 14
80 15 8 1 59 -5 113 -12z m2725 -946 c27 -22 54 -40 58 -40 17 0 74 -65 74
-84 0 -27 29 -56 57 -56 13 0 39 -16 60 -35 20 -19 32 -35 25 -35 -7 0 -12 -7
-12 -15 0 -8 5 -15 10 -15 6 0 10 -22 10 -49 0 -45 3 -50 29 -62 22 -10 31
-22 36 -49 8 -44 19 -56 67 -81 43 -22 47 -43 12 -66 -20 -13 -24 -11 -55 21
-45 45 -110 130 -130 168 l-16 31 -7 -27 c-4 -17 -2 -34 5 -42 6 -8 9 -26 6
-41 -4 -16 -10 -49 -15 -75 -9 -51 -26 -78 -48 -78 -20 0 -18 48 4 90 17 34
17 37 -2 90 -10 30 -23 60 -28 67 -5 6 -6 33 -2 61 6 46 4 51 -27 80 -19 18
-39 32 -45 32 -7 0 -14 7 -18 15 -3 8 -1 15 4 15 19 0 10 42 -15 74 -45 58
-56 67 -84 72 -16 4 -44 21 -62 40 l-33 34 46 0 c38 0 54 -7 96 -40z m746
-105 c6 -11 15 -23 19 -26 4 -3 7 -39 5 -80 -3 -67 -5 -75 -28 -86 -35 -18
-105 -16 -120 2 -10 12 -10 15 4 15 25 0 19 30 -10 55 -23 19 -26 28 -20 58 7
37 27 60 66 76 36 15 71 9 84 -14z m-1284 -110 c34 -18 37 -27 14 -45 -12 -11
-30 -11 -92 -1 -42 6 -112 10 -155 9 -60 -2 -80 0 -87 12 -12 19 22 33 65 27
24 -4 134 2 213 11 7 1 26 -5 42 -13z m3062 -194 c6 -39 -6 -68 -32 -76 -15
-5 -20 -13 -17 -26 3 -10 2 -17 -3 -14 -4 3 -15 -6 -24 -20 -13 -20 -14 -29
-4 -50 10 -23 8 -29 -20 -56 -17 -17 -34 -40 -37 -52 -17 -59 -70 -147 -95
-157 -36 -15 -75 -4 -89 26 -6 13 -16 24 -24 24 -7 0 -28 14 -47 31 -32 30
-33 32 -15 45 10 8 27 15 37 15 10 1 23 3 28 4 6 1 14 3 19 4 10 1 77 56 148
121 22 21 44 49 48 62 4 13 16 33 27 44 11 13 21 41 24 69 6 63 10 68 43 50
19 -9 30 -24 33 -44z m-1964 -270 c2 -21 -3 -40 -14 -52 -18 -20 -17 -30 13
-116 10 -29 25 -55 34 -58 20 -7 69 -78 69 -99 0 -20 21 -66 30 -66 15 0 32
-61 27 -93 -3 -18 -18 -53 -35 -78 -16 -24 -34 -60 -41 -79 -6 -19 -21 -44
-33 -57 -15 -16 -19 -30 -15 -50 2 -15 2 -51 -2 -79 -11 -82 -5 -90 70 -85 35
2 73 9 84 17 23 16 71 19 80 4 11 -18 -24 -60 -49 -60 -13 0 -40 -11 -60 -25
-20 -14 -50 -25 -66 -25 -46 0 -38 -27 13 -41 23 -6 61 -26 84 -45 23 -19 46
-34 51 -34 5 0 20 -8 33 -18 44 -34 58 -34 74 -2 18 36 48 39 69 8 14 -20 20
-21 137 -14 116 6 123 6 145 -15 16 -15 38 -22 71 -24 26 -1 92 -19 146 -39
55 -20 108 -36 119 -36 11 0 33 -8 48 -17 24 -14 35 -15 68 -5 55 17 62 15 62
-12 0 -33 -7 -36 -87 -42 -88 -6 -195 19 -245 58 -21 16 -52 31 -70 35 -18 3
-41 11 -50 18 -11 7 -49 10 -110 7 -168 -8 -362 -7 -398 1 -19 5 -59 20 -88
34 -39 19 -71 26 -115 27 -61 1 -62 1 -65 -28 -2 -18 4 -40 17 -57 12 -16 21
-37 21 -49 0 -11 14 -34 30 -52 21 -21 30 -41 30 -64 0 -30 5 -35 66 -65 73
-37 84 -51 84 -107 0 -28 7 -45 25 -62 15 -14 32 -48 41 -80 8 -30 19 -63 24
-72 6 -10 10 -32 10 -50 0 -18 4 -49 10 -68 11 -41 20 -97 27 -161 4 -37 12
-54 39 -80 36 -35 44 -63 19 -73 -23 -8 -41 2 -54 32 -16 35 -31 13 -31 -46 0
-36 -3 -43 -17 -40 -24 4 -26 88 -5 140 17 43 10 81 -18 106 -11 9 -20 24 -20
33 0 9 -13 42 -29 75 -18 37 -31 82 -34 119 -3 38 -16 81 -33 116 -16 32 -45
91 -64 133 -32 70 -38 77 -75 87 -22 6 -46 16 -53 22 -20 16 -55 85 -72 141
-9 27 -21 51 -27 53 -17 6 -39 -43 -47 -101 -3 -27 -16 -65 -28 -85 -23 -38
-33 -48 -146 -146 -50 -43 -75 -73 -87 -105 -10 -25 -29 -61 -41 -81 -13 -20
-21 -39 -18 -41 2 -3 -6 -20 -19 -39 -13 -20 -26 -52 -30 -73 -3 -20 -19 -52
-34 -71 -15 -18 -39 -52 -53 -75 -36 -62 -156 -192 -196 -213 -18 -9 -38 -26
-43 -36 -6 -10 -31 -28 -55 -40 -25 -11 -50 -31 -57 -43 -11 -21 -48 -68 -109
-136 -15 -17 -26 -21 -38 -16 -9 5 -34 8 -54 8 -40 0 -51 12 -20 23 76 25 104
47 126 97 25 55 48 80 85 91 13 4 36 20 50 35 14 15 36 31 48 34 12 4 28 18
35 30 13 24 83 113 118 152 11 12 20 25 20 28 0 3 7 14 15 24 89 103 108 136
101 175 -3 19 2 36 20 56 13 16 28 51 33 77 8 40 18 57 58 93 115 105 137 128
153 163 9 21 19 35 22 32 3 -2 8 7 12 21 4 14 11 25 16 25 15 0 43 69 43 108
-1 79 -2 82 -26 82 -28 0 -137 -82 -156 -117 -20 -39 -26 -87 -9 -81 23 9 58
-10 58 -32 0 -25 -21 -34 -55 -26 -18 5 -23 11 -18 24 14 35 -55 -55 -86 -113
-18 -32 -38 -66 -45 -75 -8 -8 -21 -33 -30 -54 -18 -43 -68 -96 -90 -96 -8 0
-16 -6 -19 -12 -2 -7 -8 -10 -12 -6 -4 3 5 30 19 58 14 28 26 57 26 64 0 7 9
21 21 32 46 42 89 164 58 164 -19 0 11 30 30 30 25 1 73 70 66 97 -11 46 55
122 136 156 20 8 43 24 51 36 8 11 29 24 47 27 17 4 34 11 37 16 10 16 -26 46
-64 54 -20 4 -39 8 -42 9 -17 5 -60 15 -93 20 -21 3 -47 17 -60 31 -22 24 -57
25 -57 3 0 -12 -77 -12 -82 0 -5 15 -171 -7 -212 -29 -28 -14 -44 -16 -68 -9
-35 10 -99 4 -128 -11 -10 -5 -28 -10 -40 -10 -11 0 -38 -11 -59 -25 -33 -22
-46 -25 -96 -20 -47 4 -66 12 -100 40 -39 31 -45 33 -73 23 -38 -15 -62 2 -62
43 0 25 4 29 26 29 14 0 38 -6 52 -14 15 -8 51 -22 79 -31 29 -9 57 -24 62
-32 8 -14 12 -14 42 4 19 11 52 24 74 28 22 3 60 13 85 20 25 8 101 20 170 26
278 26 343 28 440 10 36 -7 90 -14 120 -14 51 -2 55 0 70 28 8 16 21 35 29 41
9 7 18 48 24 112 9 87 13 102 28 102 19 0 39 -52 39 -102 0 -54 31 -44 49 17
7 22 26 68 43 103 27 57 30 72 31 175 1 62 -1 128 -4 147 -6 33 -9 35 -48 38
-44 3 -57 26 -20 37 12 4 18 12 15 21 -3 7 -8 37 -11 66 -7 58 -23 108 -35
108 -4 0 -10 9 -13 19 -4 15 7 29 41 56 25 19 51 34 56 32 6 -2 12 -18 14 -36z
m1372 -288 c0 -10 -16 -43 -35 -73 -19 -30 -35 -63 -35 -74 0 -18 -74 -96 -92
-96 -4 0 -8 -4 -8 -10 0 -5 -10 -20 -22 -33 -13 -13 -28 -32 -34 -42 -9 -17
-16 -18 -49 -10 -21 6 -40 15 -42 21 -2 6 22 22 54 34 67 27 93 46 93 70 0 10
9 29 20 43 11 14 34 53 51 87 33 67 61 100 84 100 8 0 15 -8 15 -17z m-3565
-434 c6 -61 8 -112 6 -114 -2 -3 -11 0 -21 5 -13 7 -20 4 -28 -15 -21 -46 -46
-25 -57 47 -6 37 -4 51 9 63 9 9 16 22 16 29 0 7 9 21 19 30 11 10 17 24 14
32 -6 16 16 48 26 38 3 -3 11 -55 16 -115z m3190 71 c3 -5 2 -10 -3 -10 -5 0
-15 -13 -22 -30 -7 -16 -28 -45 -47 -65 -30 -31 -38 -34 -72 -29 -36 6 -41 3
-90 -46 l-52 -52 -145 7 c-79 4 -144 11 -144 15 0 26 34 37 131 43 81 5 109
11 131 27 15 11 30 20 33 20 4 0 13 7 22 16 10 9 30 14 52 13 49 -3 76 7 96
37 17 26 71 64 92 64 6 0 15 -4 18 -10z m-3743 -145 c-4 -33 -18 -50 -106
-129 -16 -14 -32 -26 -37 -26 -15 0 -139 -100 -181 -146 -24 -26 -48 -59 -56
-74 -7 -15 -21 -36 -31 -46 -9 -11 -31 -39 -48 -64 -48 -71 -132 -150 -158
-150 -8 0 -14 -4 -12 -9 1 -5 -2 -11 -8 -13 -6 -2 -11 21 -12 54 -1 47 3 62
23 85 13 15 24 32 24 36 0 5 5 5 10 2 6 -3 10 5 10 19 0 23 3 25 29 20 26 -5
31 -1 67 57 50 80 162 194 200 203 88 21 227 120 263 189 20 37 28 34 23 -8z
m4419 -402 c9 -7 42 -18 74 -23 32 -5 65 -16 74 -23 9 -8 29 -25 44 -38 16
-13 40 -26 55 -29 21 -4 28 -12 30 -33 2 -16 10 -31 18 -34 16 -6 19 -33 4
-33 -5 0 -10 4 -10 9 0 5 -10 11 -22 13 -13 2 -32 17 -43 35 -11 18 -27 32
-35 33 -9 0 -20 4 -25 9 -17 16 -136 43 -243 56 -146 17 -155 37 -30 69 56 14
83 11 109 -11z m-5076 -343 c-19 -43 -55 -103 -65 -110 -4 -3 -15 -22 -25 -43
-9 -20 -28 -47 -42 -60 -13 -12 -45 -43 -71 -69 -26 -26 -60 -51 -75 -57 -26
-10 -27 -10 -16 12 7 12 23 36 37 52 13 17 38 52 56 80 17 27 43 56 59 63 15
7 27 21 27 31 0 10 7 24 15 31 8 7 15 19 15 27 0 25 43 94 55 89 7 -2 18 0 26
5 21 13 22 -11 4 -51z m871 -215 c15 -23 15 -26 -5 -54 -44 -61 -165 -131
-147 -85 3 9 6 21 6 28 0 7 12 29 28 49 15 20 35 48 45 62 23 32 52 32 73 0z
m-206 -220 c0 -9 6 -12 17 -8 13 5 15 2 9 -18 -4 -13 -10 -35 -13 -49 -3 -14
-12 -34 -19 -45 -8 -11 -14 -29 -14 -40 0 -25 -27 -68 -74 -120 l-37 -40 26
49 c20 37 23 51 14 62 -8 10 -8 14 0 14 6 0 11 7 11 15 0 8 7 15 15 15 8 0 15
3 15 6 0 3 -7 12 -15 20 -23 23 -19 96 6 128 22 28 59 35 59 11z m-176 -387
c-31 -39 -41 -51 -82 -98 -21 -25 -51 -65 -65 -90 -27 -48 -27 -52 1 -170 6
-25 16 -95 23 -156 10 -97 9 -115 -4 -140 -14 -25 -16 -26 -18 -9 -1 11 -1 37
0 57 2 24 -5 50 -17 70 -40 65 -64 141 -62 198 4 143 7 161 33 188 14 15 32
44 41 65 8 20 19 37 23 38 4 0 18 2 31 3 12 2 30 10 40 19 28 27 67 56 71 52
2 -2 -5 -15 -15 -27z m1536 -1908 c56 -6 101 -17 109 -25 22 -22 7 -28 -33
-14 -31 11 -41 11 -72 -4 -35 -17 -36 -17 -41 3 -6 23 -44 27 -90 9 l-28 -10
24 -18 c28 -21 23 -34 -19 -51 -25 -11 -36 -10 -56 1 -21 11 -25 19 -22 48 2
29 -1 37 -21 47 l-24 12 29 4 c77 8 157 8 244 -2z m880 -152 c-47 -19 -55 -25
-58 -47 -2 -11 -5 -21 -7 -21 -2 0 -38 -7 -80 -15 -42 -8 -88 -12 -103 -10
-15 2 -44 7 -64 10 -61 10 -49 33 15 28 38 -3 48 -2 37 6 -8 6 -36 11 -62 11
-51 0 -78 7 -78 21 0 5 55 9 123 9 67 0 136 3 152 8 17 5 57 9 90 9 49 0 56
-1 35 -9z"/>
<path d="M1660 10566 c0 -7 -7 -27 -16 -45 -14 -28 -15 -43 -5 -107 6 -41 11
-95 11 -119 0 -42 2 -44 38 -55 20 -6 51 -18 68 -25 34 -16 173 -40 181 -32 3
3 -13 24 -36 46 -23 22 -41 47 -41 56 0 8 -7 15 -16 15 -9 0 -14 5 -12 12 3 7
-16 32 -41 58 -42 42 -78 113 -88 174 -4 24 -9 29 -28 32 -8 1 -15 -3 -15 -10z"/>
<path d="M11111 10763 c13 -21 29 -44 35 -51 7 -6 23 -33 36 -60 13 -26 25
-49 29 -52 3 -3 13 -27 23 -54 11 -27 33 -74 50 -105 18 -31 38 -72 45 -91 7
-19 27 -63 43 -97 39 -81 77 -242 90 -378 10 -115 11 -110 -39 -372 -8 -45
-13 -99 -10 -120 5 -44 -10 -129 -29 -158 -7 -11 -16 -47 -20 -80 -4 -33 -10
-62 -15 -65 -4 -3 -9 -30 -11 -60 -3 -52 -2 -54 21 -55 17 0 30 10 43 33 37
66 70 158 79 221 5 36 14 70 20 77 7 9 8 33 1 76 -5 35 -7 69 -5 76 7 17 43
-52 43 -83 0 -40 17 -29 24 16 10 62 30 44 34 -31 2 -45 -4 -88 -22 -152 -15
-49 -26 -95 -26 -103 0 -26 19 -16 51 28 17 23 41 48 54 54 12 7 49 47 80 89
85 112 116 140 165 148 24 4 45 5 47 2 10 -9 -9 -26 -28 -26 -24 0 -73 -53
-121 -133 -46 -76 -167 -217 -186 -217 -9 0 -42 -54 -42 -69 0 -6 5 -11 11
-11 6 0 18 -9 27 -20 15 -18 22 -19 55 -9 47 13 109 8 115 -8 2 -7 -2 -13 -9
-13 -7 0 -23 -10 -36 -22 -20 -18 -26 -20 -48 -10 -32 15 -82 16 -90 2 -3 -5
-17 -10 -29 -10 -36 0 -94 -28 -106 -50 -6 -10 -19 -45 -30 -77 -44 -135 -59
-171 -94 -223 -62 -93 -36 -120 67 -69 39 19 75 29 106 29 56 1 156 24 177 41
9 7 13 21 10 32 -6 23 10 57 26 57 6 0 35 23 65 51 67 64 130 93 168 79 29
-11 35 -9 85 36 29 26 180 103 260 133 30 12 67 29 81 38 14 10 52 36 85 57
32 22 61 42 64 46 3 4 19 14 36 23 51 26 155 139 160 174 2 10 10 23 18 29 9
6 13 14 9 17 -3 4 1 7 11 7 10 0 14 5 10 11 -3 6 0 15 7 20 8 4 16 4 20 -2 8
-13 39 0 39 17 0 8 9 14 21 14 11 0 38 19 60 44 22 24 51 46 64 49 26 4 26 2
-8 -46 -10 -16 -17 -30 -15 -32 11 -11 90 -7 143 8 33 9 72 18 86 21 59 13
142 93 286 280 18 22 50 64 73 92 22 28 40 54 40 57 0 3 16 29 36 58 20 30 47
74 60 99 23 43 34 60 79 126 36 54 99 127 154 178 84 78 246 246 281 291 37
48 90 94 108 95 7 0 15 -7 19 -15 3 -9 18 -22 34 -31 16 -8 29 -18 29 -23 0
-4 -17 -16 -39 -27 -21 -10 -37 -23 -34 -29 2 -6 -16 -29 -39 -51 -69 -63 -85
-72 -46 -25 37 44 40 61 11 61 -10 0 -13 6 -9 18 5 15 4 15 -8 -1 -8 -11 -12
-25 -9 -33 3 -8 0 -14 -7 -14 -6 0 -8 5 -5 10 3 6 -1 10 -10 10 -8 0 -19 -8
-22 -17 -4 -10 -25 -38 -47 -62 -23 -24 -40 -47 -38 -52 1 -5 -2 -8 -6 -7 -11
4 -72 -60 -72 -77 0 -7 6 -15 13 -18 7 -3 -9 -23 -40 -51 -50 -45 -143 -156
-156 -186 -4 -8 -20 -37 -36 -65 -16 -27 -52 -91 -80 -142 -28 -50 -61 -104
-74 -120 -13 -15 -50 -66 -82 -113 -32 -47 -77 -105 -101 -130 -52 -54 -57
-75 -16 -65 15 4 43 8 62 10 203 19 233 25 322 60 51 20 104 42 118 49 14 7
50 19 80 27 30 7 62 17 70 23 8 6 4 -1 -8 -16 -13 -15 -36 -31 -50 -36 -15 -6
-36 -14 -47 -18 -11 -4 -24 -6 -28 -5 -15 3 -106 -52 -101 -61 7 -11 33 -4
109 31 52 24 68 27 115 21 l55 -6 -30 -13 c-16 -7 -70 -21 -120 -32 -49 -10
-119 -31 -155 -45 -81 -32 -170 -42 -202 -23 -37 23 -75 13 -81 -20 -9 -41
-46 -53 -132 -42 -52 7 -73 6 -80 -3 -5 -7 -35 -30 -65 -51 -51 -36 -72 -53
-121 -97 -10 -10 -22 -18 -25 -18 -3 0 -17 -9 -31 -20 -36 -28 -51 -25 -23 5
29 31 19 32 -27 4 -21 -13 -30 -24 -24 -28 11 -7 -29 -52 -59 -65 -23 -10 -79
-44 -188 -113 -54 -35 -104 -63 -110 -63 -27 0 -11 40 21 54 17 8 48 23 67 34
19 10 53 27 75 38 21 10 48 34 58 52 l19 33 -28 -6 c-16 -4 -64 -24 -106 -46
-43 -21 -84 -39 -91 -39 -8 0 -24 -11 -37 -25 -13 -14 -28 -25 -34 -25 -6 0
-23 -13 -38 -29 -26 -27 -27 -29 -8 -34 29 -8 25 -48 -7 -79 -29 -26 -104 -68
-123 -68 -11 0 -56 -19 -150 -63 -52 -24 -100 -57 -150 -103 -19 -18 -62 -47
-95 -65 -33 -17 -66 -37 -73 -42 -7 -6 -38 -19 -69 -29 -30 -11 -79 -37 -109
-60 -46 -35 -59 -40 -91 -35 -57 7 -171 -51 -253 -128 -36 -34 -81 -69 -100
-78 -40 -19 -63 -63 -65 -122 0 -22 -6 -49 -12 -60 -11 -18 -12 -15 -11 19 1
27 -4 43 -17 52 -25 18 -51 18 -59 -1 -3 -8 -12 -15 -21 -15 -8 0 -15 -7 -15
-15 0 -8 -11 -22 -25 -31 -14 -9 -25 -22 -25 -29 0 -7 -7 -26 -15 -41 -21 -40
-1 -164 26 -164 5 0 9 -7 9 -15 0 -9 7 -18 15 -21 8 -4 12 -10 9 -15 -3 -5
-10 -7 -15 -4 -5 4 -9 -1 -9 -9 0 -14 -31 -22 -62 -17 -5 0 -8 -4 -8 -10 0 -8
-5 -8 -15 1 -12 10 -18 10 -32 -1 -30 -24 -52 -53 -53 -70 0 -9 -7 -22 -15
-29 -19 -16 -19 -41 0 -66 16 -22 19 -57 6 -82 -5 -9 -11 -103 -14 -209 -5
-166 -4 -192 9 -197 41 -16 64 -1 64 40 0 8 11 32 25 52 16 24 25 31 25 19 0
-9 7 -17 15 -17 8 0 15 -4 15 -10 0 -5 6 -10 13 -10 20 0 55 -43 59 -72 3 -30
-15 -40 -21 -11 -2 10 -10 23 -19 29 -13 9 -21 5 -46 -21 -17 -17 -37 -34 -44
-36 -11 -4 -17 -24 -21 -71 -2 -17 -31 6 -40 30 l-9 27 -1 -32 c-1 -22 4 -33
13 -33 8 0 41 -22 73 -49 32 -26 74 -56 93 -66 19 -9 59 -42 88 -72 79 -83 90
-112 49 -130 -31 -14 -69 3 -126 56 -24 22 -46 41 -48 41 -7 0 -120 94 -150
126 -37 39 -88 47 -97 16 -3 -9 -16 -22 -28 -27 -17 -7 -24 -20 -26 -46 -3
-41 -17 -49 -83 -49 -66 0 -118 -42 -119 -97 0 -21 27 -79 50 -106 15 -18 60
-87 60 -92 0 -3 -4 -5 -10 -5 -5 0 -10 7 -10 15 0 9 -9 15 -21 15 -12 0 -48
24 -81 55 -32 30 -67 55 -77 55 -9 0 -22 5 -28 11 -14 14 -36 1 -29 -17 5 -14
-5 -18 -32 -15 -10 2 -12 -6 -7 -27 3 -18 2 -33 -4 -37 -6 -3 -11 -15 -11 -26
0 -11 -6 -22 -14 -25 -8 -3 -20 -28 -27 -55 -7 -27 -16 -49 -21 -49 -4 0 -8
-5 -8 -11 0 -5 6 -7 13 -3 6 4 3 -2 -8 -13 -11 -11 -29 -32 -39 -47 -10 -14
-25 -26 -33 -26 -8 0 -12 -4 -9 -9 3 -5 0 -14 -8 -20 -21 -18 -28 -67 -25
-186 1 -60 3 -121 3 -135 0 -14 -3 -38 -7 -53 -5 -19 -4 -27 3 -22 9 6 33 -35
35 -60 1 -21 34 -56 53 -58 11 0 18 -6 15 -13 -5 -15 54 -84 72 -84 7 0 15 -3
17 -7 6 -15 85 -52 133 -63 27 -6 94 -15 150 -21 55 -5 114 -11 130 -14 17 -2
36 -4 44 -4 32 -2 -2 -13 -80 -26 -141 -24 -203 -37 -219 -46 -8 -5 -22 -12
-32 -15 -22 -8 -28 -37 -14 -65 15 -29 113 -88 206 -123 41 -16 95 -37 120
-46 25 -10 68 -27 96 -38 28 -12 85 -37 127 -56 52 -25 90 -36 121 -36 24 0
46 -4 48 -9 2 -5 39 -20 83 -32 44 -12 96 -26 115 -31 19 -5 55 -13 80 -17 25
-4 51 -11 59 -15 21 -13 81 -18 251 -20 115 -2 166 -6 199 -18 27 -10 57 -14
75 -11 28 6 30 5 17 -10 -11 -14 -11 -17 0 -17 8 0 26 -10 40 -22 27 -25 33
-29 128 -85 118 -71 176 -109 214 -143 16 -14 52 -38 80 -54 107 -59 224 -121
301 -158 77 -38 113 -51 466 -163 104 -33 181 -64 192 -75 17 -18 21 -19 47
-6 42 22 53 41 49 83 -3 30 -9 38 -28 43 -14 3 -25 11 -24 18 1 7 2 21 3 33 1
16 7 20 29 17 23 -3 28 -8 32 -43 4 -35 8 -40 28 -37 13 2 39 -4 58 -13 20 -9
42 -14 50 -11 9 3 12 1 9 -4 -11 -18 36 -10 66 11 43 30 133 124 165 172 16
23 32 44 35 47 5 4 34 47 94 138 6 8 17 23 25 33 8 9 26 32 39 50 13 19 47 51
75 71 82 61 206 176 268 250 59 71 118 182 118 221 0 13 6 31 14 42 8 11 17
59 21 105 6 78 5 89 -15 123 l-22 38 25 37 c14 20 29 49 32 64 4 15 13 32 21
39 8 6 14 19 15 28 0 9 9 30 19 46 11 17 26 45 35 64 8 18 32 54 53 80 22 25
43 54 49 65 16 29 0 87 -40 145 -20 29 -37 57 -37 62 0 21 21 14 71 -25 56
-44 102 -69 81 -43 -15 18 -2 33 36 42 37 8 40 -2 12 -38 -11 -14 -20 -36 -20
-50 0 -40 -21 -88 -67 -154 -24 -34 -43 -66 -43 -71 0 -5 -13 -24 -30 -43 -72
-82 -80 -93 -80 -106 0 -8 -7 -28 -16 -44 -14 -29 -14 -32 2 -51 13 -13 20
-40 22 -89 5 -90 22 -90 72 1 10 19 49 67 86 105 37 39 68 79 68 90 1 12 13
26 33 35 38 17 42 35 12 51 -14 7 -18 14 -11 21 6 6 16 6 28 -1 11 -6 31 -15
47 -21 15 -5 27 -16 27 -25 0 -28 21 -16 92 53 104 98 116 109 193 166 40 30
102 91 145 144 57 70 96 106 165 153 110 74 182 139 178 159 -2 9 12 34 30 55
19 22 50 66 70 98 41 63 51 71 41 29 l-7 -27 24 24 c15 16 24 20 27 12 7 -21
-51 -123 -98 -171 -49 -50 -198 -170 -211 -170 -5 0 -16 -14 -25 -32 -9 -17
-37 -51 -63 -75 -25 -24 -50 -49 -56 -54 -5 -6 -36 -37 -67 -69 -32 -32 -58
-62 -58 -66 0 -18 -161 -158 -218 -190 -35 -20 -65 -34 -68 -32 -2 3 -27 -18
-56 -45 -29 -27 -78 -66 -109 -87 -59 -41 -99 -95 -99 -134 0 -15 -13 -33 -34
-50 -19 -14 -38 -35 -41 -46 -4 -12 -31 -56 -61 -98 -30 -42 -70 -101 -90
-129 -20 -29 -40 -53 -46 -53 -5 0 -7 -4 -4 -9 3 -4 -4 -17 -15 -27 -36 -32
-42 -62 -19 -94 14 -20 26 -27 40 -23 25 7 26 -15 4 -58 -8 -16 -12 -38 -9
-49 3 -10 1 -21 -4 -25 -18 -10 -51 15 -51 38 0 31 -23 78 -35 73 -5 -2 -9
-11 -7 -20 2 -9 -17 -36 -41 -61 -36 -35 -52 -64 -82 -147 -21 -57 -45 -114
-54 -128 -9 -14 -23 -38 -31 -55 -37 -77 -71 -113 -140 -144 -99 -46 -310
-229 -310 -270 0 -6 19 -10 48 -10 140 4 353 -14 442 -36 52 -13 103 -24 113
-24 43 -2 52 -6 84 -39 19 -19 32 -40 29 -48 -3 -7 3 -18 13 -24 26 -14 39
-58 29 -98 -11 -40 -26 -40 -64 -2 -48 50 -146 113 -189 122 -100 20 -145 26
-164 21 -11 -3 -42 0 -68 6 -26 6 -73 11 -103 12 -75 2 -86 1 -75 -10 10 -8
266 -92 390 -127 158 -45 235 -75 235 -93 0 -5 24 -12 52 -15 29 -4 66 -15 83
-25 52 -32 255 -114 395 -160 133 -45 175 -53 338 -68 159 -15 184 -15 320 0
81 9 174 24 207 33 33 8 71 17 85 19 51 7 216 46 255 60 48 17 299 55 364 55
132 -1 315 -75 451 -185 161 -129 226 -173 330 -221 81 -38 140 -65 164 -74
31 -11 34 -30 6 -37 -13 -3 -20 -14 -20 -28 0 -34 -20 -46 -50 -30 -14 8 -37
14 -51 15 -15 0 -32 7 -39 15 -7 8 -18 15 -24 15 -12 0 -87 36 -131 63 -11 7
-42 26 -70 42 -27 16 -71 45 -97 65 -162 122 -209 153 -269 173 -24 9 -74 27
-110 40 -58 22 -80 24 -190 22 -68 -1 -148 -5 -178 -10 -52 -8 -54 -7 -48 14
5 19 1 21 -38 21 -27 0 -47 -6 -56 -17 -13 -15 -11 -16 24 -9 40 7 51 -6 18
-23 -11 -6 -80 -26 -155 -45 -75 -19 -140 -37 -145 -41 -12 -7 -156 -27 -196
-27 -153 0 -407 12 -421 20 -11 5 -48 12 -84 16 -79 8 -192 31 -218 45 -10 5
-52 17 -93 26 -65 14 -100 27 -224 80 -54 24 -104 39 -110 33 -3 -3 1 -17 9
-33 17 -33 52 -57 231 -157 91 -51 152 -99 280 -218 79 -73 161 -130 229 -160
25 -10 46 -24 46 -30 0 -5 6 -10 14 -10 8 0 21 -6 28 -12 35 -33 161 -108 182
-108 10 0 15 -7 13 -22 -2 -20 6 -25 68 -40 39 -9 93 -17 120 -16 29 1 63 -6
81 -15 17 -9 87 -32 155 -52 68 -20 126 -41 127 -46 2 -5 11 -9 20 -9 9 0 52
-11 96 -24 45 -13 103 -27 131 -31 27 -4 67 -16 87 -26 38 -19 38 -19 38 1 0
19 6 20 99 20 116 0 142 -15 43 -25 -81 -8 -182 -33 -139 -34 18 -1 27 -6 24
-13 -7 -23 -221 -3 -368 34 -56 15 -223 88 -215 95 5 5 152 -43 196 -64 19
-10 64 -20 100 -24 36 -4 82 -11 104 -15 31 -6 38 -4 34 7 -3 8 -26 17 -57 21
-29 5 -71 17 -95 28 -94 43 -277 100 -319 100 -14 0 -16 -4 -7 -19 9 -19 8
-19 -51 -5 -33 8 -68 18 -77 23 -9 4 -39 14 -67 20 -27 7 -107 41 -178 77 -70
35 -133 64 -141 64 -20 0 -102 38 -113 52 -5 7 -13 21 -16 31 -6 15 -3 16 13
7 10 -5 27 -10 36 -10 21 0 -36 51 -117 106 -29 19 -59 44 -66 54 -16 23 -41
16 -45 -12 -8 -51 -68 -43 -68 8 0 22 14 30 43 25 4 0 7 3 7 9 0 5 -5 10 -11
10 -6 0 -29 16 -52 35 -22 19 -45 35 -50 35 -5 0 -6 -19 -3 -45 6 -37 4 -46
-10 -52 -20 -8 -49 9 -49 28 0 8 8 13 18 11 24 -4 21 16 -5 37 -25 21 -17 42
12 34 11 -3 20 -2 20 1 0 15 -33 56 -45 56 -7 0 -24 9 -38 20 -25 20 -25 20
-30 0 -5 -20 -27 -29 -27 -11 0 10 -88 36 -96 28 -3 -3 22 -31 55 -63 34 -31
61 -63 61 -70 0 -19 -37 -5 -68 26 -32 32 -112 84 -112 73 0 -5 -8 1 -18 12
-9 12 -37 34 -62 50 -25 17 -47 33 -50 36 -3 3 -22 14 -42 23 -20 10 -49 30
-64 44 -21 22 -36 27 -83 28 -39 1 -76 10 -112 27 -29 15 -54 25 -56 23 -1 -1
26 -21 60 -44 35 -23 78 -55 97 -72 18 -16 36 -30 39 -30 3 0 15 -18 25 -41
11 -22 34 -50 50 -62 57 -40 198 -182 256 -257 32 -41 79 -95 104 -120 32 -30
61 -75 91 -138 25 -52 45 -99 45 -106 0 -17 52 -97 82 -128 14 -13 48 -37 74
-53 27 -15 57 -35 67 -43 9 -8 17 -11 17 -6 0 5 4 4 8 -2 4 -5 28 -20 55 -32
34 -16 52 -32 64 -57 9 -19 20 -35 25 -35 4 0 8 -5 8 -10 0 -6 11 -27 24 -48
14 -20 37 -82 52 -137 16 -55 40 -120 55 -145 16 -25 44 -93 64 -151 34 -99
41 -110 98 -166 50 -48 82 -69 160 -102 53 -23 108 -52 122 -65 13 -12 42 -31
64 -42 23 -10 41 -22 41 -26 0 -5 13 -8 29 -8 17 0 63 -16 103 -36 64 -33 70
-38 50 -45 -12 -5 -22 -11 -22 -13 0 -12 78 -44 132 -56 32 -6 60 -16 63 -21
9 -13 63 -11 67 3 3 7 26 0 66 -22 71 -39 69 -58 -5 -41 -26 7 -55 13 -63 14
-8 1 -17 4 -20 7 -5 6 -79 28 -120 36 -27 6 -60 19 -100 39 -14 7 -45 18 -70
25 -24 7 -62 20 -85 30 -45 21 -130 55 -190 76 -40 14 -126 55 -135 64 -7 7
-49 30 -55 30 -3 0 -5 -16 -5 -37 l0 -36 -21 19 c-12 10 -28 34 -36 53 -8 19
-36 66 -62 105 -50 75 -84 156 -146 346 -46 142 -130 322 -158 340 -12 7 -60
34 -107 58 -130 69 -264 180 -273 227 -4 20 -28 81 -50 124 l-12 25 -3 -32
c-2 -20 7 -53 26 -89 55 -110 71 -148 105 -258 19 -60 50 -155 70 -210 41
-118 91 -304 107 -395 10 -56 24 -96 62 -173 14 -28 -2 -40 -21 -15 -25 34
-41 75 -41 108 0 20 -5 30 -15 30 -10 0 -15 -10 -15 -29 0 -33 19 -91 30 -91
4 0 10 -25 14 -55 3 -30 16 -72 28 -92 23 -40 36 -66 96 -179 44 -84 91 -134
125 -134 16 0 46 -21 88 -60 71 -65 70 -83 -1 -20 -51 45 -122 82 -143 74 -15
-5 -62 58 -72 99 -4 13 -27 48 -51 78 -38 45 -64 87 -68 109 -1 3 -6 19 -13
35 -6 17 -23 70 -39 120 -15 49 -38 108 -51 130 -12 22 -23 56 -23 75 0 19
-14 62 -30 94 -23 45 -30 72 -30 117 0 31 -9 81 -19 111 -10 29 -33 103 -51
163 -18 61 -39 125 -47 143 -15 34 -12 62 7 62 5 0 10 -7 10 -15 0 -8 5 -15
10 -15 16 0 12 30 -12 76 -14 28 -28 44 -40 44 -10 0 -18 6 -18 13 0 8 -9 22
-20 32 -11 10 -22 27 -26 39 -4 11 -15 33 -26 48 -10 15 -37 64 -59 109 -23
46 -52 97 -65 115 -13 17 -24 34 -24 38 0 16 -122 141 -229 236 -41 36 -81 73
-90 84 -27 31 -36 40 -67 64 -28 22 -49 36 -121 83 -18 12 -33 25 -33 29 0 17
-52 21 -69 5 -10 -8 -23 -15 -30 -15 -7 0 -9 -4 -6 -10 3 -5 0 -10 -8 -10 -14
0 -30 56 -20 72 2 5 19 8 36 8 30 1 31 2 13 15 -10 8 -23 12 -29 8 -6 -3 -16
2 -23 12 -20 27 -105 30 -111 4 -3 -10 -4 -22 -3 -26 3 -15 -36 -20 -56 -7
-19 12 -22 11 -27 -6 -6 -24 17 -69 51 -98 22 -19 35 -23 67 -19 22 3 48 8 58
12 24 10 22 -10 -5 -35 -24 -22 -55 -26 -90 -9 -16 7 -31 7 -48 -1 -24 -10
-24 -10 5 -5 28 5 29 4 11 -10 -37 -28 -58 -14 -90 62 -17 38 -23 43 -62 49
-48 7 -64 1 -64 -26 0 -10 -8 -21 -17 -24 -12 -5 -14 -9 -5 -18 7 -7 12 -30
12 -51 0 -34 -2 -38 -15 -27 -8 7 -15 26 -15 42 0 61 -41 10 -74 -92 -10 -30
-23 -62 -30 -70 -7 -8 -25 -36 -39 -62 -15 -26 -34 -54 -43 -62 -23 -24 -74
-128 -74 -153 0 -12 -13 -59 -29 -105 -16 -46 -36 -108 -45 -139 -9 -31 -27
-67 -41 -80 -15 -15 -25 -35 -25 -54 0 -16 -7 -43 -15 -59 -8 -15 -15 -41 -15
-57 0 -40 -46 -134 -129 -261 -38 -59 -72 -116 -75 -126 -4 -10 -20 -31 -36
-46 -17 -14 -30 -31 -30 -36 0 -6 -4 -10 -9 -10 -18 0 24 126 62 184 22 34 45
66 52 71 30 25 90 135 107 199 41 149 50 192 45 222 -4 24 1 39 22 65 43 53
91 197 91 274 0 46 5 68 17 81 9 9 27 39 40 66 13 28 41 71 62 97 21 25 53 75
70 111 18 35 36 69 40 75 9 10 26 153 35 287 5 60 3 69 -14 78 -11 6 -20 16
-20 23 0 41 -227 107 -300 87 -33 -9 -213 -34 -365 -50 -38 -4 -96 -11 -128
-15 -43 -6 -72 -4 -110 8 -53 16 -142 35 -198 42 -66 9 -109 33 -109 63 0 12
3 12 15 2 9 -7 18 -10 21 -7 9 9 -4 37 -18 41 -7 2 -37 11 -66 21 -36 12 -56
14 -65 7 -6 -5 -21 -12 -32 -14 -11 -2 12 -12 54 -22 70 -18 73 -20 50 -32
-20 -10 -36 -10 -89 2 -36 8 -85 23 -110 34 -25 11 -88 36 -140 55 -52 20
-115 46 -139 58 -43 22 -106 79 -106 97 0 5 -10 18 -22 30 -13 11 -23 24 -23
29 0 4 -8 16 -17 27 -10 10 -27 38 -38 60 -20 42 -132 144 -157 144 -9 0 -9
-3 2 -10 13 -8 12 -10 -3 -10 -11 0 -21 9 -24 19 -4 16 -11 18 -41 14 -21 -3
-49 -14 -64 -24 -14 -11 -36 -19 -48 -19 -35 0 -157 -130 -171 -182 -6 -24
-15 -48 -20 -54 -26 -32 -51 -144 -53 -244 -2 -110 0 -130 16 -130 5 0 16 -7
24 -15 9 -8 23 -15 33 -15 9 0 36 -18 59 -40 53 -51 77 -60 162 -60 41 0 86
-7 111 -16 63 -26 171 -14 218 24 20 16 46 31 59 34 18 5 22 2 22 -18 0 -13 9
-33 20 -44 18 -18 11 -38 -10 -25 -5 3 -17 -6 -26 -20 -9 -14 -26 -25 -38 -25
-12 0 -32 -7 -45 -16 -13 -10 -41 -18 -62 -20 -21 -1 -43 -5 -49 -9 -13 -8
-102 12 -139 31 -14 8 -44 14 -66 14 -64 1 -114 16 -140 44 -39 42 -119 27
-101 -19 7 -18 -27 -91 -45 -97 -9 -3 -9 -9 0 -27 9 -16 10 -30 2 -49 -47
-126 -61 -173 -61 -209 0 -33 -5 -45 -21 -53 -11 -7 -22 -10 -23 -8 -1 2 -8
28 -15 59 -10 42 -11 61 -2 77 6 12 18 61 26 109 9 48 21 93 29 98 21 16 36
51 36 84 0 25 -4 31 -22 31 -31 0 -47 12 -51 35 -4 28 -26 65 -38 65 -5 0 -14
-11 -19 -24 -11 -30 -41 -48 -60 -36 -18 11 -41 2 -70 -30 -14 -15 -35 -33
-46 -39 -19 -9 -23 -7 -28 14 -8 30 -19 31 -62 5 -20 -13 -35 -17 -39 -10 -8
13 2 30 19 30 6 0 27 15 45 34 18 19 43 37 56 40 28 7 95 118 95 158 0 39 -96
136 -143 144 -57 10 -127 43 -127 60 0 19 30 25 75 13 59 -15 85 -17 85 -8 0
22 -15 39 -35 39 -35 0 -47 22 -37 67 8 35 6 43 -18 73 -24 29 -36 35 -81 40
l-54 5 -5 50 c-4 35 -16 67 -42 107 -21 31 -42 59 -48 63 -5 3 -10 19 -10 36
0 27 2 29 39 27 35 -1 41 -6 70 -54 17 -29 31 -55 31 -59 0 -4 20 -30 45 -57
25 -28 45 -56 45 -63 0 -14 87 -95 101 -95 5 0 9 -12 9 -27 1 -41 124 -164
149 -149 5 3 12 -18 15 -47 9 -67 20 -86 43 -71 9 6 20 17 23 25 4 8 12 23 17
34 6 12 14 35 17 52 8 36 74 168 115 228 14 22 45 53 68 70 46 33 51 49 27 77
-16 16 -15 18 6 26 22 8 20 11 -31 40 -30 17 -99 51 -153 77 -55 26 -114 57
-131 71 -17 13 -46 27 -63 30 -18 4 -32 10 -32 15 0 14 -71 54 -120 68 -55 16
-130 49 -150 66 -20 17 -270 32 -270 16 0 -16 -68 -13 -77 3 -4 8 -30 17 -58
21 l-50 7 33 -21 c24 -16 32 -28 32 -50 0 -35 22 -60 60 -68 36 -7 85 -56 77
-77 -9 -24 -78 -21 -110 5 -15 11 -33 35 -42 52 -12 25 -26 36 -60 46 -25 7
-45 19 -45 26 0 16 -77 35 -115 28 -33 -6 -65 -30 -65 -48 0 -7 -11 -25 -25
-41 -21 -25 -23 -30 -10 -44 8 -9 15 -23 15 -31 -1 -21 -23 -46 -37 -42 -7 3
-13 0 -13 -7 0 -6 -4 -9 -9 -6 -17 11 -23 -75 -6 -100 22 -34 10 -54 -34 -54
-30 -1 -33 -3 -21 -13 15 -12 16 -47 1 -47 -9 0 -27 -72 -41 -164 -6 -38 -13
-73 -16 -77 -2 -4 -9 -65 -15 -136 -6 -70 -13 -141 -15 -158 -2 -16 -5 -36 -6
-43 -1 -9 -9 -11 -27 -7 -14 4 -28 9 -30 11 -3 3 -6 37 -6 77 -1 40 -9 108
-18 152 -8 44 -18 136 -22 205 -8 135 -12 151 -56 188 -16 13 -29 32 -29 42 0
10 -8 21 -18 24 -10 4 -18 15 -17 29 0 35 -19 35 -35 0 -8 -18 -21 -33 -27
-33 -7 0 -12 -3 -11 -7 3 -17 -14 -41 -26 -37 -7 3 -19 -8 -27 -23 -8 -15 -28
-43 -46 -62 -17 -19 -41 -53 -52 -76 -11 -23 -48 -73 -80 -113 -63 -74 -137
-178 -161 -225 -7 -15 -33 -51 -57 -79 -49 -56 -83 -118 -120 -218 -20 -53
-60 -142 -114 -252 -5 -9 -17 -42 -28 -73 -38 -108 -163 -295 -197 -295 -8 0
-13 -3 -13 -8 3 -20 -3 -40 -23 -72 -12 -19 -27 -50 -34 -68 -11 -29 -10 -34
9 -47 17 -12 18 -15 5 -15 -9 0 -19 -6 -21 -12 -4 -10 -6 -10 -6 0 -1 10 -6
10 -21 2 -12 -6 -17 -17 -14 -28 5 -14 4 -14 -5 -2 -12 17 -13 17 -39 -36 -34
-67 -71 -204 -107 -399 -8 -44 -18 -87 -21 -95 -17 -46 -55 -269 -60 -355 -8
-139 8 -286 37 -326 19 -27 20 -34 8 -55 -10 -20 -10 -32 -1 -58 7 -18 12 -40
12 -49 0 -10 11 -35 25 -57 14 -22 25 -45 25 -52 1 -23 94 -163 146 -220 31
-35 62 -58 81 -62 51 -12 101 -76 59 -76 -18 0 -27 -23 -15 -41 6 -9 9 -10 9
-2 0 18 26 6 88 -40 29 -21 57 -49 62 -61 4 -12 22 -36 39 -52 17 -16 31 -34
31 -40 0 -6 9 -23 20 -37 12 -15 20 -30 18 -34 -2 -4 7 -9 20 -11 15 -2 22 2
22 12 0 31 41 12 121 -55 65 -56 163 -111 183 -103 21 8 46 49 46 75 0 17 5
20 21 16 15 -4 23 1 31 19 20 44 30 26 23 -44 -5 -52 -2 -78 10 -110 18 -45
33 -51 82 -31 47 19 66 27 103 42 19 8 69 24 110 36 41 13 89 30 105 39 17 8
50 26 75 39 48 25 75 48 130 112 19 22 56 50 82 62 27 12 48 29 48 36 0 17 39
8 56 -13 6 -8 19 -14 28 -14 9 0 16 -4 16 -9 0 -5 8 -7 18 -4 10 2 24 -3 31
-11 11 -13 10 -18 -3 -31 -26 -27 -19 -36 21 -29 73 14 137 55 233 153 53 53
104 102 113 110 35 28 -2 -41 -72 -134 -93 -122 -168 -196 -225 -220 l-47 -20
6 -45 c8 -49 21 -80 34 -80 5 0 4 -14 -2 -30 -19 -51 -38 -32 -60 58 l-21 84
-35 -7 c-20 -3 -55 -8 -78 -11 -24 -4 -43 -9 -43 -14 0 -9 -79 -40 -112 -44
-13 -1 -36 -8 -51 -14 -16 -7 -41 -12 -57 -12 -19 0 -33 -7 -39 -19 -20 -36
-85 -78 -130 -85 l-45 -6 40 35 39 35 -40 -5 c-22 -3 -41 -10 -43 -15 -2 -6
-12 -10 -23 -10 -17 0 -73 -32 -89 -51 -3 -3 -13 -9 -24 -12 -14 -6 -16 -10
-7 -20 8 -10 6 -19 -5 -36 -9 -12 -14 -23 -13 -25 2 -1 21 -13 42 -26 37 -22
48 -23 295 -26 142 -1 263 -3 270 -3 6 -1 12 -6 12 -12 0 -6 -7 -8 -16 -5 -9
4 -50 -1 -91 -9 -54 -11 -79 -12 -93 -5 -25 13 -186 9 -183 -5 1 -5 18 -14 37
-18 40 -10 48 -33 14 -40 -14 -3 -9 -5 15 -6 21 0 37 4 37 10 0 8 12 9 38 3
20 -4 2059 -9 4529 -11 l4493 -3 -6 62 c-3 35 -9 100 -15 145 -6 56 -6 88 1
100 5 10 14 30 20 46 14 40 27 33 44 -20 l14 -48 16 37 c15 36 36 59 36 39 0
-18 -43 -121 -51 -121 -4 0 -17 12 -28 28 l-21 27 9 -26 c5 -15 7 -30 3 -34
-12 -12 0 -138 15 -162 9 -14 13 -33 9 -48 l-6 -25 260 0 260 0 0 714 0 714
-48 7 c-26 3 -59 8 -72 9 -38 4 -99 26 -139 50 -31 18 -33 21 -15 24 11 2 60
-7 110 -18 49 -12 106 -24 127 -26 l37 -6 0 175 c0 186 0 187 -50 187 -9 0
-22 6 -28 13 -18 21 13 57 49 57 l29 0 0 80 c0 77 -5 90 -25 71 -6 -5 -20 -5
-34 0 -23 9 -23 10 -7 28 10 11 28 22 42 25 22 6 24 11 24 71 l0 65 -67 2
c-38 1 -86 2 -107 3 -47 0 -60 22 -19 30 15 4 41 13 56 21 15 9 42 15 60 14
18 -1 42 -2 54 -1 l23 1 0 4245 0 4245 -3506 0 c-2797 0 -3508 -3 -3517 -13
-34 -35 -42 -54 -44 -101 -2 -75 -110 -305 -149 -320 -22 -9 -24 -8 -24 12 0
20 -68 82 -91 82 -31 0 -89 -88 -102 -157 -3 -17 -15 -51 -25 -75 -24 -52 -38
-94 -46 -130 -4 -15 -20 -49 -36 -75 -51 -83 -77 -136 -93 -189 -20 -69 -50
-124 -55 -102 -5 27 37 153 69 203 16 25 29 49 29 53 0 4 16 39 36 77 20 39
44 93 54 120 10 28 32 88 50 135 17 47 36 99 42 115 6 17 29 53 50 82 21 29
43 64 50 78 6 14 15 25 19 25 5 0 20 17 34 38 14 20 41 57 59 82 19 25 35 48
35 53 1 4 -213 7 -475 7 l-476 0 23 -37z m5329 -62 c0 -4 -18 -16 -40 -27 -43
-21 -51 -34 -20 -34 11 0 20 5 20 11 0 5 5 7 11 3 6 -3 24 3 39 15 20 14 31
17 36 10 7 -11 -12 -29 -32 -29 -6 0 -19 -9 -28 -19 -10 -11 -29 -22 -44 -26
-14 -3 -46 -15 -69 -26 -24 -11 -49 -17 -55 -13 -6 4 -8 3 -4 -4 3 -5 2 -12
-3 -14 -5 -1 -18 -19 -28 -38 -11 -19 -38 -48 -61 -64 -36 -26 -53 -30 -125
-34 -92 -5 -127 6 -127 39 0 25 32 60 68 74 21 9 34 9 59 -2 18 -7 41 -13 51
-13 18 0 107 59 197 131 69 55 155 88 155 60z m-4559 -466 c-7 -16 -33 -52
-57 -78 -24 -27 -57 -72 -74 -100 -17 -29 -48 -80 -69 -114 -22 -34 -42 -76
-46 -94 -4 -18 -13 -46 -20 -62 -12 -29 -13 -29 -19 -9 -4 13 -1 34 7 49 8 16
21 42 31 60 9 17 16 37 16 45 0 7 18 41 40 76 22 34 40 66 40 70 0 4 20 36 45
71 28 40 45 75 45 93 0 30 23 74 49 96 14 11 17 8 21 -30 4 -27 0 -54 -9 -73z
m2704 -535 c11 -27 23 -50 27 -50 4 0 8 -7 8 -16 0 -8 14 -27 30 -41 33 -28
41 -58 12 -51 -15 4 -17 0 -14 -30 6 -44 -17 -40 -32 6 -6 17 -21 39 -33 47
-16 11 -23 26 -23 49 0 26 -5 35 -22 40 -35 9 -74 7 -105 -6 -15 -6 -34 -12
-41 -14 -7 -1 -24 -10 -38 -19 -31 -20 -46 -11 -16 10 11 9 27 22 35 30 8 8
26 17 41 21 14 3 26 10 26 15 0 13 81 52 120 58 3 1 14 -21 25 -49z m-1897
-465 c-29 -30 -60 -55 -68 -55 -8 0 -33 -7 -55 -15 -47 -17 -140 -19 -181 -5
-17 6 -48 7 -74 2 -38 -7 -45 -11 -42 -29 2 -14 -5 -26 -18 -33 -27 -15 -40
-5 -40 31 0 28 -2 29 -36 27 -35 -2 -64 18 -76 54 -3 8 -14 5 -33 -10 -27 -21
-85 -31 -85 -13 0 4 9 20 21 35 22 27 56 34 89 16 13 -7 21 -7 25 0 9 14 69
12 83 -2 7 -7 63 -20 125 -28 162 -22 287 -2 287 46 0 19 35 33 88 33 l43 1
-53 -55z m-1299 -2818 c28 -37 51 -79 51 -92 0 -22 53 -112 87 -148 9 -10 28
-20 40 -23 13 -4 23 -12 23 -19 0 -7 10 -25 22 -40 11 -15 29 -61 39 -104 23
-96 23 -98 0 -77 -20 18 -46 74 -56 120 -8 36 -57 86 -85 86 -14 0 -24 9 -31
30 -6 17 -15 30 -19 30 -5 0 -16 21 -26 48 -10 26 -23 54 -31 63 -26 31 -77
145 -78 177 -2 38 -4 39 64 -51z m1841 -334 c-10 -27 -24 -68 -31 -93 -8 -25
-27 -58 -43 -75 -27 -27 -30 -36 -28 -85 3 -70 -4 -91 -26 -83 -25 10 -32 24
-32 68 0 42 36 143 62 173 9 9 21 33 27 52 7 20 28 47 48 63 20 15 37 27 39
27 1 0 -6 -21 -16 -47z m560 -263 c0 -11 -9 -24 -19 -29 -12 -7 -24 -31 -31
-63 -7 -29 -17 -59 -22 -65 -6 -7 -8 -19 -5 -26 9 -24 -73 -76 -151 -94 -12
-3 -36 -18 -53 -34 -16 -15 -40 -31 -52 -35 -12 -4 -39 -22 -60 -40 -20 -19
-41 -34 -45 -34 -9 0 -32 -44 -32 -60 0 -5 8 -16 18 -26 19 -20 22 -34 10 -51
-17 -22 3 -112 33 -146 29 -33 33 -50 34 -177 0 -26 10 -66 24 -95 62 -132 71
-153 71 -160 0 -16 33 -45 52 -45 18 0 36 -25 25 -36 -10 -10 -47 7 -47 21 0
9 -15 15 -42 17 -40 3 -44 6 -56 43 -7 22 -23 50 -34 62 -16 17 -23 42 -28 95
-4 40 -12 87 -18 103 -6 17 -20 67 -31 113 -22 90 -54 137 -100 144 -13 1 -27
10 -31 18 -26 57 -42 75 -67 83 -33 9 -131 -8 -188 -34 -55 -25 -88 -28 -93
-7 -5 27 42 63 113 84 16 5 35 20 41 33 14 27 74 52 104 44 13 -3 20 0 20 8 0
15 -20 50 -20 36 0 -4 -9 -3 -20 3 -15 8 -18 17 -14 43 8 50 25 119 36 150 19
50 78 27 78 -31 0 -10 11 -45 24 -78 28 -69 51 -78 119 -45 23 11 60 27 82 34
22 8 58 26 79 41 21 14 63 38 93 52 30 15 57 34 60 43 13 40 40 85 61 98 12 9
22 21 22 28 0 15 41 45 53 38 4 -2 7 -13 7 -23z m-568 -730 c-2 -7 -7 -45 -12
-84 -8 -62 -13 -74 -41 -98 -25 -21 -30 -32 -25 -51 3 -14 -1 -44 -9 -67 -11
-31 -13 -52 -6 -75 5 -18 5 -38 1 -45 -5 -8 -4 -24 1 -37 6 -16 5 -32 -2 -45
-11 -21 -12 -21 -26 6 -8 16 -12 37 -9 48 2 11 -2 31 -11 44 -15 23 -14 48 4
121 4 17 -3 25 -31 38 -20 10 -36 21 -36 25 0 15 27 30 61 34 33 3 34 5 37 50
3 41 1 47 -15 46 -31 -4 -36 0 -23 15 7 8 25 15 41 15 19 0 32 7 40 23 24 46
70 74 61 37z m4542 -1652 c13 -29 32 -75 41 -103 21 -67 44 -115 54 -115 13 0
61 -48 61 -60 0 -6 -7 -18 -15 -26 -12 -13 -19 -13 -47 -1 -39 16 -98 72 -98
93 0 8 -4 14 -9 14 -12 0 -21 39 -10 46 21 12 7 53 -30 90 -49 50 -61 91 -29
104 45 18 57 12 82 -42z m788 -205 c16 -20 11 -170 -6 -196 -15 -22 -15 -22
119 -66 74 -25 135 -48 135 -53 0 -4 7 -8 15 -8 8 0 23 -7 33 -16 9 -9 38 -29
65 -45 55 -33 60 -49 16 -49 -26 0 -29 -2 -19 -14 6 -8 19 -17 28 -19 20 -5
-13 1 -83 14 -27 5 -57 10 -65 11 -8 1 -21 10 -28 20 -9 13 -24 18 -47 16 -18
-1 -39 3 -47 9 -7 6 -38 18 -70 28 -66 19 -83 42 -38 52 42 8 37 20 -12 34
-24 6 -62 20 -86 31 -33 14 -55 17 -95 12 -69 -9 -97 -20 -97 -39 0 -9 -9 -25
-19 -37 -17 -17 -24 -19 -50 -10 -20 7 -31 7 -31 1 0 -6 -7 -6 -20 1 -10 6
-23 9 -27 8 -4 -1 -33 3 -63 10 -30 6 -71 13 -90 15 -19 2 3 4 50 4 62 0 94 4
119 18 l35 17 -48 18 c-26 10 -65 21 -86 25 -22 4 -38 11 -35 15 3 5 -16 11
-42 15 -65 8 -113 22 -165 46 l-43 20 80 -6 c44 -3 85 -11 91 -16 7 -5 36 -12
65 -16 30 -3 60 -11 68 -17 8 -6 82 -14 175 -18 89 -3 170 -9 182 -13 17 -5
27 4 57 52 20 32 37 64 37 70 0 7 4 13 8 13 4 0 7 30 5 68 -2 59 -1 63 9 37 6
-16 15 -35 20 -42z m-7652 -243 c0 -72 -4 -101 -14 -109 -8 -7 -26 -36 -41
-66 -14 -30 -30 -55 -35 -55 -19 0 -61 -52 -55 -69 7 -24 -18 -56 -39 -48 -25
10 -19 36 14 67 17 15 30 37 30 49 0 31 21 70 42 76 10 4 18 11 18 16 0 6 4 8
9 4 17 -10 23 34 15 125 -7 97 1 122 36 113 18 -5 20 -14 20 -103z m7610 -420
c0 -5 5 -10 12 -10 20 0 48 -32 48 -56 0 -32 21 -74 37 -74 9 0 13 14 13 44 0
49 24 83 37 51 3 -10 2 -35 -4 -56 -9 -34 -8 -38 15 -48 36 -17 50 0 45 52 -3
28 0 48 11 62 14 18 15 11 9 -86 -5 -98 -4 -108 16 -135 16 -22 23 -47 25 -96
2 -36 0 -72 -4 -79 -9 -14 27 -69 46 -69 19 0 94 -52 94 -66 0 -31 -63 -26
-80 7 -7 13 -21 19 -45 19 -19 0 -38 6 -42 14 -4 8 -20 17 -34 21 -23 6 -30 1
-49 -30 -23 -38 -30 -125 -12 -149 14 -18 89 -208 97 -246 4 -19 19 -43 32
-54 34 -26 13 -37 -47 -25 -25 5 -60 12 -77 15 -38 8 -43 21 -10 26 18 2 23
10 25 41 3 32 0 37 -17 37 -12 0 -21 4 -21 9 0 5 -14 14 -31 21 -39 16 -53 48
-31 73 14 16 13 19 -7 41 -15 16 -24 40 -26 71 -4 48 -27 109 -45 120 -23 14
-50 -6 -50 -36 0 -21 -10 -39 -32 -60 -38 -34 -68 -38 -68 -9 0 11 -4 20 -10
20 -13 0 -28 -32 -23 -50 13 -44 14 -45 22 -31 6 10 10 9 14 -3 5 -12 -1 -19
-17 -26 -13 -5 -26 -20 -30 -34 -9 -35 -46 -96 -58 -96 -6 0 -8 -12 -4 -30 3
-19 1 -30 -5 -30 -8 0 -8 -4 0 -14 9 -11 4 -21 -24 -50 -19 -20 -38 -36 -42
-37 -21 -2 -45 -8 -50 -12 -2 -3 2 -20 9 -38 15 -36 9 -110 -10 -117 -5 -1 -8
-20 -5 -40 5 -45 -27 -105 -52 -96 -17 7 -17 11 -6 147 5 67 12 102 22 108 12
7 11 13 -4 39 -21 34 -15 70 11 70 16 1 16 2 0 14 -10 7 -18 18 -18 24 0 6
-25 32 -55 57 -30 26 -55 53 -55 60 0 22 -46 95 -71 113 -13 9 -37 24 -54 33
-17 10 -31 26 -33 40 -2 13 -13 34 -23 48 -10 13 -19 29 -19 35 0 7 -15 16
-32 21 -41 12 -107 105 -100 140 8 46 -105 183 -141 169 -7 -2 -34 2 -59 11
-48 16 -92 9 -100 -16 -3 -8 -8 -8 -18 3 -8 7 -33 19 -55 26 -22 6 -58 21 -80
32 l-40 21 35 -7 c19 -3 37 -10 38 -15 2 -5 14 -9 26 -9 12 0 27 -5 33 -11 9
-9 21 -8 47 5 58 27 57 41 -4 49 -14 2 -39 11 -57 20 -18 9 -41 17 -52 17 -11
0 -23 5 -26 10 -3 6 -16 10 -28 10 -12 1 -33 7 -47 15 -24 14 -23 15 19 10 23
-3 46 -7 50 -10 4 -2 18 -6 32 -9 13 -3 62 -14 109 -25 47 -11 98 -21 113 -21
43 0 132 -28 158 -50 62 -51 78 -74 84 -124 12 -101 17 -126 25 -126 5 0 18
-20 30 -45 13 -26 46 -65 78 -92 32 -27 62 -54 68 -62 6 -8 16 -11 22 -7 7 4
12 3 12 -3 0 -6 11 -13 25 -17 20 -5 23 -9 14 -20 -13 -16 19 -74 54 -99 12
-9 43 -36 69 -61 79 -76 127 -72 154 14 10 31 23 66 30 77 7 11 15 44 19 72 4
29 11 56 16 59 5 3 7 27 3 54 -5 40 -3 53 17 79 13 18 24 42 24 54 0 13 12 29
32 42 40 25 49 51 47 144 -1 68 -3 75 -24 83 -13 5 -36 6 -52 3 -19 -5 -33 -1
-44 9 -14 15 -13 17 13 27 49 18 105 14 124 -10 l18 -22 17 26 c17 25 17 25
31 5 18 -25 48 -28 38 -2 -4 9 -9 33 -12 52 -3 19 -10 40 -14 46 -9 11 -2 24
13 24 4 0 8 -4 8 -10z m-1300 -360 c-1 -12 -28 -40 -39 -40 -15 0 -15 -120 0
-157 53 -132 78 -180 94 -187 25 -9 53 -7 73 5 13 8 27 7 54 -4 46 -19 85 -10
101 23 15 30 68 45 110 31 16 -6 40 -11 53 -11 31 0 39 -17 18 -41 -10 -11
-30 -19 -51 -19 -18 0 -33 -3 -33 -8 0 -6 -27 -17 -85 -36 -34 -11 -47 -23
-71 -70 l-26 -52 27 -48 27 -48 -21 -22 c-12 -12 -21 -32 -21 -44 0 -37 -15
-25 -40 31 -24 54 -56 97 -73 97 -6 0 -18 6 -26 14 -17 15 -115 50 -168 61
-18 4 -33 10 -33 14 0 11 42 32 68 34 27 2 31 13 33 97 2 49 -3 75 -20 107
-11 23 -21 52 -21 63 0 12 -13 55 -30 96 -24 62 -28 78 -18 99 10 22 16 24 64
22 30 -1 54 -4 54 -7z m-4550 -862 c0 -7 -14 -33 -30 -57 -17 -24 -30 -51 -31
-60 -2 -48 -10 -76 -32 -104 -13 -18 -36 -56 -52 -84 -15 -29 -32 -53 -37 -53
-11 0 -10 14 2 26 14 14 1 47 -16 40 -49 -20 -47 -21 -31 10 18 34 64 84 77
84 4 0 30 43 56 96 43 86 64 113 87 114 4 0 7 -6 7 -12z m3231 -731 c22 -19
159 -218 159 -231 0 -3 14 -28 30 -56 35 -60 41 -100 9 -60 -11 14 -28 34 -37
45 -10 11 -30 43 -46 70 -16 28 -52 84 -80 125 -54 81 -76 116 -76 125 0 10
16 4 41 -18z"/>
<path d="M10986 10657 c-3 -15 -13 -27 -22 -27 -17 0 -53 -73 -54 -107 0 -12
-13 -59 -29 -105 -16 -46 -34 -108 -41 -138 -14 -61 -67 -170 -90 -184 -8 -5
-25 -20 -38 -33 -12 -13 -27 -23 -33 -23 -6 0 -7 -4 -4 -10 3 -5 2 -10 -3 -10
-4 0 -18 -17 -29 -38 -12 -20 -33 -47 -48 -60 -27 -23 -69 -108 -60 -122 2 -4
15 -5 27 -3 25 5 66 63 93 131 10 23 20 42 24 42 4 0 8 6 9 13 3 41 19 70 33
62 5 -4 9 1 9 10 0 9 6 15 13 12 6 -2 10 -11 8 -18 -2 -8 -7 -28 -11 -45 -13
-54 -80 -184 -116 -223 -18 -21 -54 -46 -78 -55 -34 -13 -50 -27 -65 -57 -12
-22 -21 -48 -21 -57 0 -10 -5 -23 -11 -29 -8 -8 -7 -26 5 -67 11 -36 18 -108
20 -208 5 -189 19 -229 136 -390 38 -53 46 -56 93 -30 29 15 66 20 186 21 39
1 121 28 136 46 20 23 60 45 81 45 12 0 27 7 34 15 7 8 19 15 26 15 8 0 14 -7
14 -15 0 -8 9 -15 20 -15 11 0 20 5 20 10 0 6 5 10 12 10 9 0 9 -3 1 -11 -12
-12 -6 -49 8 -49 24 0 94 167 97 233 3 42 -9 28 -53 -67 -50 -109 -76 -118
-30 -11 29 68 40 133 38 223 -3 84 19 215 41 251 10 16 18 135 19 276 1 138 0
141 -31 207 -18 37 -32 74 -32 83 0 8 -4 15 -8 15 -4 0 -14 21 -20 48 -12 43
-48 130 -72 174 -6 10 -10 25 -10 33 0 8 -13 29 -30 47 -16 17 -30 36 -30 43
0 6 -13 24 -30 40 -16 16 -30 37 -30 46 0 10 -6 22 -13 26 -8 4 -19 17 -25 28
-8 15 -12 16 -12 5 -1 -10 -4 -9 -9 5 -7 17 -8 17 -15 -8z"/>
<path d="M11310 10238 c0 -20 10 -58 21 -85 39 -88 59 -190 61 -305 1 -76 -2
-112 -11 -117 -12 -8 -26 -83 -35 -198 -6 -78 -1 -103 20 -103 10 0 14 15 14
54 0 30 4 57 9 60 17 11 36 210 35 362 -1 93 -5 126 -18 145 -8 14 -24 50 -35
80 -10 29 -28 74 -40 99 l-21 45 0 -37z"/>
<path d="M12880 9286 c-25 -7 -56 -19 -69 -26 -31 -16 -81 -70 -81 -87 0 -7
-4 -13 -9 -13 -11 0 -27 -88 -18 -97 15 -14 117 46 117 68 0 4 -9 11 -20 14
-11 3 -20 11 -20 16 0 10 38 45 68 63 43 25 92 61 92 69 0 9 -4 8 -60 -7z"/>
<path d="M13085 9255 c-17 -21 -22 -22 -31 -10 -7 9 -25 13 -59 11 -39 -3 -55
-11 -92 -44 -49 -44 -49 -58 0 -67 25 -5 48 2 102 30 94 48 129 69 133 78 2 4
8 5 13 1 5 -3 9 2 9 10 0 26 -52 19 -75 -9z"/>
<path d="M11055 8834 c-33 -13 -76 -23 -96 -23 -28 -1 -38 -6 -47 -25 -6 -13
-35 -44 -65 -67 -31 -24 -58 -55 -62 -68 -8 -32 16 -57 63 -65 20 -3 55 -11
76 -17 50 -14 36 -23 -62 -39 -68 -11 -73 -14 -69 -34 3 -11 2 -30 -3 -41 -6
-17 -8 -16 -15 13 -4 18 -13 45 -20 59 -12 24 -14 22 -20 -41 -8 -74 -3 -211
8 -222 12 -13 18 2 32 78 14 76 19 61 15 -44 -1 -32 1 -58 4 -58 3 0 13 15 22
33 9 17 30 49 47 71 17 21 66 108 110 195 43 86 83 161 87 166 17 21 69 145
62 148 -4 3 -34 -6 -67 -19z"/>
<path d="M11323 8811 c-8 -31 -35 -35 -54 -9 -10 12 -19 21 -21 18 -19 -29
-40 -76 -58 -129 -20 -60 -20 -64 -3 -76 10 -7 15 -17 10 -21 -4 -4 -13 0 -20
10 -29 39 -95 -3 -69 -44 6 -11 12 -51 12 -91 0 -64 1 -69 16 -55 8 9 19 16
24 16 5 0 12 10 16 23 3 12 15 34 25 49 11 14 19 33 19 41 0 9 7 22 15 31 16
15 39 66 37 79 -1 4 3 7 8 7 6 0 10 7 10 16 0 14 27 71 40 84 3 3 10 20 17 38
9 27 9 32 -4 32 -8 0 -17 -9 -20 -19z"/>
<path d="M11975 8703 c-36 -9 -45 -24 -45 -78 0 -39 -4 -54 -16 -59 -28 -11
-36 -7 -28 16 4 13 7 36 8 53 2 45 -34 46 -68 2 -31 -41 -32 -53 -5 -67 26
-14 14 -31 -44 -59 -33 -17 -43 -28 -54 -63 -6 -23 -10 -45 -7 -49 7 -12 53
11 83 41 14 15 58 45 96 67 122 72 176 143 139 184 -17 19 -23 21 -59 12z"/>
<path d="M10239 8617 c-24 -13 -44 -28 -44 -33 1 -19 81 -179 106 -213 10 -12
21 -38 25 -57 3 -19 10 -37 15 -40 5 -3 9 -16 9 -29 0 -27 19 -74 37 -93 7 -7
13 -18 13 -23 0 -6 10 -9 23 -8 38 5 47 -8 47 -71 0 -56 2 -60 35 -86 21 -16
39 -23 44 -18 5 5 17 36 26 69 10 33 26 78 35 100 52 125 60 190 36 281 -8 31
-11 79 -8 127 6 104 4 110 -50 93 -47 -14 -168 -8 -243 13 -54 14 -56 14 -106
-12z"/>
<path d="M9922 8475 c-17 -8 -47 -25 -65 -38 -17 -13 -40 -27 -49 -30 -20 -7
-23 -27 -9 -42 6 -6 17 -27 26 -48 13 -32 13 -38 1 -43 -8 -3 -23 3 -34 14
-15 15 -33 20 -66 20 -41 -1 -46 -4 -46 -24 0 -42 21 -78 84 -146 40 -45 107
-56 196 -33 49 13 72 26 116 68 55 51 55 53 49 97 -16 113 -50 173 -106 185
-15 4 -33 13 -40 21 -14 17 -15 17 -57 -1z"/>
<path d="M10962 8420 c-12 -16 -22 -32 -22 -34 0 -3 -15 -29 -33 -58 -18 -29
-40 -69 -47 -88 -8 -19 -18 -38 -23 -41 -5 -4 -7 -15 -5 -25 3 -15 10 -11 36
25 31 43 37 43 44 -3 2 -14 10 -6 28 30 14 27 31 55 37 62 7 7 13 16 14 20 4
52 4 142 -1 142 -3 0 -16 -13 -28 -30z"/>
<path d="M10183 8064 c-8 -23 4 -114 19 -131 8 -10 13 -62 15 -151 2 -75 8
-141 14 -148 16 -19 37 -6 44 27 4 16 13 29 20 29 11 0 46 50 80 115 6 11 19
24 30 30 45 23 45 24 14 76 -31 50 -60 74 -82 66 -16 -6 -49 12 -43 22 6 9
-35 47 -72 69 -28 16 -31 15 -39 -4z"/>
<path d="M2714 7922 c4 -6 -5 -19 -19 -28 -14 -9 -25 -21 -25 -26 0 -26 234
-98 319 -98 l46 0 -40 27 c-115 79 -203 126 -244 131 -31 3 -42 2 -37 -6z"/>
<path d="M3737 7716 c-10 -11 -17 -33 -17 -56 0 -33 5 -42 29 -54 15 -8 40
-17 53 -20 14 -2 39 -11 55 -20 27 -13 32 -13 51 0 19 13 22 13 32 -6 14 -26
121 -80 158 -80 15 0 32 -4 38 -9 23 -21 168 -93 235 -116 124 -43 143 -46
239 -49 27 -1 37 4 45 21 9 22 98 68 124 64 24 -4 41 8 34 25 -4 12 -14 14
-35 10 -20 -4 -34 0 -48 14 -22 22 -56 31 -53 13 2 -7 -3 -13 -11 -13 -8 0
-16 -5 -18 -12 -7 -20 -118 11 -153 42 -16 15 -56 37 -88 49 -32 12 -86 34
-120 50 -34 16 -73 32 -87 36 -14 4 -32 13 -40 20 -8 7 -53 24 -100 39 -47 15
-92 31 -101 36 -22 12 -38 8 -80 -18 -49 -30 -59 -28 -94 14 -29 34 -32 36
-48 20z"/>
<path d="M10308 7637 c-23 -47 -32 -88 -44 -197 -5 -43 15 -132 27 -124 12 7
11 101 -1 124 -8 16 -4 23 23 44 19 15 40 26 48 26 8 0 20 15 27 33 8 17 19
43 25 56 9 19 9 25 0 28 -7 3 -13 12 -14 21 0 10 -5 5 -11 -10 -6 -18 -17 -28
-30 -28 -17 0 -19 5 -15 35 7 53 -6 50 -35 -8z"/>
<path d="M3785 7420 c3 -5 10 -10 16 -10 5 0 28 -13 51 -30 22 -16 46 -30 53
-30 19 0 70 -63 89 -110 37 -92 44 -99 81 -90 13 3 95 1 116 -3 10 -2 23 -7
30 -13 8 -6 33 -18 57 -29 23 -10 42 -21 42 -25 0 -19 134 -92 183 -100 29 -5
70 -13 92 -19 22 -6 65 -11 95 -11 76 0 146 -21 203 -59 26 -18 47 -36 47 -39
0 -4 18 -18 40 -32 22 -14 40 -30 40 -37 0 -7 6 -16 13 -20 7 -4 28 -30 46
-56 78 -115 147 -159 276 -176 50 -7 120 -11 155 -10 36 1 77 -2 93 -6 17 -5
27 -3 27 4 0 6 8 11 17 11 12 0 -2 20 -45 62 -34 33 -62 65 -62 70 0 5 7 20
17 34 l16 25 27 -29 c14 -16 39 -38 56 -48 16 -10 60 -43 98 -71 37 -29 73
-53 78 -53 6 0 37 -18 69 -40 32 -22 67 -40 78 -40 11 0 21 -4 23 -9 2 -6 16
-12 31 -15 36 -6 99 -45 92 -56 -11 -18 38 -31 101 -27 36 2 67 7 71 10 3 4 0
27 -6 53 -8 31 -9 50 -2 58 8 9 2 19 -19 34 -16 12 -32 22 -36 22 -4 0 -46 14
-93 32 -47 17 -131 44 -186 58 -125 34 -228 71 -238 87 -4 7 -24 15 -45 18
-20 4 -46 10 -57 15 -11 5 -36 12 -55 16 -49 11 -49 11 -112 27 -31 9 -65 20
-76 26 -10 5 -30 12 -43 15 -54 10 -185 60 -202 77 -10 11 -22 19 -28 19 -16
0 -78 50 -84 68 -12 36 -90 78 -195 107 -110 31 -112 31 -147 33 -15 1 -21 7
-17 16 7 17 -97 58 -206 82 -41 9 -84 22 -96 29 -11 7 -43 20 -70 28 -28 8
-72 24 -100 35 -27 11 -89 32 -139 47 -49 15 -123 40 -162 56 -75 30 -109 36
-98 19z"/>
<path d="M5985 7295 c-38 -14 -92 -27 -120 -31 -27 -3 -55 -10 -61 -15 -6 -5
-11 -33 -11 -62 0 -29 -5 -62 -10 -72 -12 -23 -7 -45 10 -45 7 0 12 -12 13
-28 1 -25 -2 -27 -35 -27 -28 0 -36 -4 -39 -20 -7 -38 -54 -125 -68 -125 -23
0 -16 -17 18 -41 19 -14 51 -24 83 -27 49 -4 55 -2 89 31 30 30 36 42 36 78 0
59 20 38 35 -38 11 -53 10 -58 -6 -61 -10 -2 -23 -10 -29 -18 -7 -8 -19 -14
-26 -14 -29 0 -2 -50 28 -50 7 0 47 -12 88 -25 41 -14 85 -25 98 -25 12 0 80
-22 149 -50 69 -27 137 -50 149 -50 13 0 24 -4 24 -9 0 -5 15 -12 34 -15 19
-4 48 -14 66 -23 25 -12 40 -13 65 -6 27 9 34 7 44 -8 6 -11 17 -19 25 -19 7
0 26 -11 41 -24 44 -38 195 -89 195 -66 0 5 7 10 15 10 8 0 15 5 15 12 0 6 -3
8 -7 5 -3 -4 -13 -1 -21 6 -13 9 -14 9 -8 0 5 -9 1 -13 -13 -13 -19 0 -34 14
-37 35 -7 52 -38 74 -89 61 -32 -8 -57 13 -44 37 5 8 34 21 64 28 45 10 57 17
61 36 4 12 10 23 14 23 20 0 -1 38 -53 99 -51 60 -89 88 -140 105 -11 3 -21
15 -24 26 -5 17 -23 26 -37 18 -2 -2 -12 4 -22 13 -26 23 -92 59 -108 59 -8 0
-19 20 -25 47 -7 26 -23 57 -36 69 -16 14 -22 29 -18 42 3 11 0 36 -7 56 -12
39 -81 106 -108 106 -9 0 -30 7 -46 15 -41 22 -130 17 -211 -10z"/>
<path d="M5219 7133 c-38 -6 -80 -83 -59 -108 15 -18 82 -55 111 -60 10 -2 33
-10 51 -19 37 -16 154 -46 183 -46 10 0 27 -7 37 -17 15 -13 18 -13 18 -2 0 8
12 26 28 39 15 14 32 36 38 50 6 14 17 37 24 52 14 30 8 55 -16 65 -22 8 -184
-17 -184 -29 0 -6 -20 -30 -44 -55 -35 -35 -50 -44 -73 -41 -17 2 -28 9 -28
18 0 8 -3 17 -7 20 -4 3 -18 30 -32 60 -24 51 -25 56 -9 68 18 13 15 13 -38 5z"/>
<path d="M6382 6398 c-3 -38 29 -102 56 -113 7 -2 46 0 87 6 92 14 161 5 175
-22 6 -10 17 -19 25 -19 18 0 14 46 -6 64 -16 15 -191 86 -213 86 -7 0 -19 6
-25 14 -7 8 -31 16 -54 18 l-42 3 -3 -37z"/>
<path d="M10443 5132 c4 -14 -44 -57 -76 -68 -26 -9 -32 -16 -32 -39 0 -20 6
-29 19 -31 10 -1 34 -18 53 -36 31 -30 35 -31 44 -15 11 18 44 23 54 7 8 -13
54 37 61 66 8 31 -23 74 -58 81 -16 3 -35 14 -41 24 -12 19 -29 27 -24 11z"/>
<path d="M10574 4929 c-3 -6 -17 -8 -31 -4 -24 6 -25 4 -21 -30 3 -29 1 -35
-15 -35 -15 0 -17 3 -8 13 6 8 8 17 4 20 -12 12 -22 7 -28 -14 -5 -15 -13 -19
-27 -16 -22 6 -78 -11 -78 -23 0 -5 28 -10 63 -12 47 -4 68 -1 87 12 14 10 36
21 49 25 20 6 23 4 18 -10 -4 -9 -7 -29 -8 -43 0 -15 -3 -21 -6 -14 -6 15 -23
16 -23 2 0 -12 27 -24 78 -35 17 -3 32 -3 32 2 0 5 -15 13 -32 18 -18 6 -33
15 -33 20 0 14 80 18 105 5 16 -8 20 -8 20 4 0 7 -11 17 -25 20 -13 3 -40 16
-60 27 -27 16 -35 27 -35 50 0 29 -13 38 -26 18z"/>
<path d="M9088 4758 c-3 -48 -5 -52 -40 -71 -37 -18 -50 -37 -26 -37 6 0 8 -3
5 -7 -4 -4 -23 9 -42 27 -32 31 -37 33 -51 19 -8 -9 -16 -25 -17 -37 -1 -12
-7 -22 -14 -22 -17 0 -16 -15 2 -30 8 -7 15 -18 15 -25 0 -18 28 -27 50 -15
23 12 100 13 100 2 0 -7 43 -32 55 -32 2 0 6 17 10 38 3 21 15 45 26 52 10 8
19 22 19 32 0 10 5 18 10 18 7 0 7 6 1 19 -8 14 -7 20 4 25 24 9 -2 56 -31 56
-13 0 -26 4 -29 10 -3 5 -15 14 -25 20 -17 9 -19 6 -22 -42z"/>
<path d="M11895 4760 c-3 -5 -17 -10 -30 -10 -13 0 -25 -4 -27 -9 -3 -10 -19
-14 -128 -32 -35 -5 -61 -16 -72 -29 -9 -11 -24 -20 -33 -20 -29 0 1 -28 38
-36 18 -3 37 -10 43 -15 17 -14 127 -39 145 -34 10 3 36 -7 61 -24 24 -16 87
-44 139 -60 52 -17 112 -40 134 -51 21 -11 49 -20 61 -20 12 0 37 -11 57 -25
20 -13 54 -25 74 -27 37 -3 38 -2 35 27 -2 17 -11 39 -20 49 -21 23 -89 55
-119 56 -22 0 -63 53 -63 82 0 22 -23 39 -57 41 -29 3 -45 -7 -56 -33 -4 -8
-5 8 -4 36 4 48 2 53 -25 69 -16 9 -41 15 -57 13 -35 -3 -84 21 -77 39 6 15
-10 27 -19 13z"/>
<path d="M11250 4675 c0 -12 -7 -15 -32 -10 -71 12 -134 13 -148 4 -9 -6 -11
-12 -5 -15 17 -7 72 -38 129 -72 43 -26 64 -32 93 -30 l38 4 -27 12 c-30 12
-35 31 -16 50 9 9 9 15 0 24 -7 7 -12 20 -12 30 0 10 -4 18 -10 18 -5 0 -10
-7 -10 -15z"/>
<path d="M14377 4657 c-9 -15 -23 -27 -30 -27 -20 0 -87 -70 -87 -91 0 -10
-16 -43 -35 -73 -47 -74 -45 -92 8 -65 63 33 105 79 127 141 13 35 27 68 32
75 5 6 8 24 6 40 l-3 27 -18 -27z"/>
<path d="M11617 4473 c-16 -15 -5 -41 32 -77 22 -22 49 -60 61 -85 27 -61 121
-193 146 -206 11 -5 33 -19 49 -30 52 -36 169 -77 295 -104 l75 -17 25 27 c33
36 70 38 70 5 0 -14 4 -27 10 -31 5 -3 7 -11 4 -18 -5 -14 97 -47 148 -47 18
0 69 -7 112 -14 43 -8 85 -12 92 -9 7 3 53 6 101 8 127 6 253 20 293 33 19 6
49 15 65 20 25 8 30 13 27 38 -2 17 -18 41 -40 61 l-37 33 23 17 24 16 -59 28
c-32 16 -67 28 -77 29 -18 0 -18 -1 -2 -19 10 -11 23 -17 30 -15 7 3 19 -3 27
-12 11 -14 11 -18 -6 -30 -15 -12 -17 -18 -7 -39 10 -21 9 -25 -6 -25 -27 0
-101 25 -176 59 -38 17 -79 31 -92 31 -12 0 -43 9 -69 20 -26 11 -56 20 -66
20 -11 0 -32 6 -47 14 -15 8 -52 17 -82 20 -119 14 -149 24 -225 71 -52 32
-84 44 -195 71 -97 23 -181 53 -210 74 -42 30 -127 60 -169 60 -21 0 -58 7
-81 15 -48 17 -54 18 -63 8z"/>
<path d="M8442 3748 c-33 -65 -64 -114 -78 -125 -14 -10 -14 -14 2 -39 10 -14
33 -33 51 -40 18 -8 33 -19 33 -24 0 -6 4 -10 9 -10 4 0 6 11 3 25 -3 17 4 38
22 63 28 42 32 63 15 90 -8 13 -20 17 -36 14 -23 -4 -24 -3 -14 16 6 12 16 24
21 27 11 7 4 25 -9 25 -4 0 -13 -10 -19 -22z"/>
<path d="M14226 3722 c-28 -7 -28 -7 -10 -30 23 -27 95 -55 109 -41 5 5 13 9
19 9 5 0 6 -3 3 -6 -9 -9 53 -70 78 -77 11 -3 31 -8 45 -11 14 -2 38 -9 53
-15 49 -19 64 -14 77 24 11 34 6 75 -9 75 -4 0 -18 9 -31 20 -13 11 -29 20
-37 20 -8 0 -26 6 -41 14 -30 15 -212 28 -256 18z"/>
<path d="M8245 3528 c-14 -29 -32 -58 -40 -64 -7 -5 -15 -25 -17 -44 -2 -26
-9 -36 -26 -40 -12 -3 -28 -14 -35 -26 -7 -11 -22 -35 -33 -53 -32 -48 -41
-163 -17 -208 10 -19 25 -33 36 -33 56 0 192 204 167 250 -6 12 -9 29 -7 38 4
16 5 16 6 0 0 -10 5 -18 10 -18 14 0 21 28 8 34 -7 2 -4 5 6 5 9 1 17 9 17 19
0 9 9 23 20 30 14 9 20 23 20 51 0 22 -4 43 -10 46 -5 3 -10 13 -10 22 0 19
-28 42 -52 43 -11 0 -27 -20 -43 -52z"/>
<path d="M7972 2608 c-8 -8 -9 -15 -1 -25 11 -13 10 -14 -13 -17 -11 -1 -29
-52 -29 -86 0 -37 -11 -59 -29 -65 -11 -4 -20 -12 -18 -18 4 -22 -13 -57 -28
-57 -8 0 -14 6 -15 13 0 6 -7 -3 -15 -20 -8 -18 -18 -33 -23 -33 -6 0 -25 -24
-44 -52 -71 -112 -87 -138 -87 -143 0 -3 -8 -24 -19 -48 -10 -23 -27 -69 -37
-102 -10 -33 -22 -64 -26 -69 -4 -6 -8 -17 -8 -26 0 -8 -12 -33 -26 -54 -15
-21 -35 -74 -45 -117 -19 -77 -53 -149 -70 -149 -4 0 -29 -44 -54 -97 -25 -54
-49 -105 -55 -113 -29 -44 -60 -112 -60 -132 0 -13 -7 -57 -16 -98 -8 -41 -16
-131 -17 -200 -2 -111 1 -136 27 -225 16 -55 35 -112 42 -127 8 -15 19 -73 25
-130 7 -66 17 -109 27 -121 8 -9 40 -24 69 -33 33 -10 60 -25 71 -40 9 -14 34
-43 55 -65 34 -37 43 -70 14 -52 -19 11 -69 55 -99 87 -16 15 -28 22 -28 15 0
-9 -4 -8 -12 3 -7 8 -23 18 -35 21 -21 5 -23 2 -23 -37 0 -24 -3 -77 -6 -119
l-7 -77 762 0 761 0 0 25 c0 32 -26 85 -43 86 -6 1 -21 1 -32 0 -32 -3 -166
34 -208 57 -27 14 -49 18 -76 15 -48 -7 -67 14 -21 23 39 8 41 12 25 56 -10
29 -10 40 -1 48 17 14 66 6 114 -19 23 -12 48 -21 57 -21 9 0 34 -9 56 -21 33
-16 38 -23 29 -34 -10 -12 -17 -12 -48 1 -89 39 -132 42 -132 11 0 -32 165
-70 177 -41 3 8 16 14 30 14 l25 0 -31 35 c-17 20 -31 39 -31 44 0 4 -8 18
-17 29 -10 12 -34 43 -53 68 -41 54 -73 77 -236 174 -33 18 -65 40 -72 47 -7
7 -22 13 -33 13 -10 0 -36 16 -56 35 -20 19 -44 35 -53 35 -9 0 -34 13 -56 29
-21 16 -54 32 -71 36 -19 4 -33 13 -33 21 0 24 -1 29 -12 42 -6 6 -19 12 -30
12 -23 0 -78 30 -78 43 0 4 28 5 63 1 57 -6 66 -11 108 -53 60 -61 113 -98
152 -107 18 -3 44 -15 60 -26 15 -11 27 -16 28 -11 4 41 12 69 22 75 23 14 37
8 38 -17 1 -14 2 -38 3 -55 0 -16 9 -37 18 -47 17 -16 18 -14 17 34 -1 28 1
55 5 61 7 12 -41 45 -71 48 -39 4 -137 77 -160 119 -28 53 -28 61 1 41 43 -27
40 1 -6 61 -53 70 -76 82 -53 27 32 -74 32 -71 5 -53 -22 15 -77 92 -79 112
-1 4 8 7 19 7 15 0 19 6 18 25 -1 14 -8 25 -15 25 -7 0 -12 3 -12 8 3 12 -25
72 -33 72 -12 0 -10 -28 2 -35 6 -3 10 -13 10 -21 0 -23 -37 -8 -71 30 -16 17
-29 41 -29 54 0 12 -4 22 -9 22 -5 0 -14 15 -21 33 -15 42 -23 167 -10 167 6
0 10 -9 10 -20 0 -11 5 -20 11 -20 5 0 8 4 5 8 -3 5 1 20 8 34 12 23 11 30 -5
54 -15 24 -19 26 -25 11 -8 -23 -17 -21 -29 6 -9 20 -16 22 -65 19 -47 -3 -60
-9 -90 -38 -40 -38 -50 -42 -50 -19 0 9 13 24 30 33 16 9 32 27 35 39 5 20 11
22 58 20 l52 -2 -3 118 c-2 67 3 180 13 265 15 132 24 181 55 302 5 19 12 60
16 90 3 30 13 72 20 93 13 35 20 190 7 160 -3 -9 -10 -10 -22 -3 -12 6 -22 5
-29 -2z"/>
<path d="M7188 1169 c-10 -5 -28 -31 -40 -57 -18 -39 -21 -62 -19 -132 2 -52
9 -96 18 -115 9 -16 17 -49 18 -73 1 -25 8 -48 16 -53 20 -13 29 -11 29 6 0 8
-4 15 -8 15 -13 0 -2 271 12 299 12 26 10 121 -3 121 -3 0 -14 -5 -23 -11z"/>
<path d="M7025 1017 c-54 -32 -49 -79 18 -174 29 -40 56 -73 61 -73 5 0 5 19
1 43 -3 23 -11 69 -15 101 -5 32 -14 64 -19 69 -6 6 -11 19 -11 29 0 21 -7 22
-35 5z"/>
</g>
</svg>
