<?xml version="1.0" standalone="no"?>
<!DOCTYPE svg PUBLIC "-//W3C//DTD SVG 20010904//EN"
 "http://www.w3.org/TR/2001/REC-SVG-20010904/DTD/svg10.dtd">
<svg version="1.0" xmlns="http://www.w3.org/2000/svg"
 width="1920.000000pt" height="1080.000000pt" viewBox="0 0 1920.000000 1080.000000"
 preserveAspectRatio="xMidYMid meet">
<metadata>
Created by potrace 1.16, written by Peter Selinger 2001-2019
</metadata>
<g transform="translate(0.000000,1080.000000) scale(0.100000,-0.100000)"
fill="#000000" stroke="none">
<path d="M0 10140 l0 -659 43 -11 c23 -7 61 -18 85 -26 23 -8 49 -14 56 -14 8
0 47 -14 87 -30 86 -36 210 -80 256 -90 36 -9 53 3 53 38 0 42 41 94 90 113
17 7 119 -38 150 -66 31 -28 33 -82 5 -123 -33 -49 -36 -132 -5 -132 11 0 23
-7 26 -15 4 -8 14 -15 23 -15 10 0 23 -10 28 -23 6 -13 18 -24 26 -24 17 0 73
-42 81 -60 8 -19 -86 -4 -100 16 -11 14 -15 14 -40 1 -41 -22 -61 -45 -72 -82
-6 -18 -13 -41 -17 -50 -9 -22 60 -88 91 -88 12 0 27 -6 33 -14 17 -21 117
-32 146 -16 15 8 40 10 71 6 27 -4 83 -9 124 -12 41 -3 83 -12 94 -19 15 -11
23 -12 40 -2 14 8 76 12 176 13 94 1 173 7 200 14 29 9 106 14 216 14 188 0
199 -2 299 -72 74 -51 85 -63 85 -87 0 -22 37 -55 60 -55 12 0 -8 39 -30 57
-12 10 -5 12 40 12 54 -1 170 31 235 65 17 9 37 16 45 16 8 0 26 9 40 20 14
11 31 20 38 20 6 0 12 4 12 9 0 9 39 20 100 27 19 3 51 9 70 14 19 6 56 10 81
10 47 0 88 10 147 37 18 8 42 16 53 18 12 2 27 9 34 15 8 7 52 10 113 8 73 -2
104 1 116 11 17 14 111 18 173 7 118 -21 343 -179 403 -283 8 -14 22 -34 30
-43 38 -42 110 -135 126 -162 15 -27 104 -122 319 -340 191 -193 231 -230 256
-236 8 -2 21 -10 30 -18 8 -8 21 -14 27 -14 6 0 30 -15 54 -32 40 -31 61 -42
128 -72 14 -6 41 -20 60 -31 19 -12 51 -27 70 -34 19 -7 44 -17 55 -21 11 -5
65 -23 120 -41 105 -34 405 -174 405 -189 0 -3 23 -18 51 -35 58 -34 139 -111
139 -132 0 -10 5 -11 18 -4 13 7 43 6 94 -3 70 -12 80 -17 121 -60 31 -31 53
-46 71 -46 23 0 26 4 24 31 -2 21 3 34 15 41 14 7 17 17 12 39 -4 19 -1 36 9
51 9 12 16 32 16 45 0 12 4 24 9 27 4 3 11 20 14 38 3 18 13 65 22 103 9 39
20 113 25 165 9 91 20 185 41 335 6 39 10 87 9 107 0 20 7 65 16 100 17 65 19
161 8 423 -7 195 -8 377 0 428 8 64 73 284 106 362 5 11 11 67 15 125 8 149
10 167 23 182 11 14 44 267 36 280 -3 5 1 8 8 8 8 0 15 -13 16 -31 1 -17 9
-41 18 -54 17 -26 12 -63 -17 -110 -21 -35 -26 -95 -15 -181 7 -58 6 -62 -21
-90 -22 -22 -29 -39 -30 -71 -1 -23 -7 -51 -12 -62 -6 -11 -11 -36 -11 -55 0
-20 -6 -38 -15 -43 -22 -13 -7 -50 23 -58 63 -16 66 -41 17 -143 -23 -48 -39
-71 -46 -66 -7 4 -9 3 -5 -4 3 -6 -3 -17 -14 -25 -11 -8 -20 -25 -20 -38 0
-13 -2 -51 -6 -84 -5 -53 -4 -62 15 -79 25 -23 29 -87 6 -110 -22 -22 -10 -87
17 -94 17 -4 19 -11 14 -40 -3 -20 -10 -38 -15 -41 -5 -4 -9 -67 -9 -146 1
-96 -6 -179 -20 -265 -11 -69 -20 -132 -20 -140 -1 -8 -6 -51 -12 -95 -11 -77
-10 -80 12 -97 13 -10 17 -18 11 -18 -16 0 -43 -52 -43 -82 0 -55 21 -99 51
-110 35 -12 33 -32 -4 -36 -30 -4 -33 -11 -42 -113 l-6 -77 29 -13 c34 -15 53
-70 22 -62 -24 6 -38 -34 -33 -97 4 -46 1 -59 -16 -77 -12 -12 -21 -26 -21
-32 0 -5 -7 -11 -15 -15 -23 -8 -18 -40 9 -52 31 -14 196 -19 196 -5 0 5 24
26 54 46 97 64 112 112 42 139 -34 13 -46 24 -51 44 -4 20 -11 27 -30 27 -14
0 -25 -3 -25 -7 0 -5 7 -8 15 -8 9 0 15 -9 15 -25 0 -16 -6 -25 -15 -25 -8 0
-15 -6 -15 -12 -1 -7 -14 3 -30 22 -35 40 -40 75 -11 67 10 -2 25 0 34 4 14 8
14 13 -3 51 -10 24 -24 44 -29 46 -23 8 -10 28 19 30 24 2 34 -4 52 -33 19
-28 73 -67 98 -70 3 0 11 -4 18 -8 18 -12 15 28 -4 44 -17 14 -12 68 8 80 8 5
2 18 -16 40 -17 19 -24 35 -17 37 6 2 11 9 11 16 0 7 9 32 21 56 28 58 46 249
27 282 -7 13 -13 48 -14 78 -2 82 -28 188 -54 215 -20 21 -22 31 -16 71 3 26
11 53 18 61 12 15 13 75 2 323 -4 91 -8 193 -8 228 -1 34 -4 62 -8 62 -15 0
-8 21 10 27 29 11 32 24 32 148 0 125 5 178 21 208 24 43 39 4 33 -83 -8 -121
-4 -762 6 -803 5 -24 12 -93 15 -153 3 -60 13 -152 20 -204 21 -133 35 -289
35 -374 0 -90 24 -186 50 -205 13 -8 20 -25 20 -45 0 -68 54 -193 136 -317 24
-37 51 -69 59 -73 8 -3 15 -13 15 -21 0 -9 4 -13 10 -10 5 3 10 -3 10 -15 0
-23 81 -110 103 -110 7 0 36 -20 65 -44 28 -24 55 -46 60 -48 4 -1 24 -25 44
-51 42 -56 170 -155 210 -164 26 -5 55 -51 87 -135 6 -16 18 -28 27 -28 10 0
26 -8 37 -17 17 -16 42 -18 216 -17 124 0 212 5 239 13 24 7 65 12 92 13 42 0
148 26 112 28 -10 0 -10 4 0 22 19 33 50 57 75 58 12 0 23 5 25 10 2 6 13 12
26 13 12 0 24 9 27 18 3 9 18 22 33 28 15 6 35 25 45 42 14 25 22 30 41 25 16
-4 26 -1 30 9 3 8 10 15 16 15 6 0 9 -4 5 -9 -3 -6 3 -10 12 -10 23 1 74 -10
87 -19 12 -7 55 -4 71 6 8 5 42 12 73 14 8 1 21 16 29 33 8 18 27 39 42 48 14
8 59 46 98 84 51 49 75 79 79 102 5 23 9 29 15 19 6 -9 9 -6 9 10 0 16 -8 26
-29 33 -41 14 -57 50 -41 88 7 17 20 33 30 36 11 3 24 21 30 40 7 22 19 35 35
39 21 5 55 54 55 79 0 6 7 18 16 28 10 11 16 42 19 90 2 41 7 106 10 145 9 85
-9 134 -50 134 -34 0 -69 38 -53 59 21 28 52 51 70 51 10 0 22 8 27 18 11 20
11 20 16 135 2 43 8 83 13 90 6 7 11 113 13 262 2 200 -1 266 -14 329 -9 44
-21 84 -27 90 -7 7 -22 6 -47 -3 -35 -13 -38 -12 -60 13 -13 15 -23 34 -23 42
0 34 -44 -3 -53 -46 -3 -14 -17 -65 -31 -115 -14 -49 -26 -104 -26 -122 0 -48
-28 -163 -51 -210 -11 -23 -33 -53 -49 -66 -19 -16 -31 -38 -35 -63 -3 -22
-12 -55 -20 -74 -8 -19 -16 -51 -19 -71 -8 -48 -32 -68 -154 -132 -64 -33
-111 -65 -126 -85 -12 -17 -53 -55 -89 -83 -37 -28 -67 -58 -67 -65 0 -18 -44
-28 -67 -16 -13 8 -27 6 -53 -8 -19 -10 -77 -31 -129 -47 -86 -25 -99 -32
-175 -100 -44 -40 -100 -96 -124 -125 -58 -72 -56 -70 -88 -93 -15 -11 -39
-33 -53 -49 -58 -65 -66 -69 -76 -36 -8 24 2 60 17 60 13 0 47 41 48 58 0 19
205 217 280 271 36 26 81 53 100 61 19 8 44 22 54 32 11 10 24 18 29 18 5 0
21 8 35 19 15 10 64 30 109 45 66 21 91 35 127 71 25 24 57 47 73 51 44 11
173 100 197 135 121 186 170 315 180 479 8 137 26 210 64 257 18 23 32 46 32
52 0 33 48 112 98 161 30 30 63 73 73 96 10 22 30 47 44 54 34 18 69 66 61 85
-6 17 12 31 35 27 15 -3 27 7 99 82 19 20 40 36 47 36 31 0 44 85 21 135 -14
30 -43 39 -100 31 -94 -14 -103 -13 -106 14 -2 14 -11 31 -20 38 -32 25 -179
9 -183 -20 -1 -4 -2 -13 -3 -19 -4 -42 -105 -34 -155 11 -19 18 -43 30 -59 30
-15 0 -44 3 -64 6 -30 5 -38 3 -38 -8 0 -9 -18 -28 -40 -43 -22 -15 -53 -48
-69 -74 -48 -77 -84 -113 -103 -106 -20 8 -23 37 -8 66 14 26 127 139 167 167
44 31 52 60 22 83 -13 9 -27 15 -31 13 -4 -3 -17 9 -29 26 -13 16 -31 30 -40
30 -19 0 -150 65 -159 79 -3 5 -29 16 -58 25 -30 8 -69 25 -87 36 -18 11 -53
23 -79 26 -26 4 -49 11 -52 15 -3 5 -14 9 -25 9 -10 0 -19 4 -19 8 0 9 -21 13
-60 12 -49 -3 -66 -3 -118 1 -30 2 -56 -1 -60 -7 -14 -21 -45 -24 -134 -14
-84 10 -91 9 -119 -11 -23 -16 -39 -20 -62 -15 -95 18 -117 24 -131 39 -9 9
-38 19 -64 23 -26 4 -57 15 -70 24 -19 15 -64 30 -133 44 -8 2 -21 5 -29 8
-21 7 -127 29 -170 35 -49 7 -138 52 -145 73 -4 13 -23 21 -66 29 -51 9 -63 8
-79 -6 -13 -11 -34 -16 -62 -15 -30 2 -58 -5 -90 -22 -56 -28 -99 -24 -104 11
-4 24 28 53 58 53 10 0 27 13 39 29 19 26 24 28 36 15 29 -29 48 -16 44 28 -1
9 5 31 14 49 9 17 15 40 12 50 -3 11 -1 19 4 19 14 0 39 -64 39 -98 0 -15 6
-35 13 -43 10 -13 95 -43 253 -90 17 -5 46 -9 65 -9 19 0 51 -8 71 -19 20 -10
52 -21 70 -25 38 -7 116 -36 201 -74 56 -25 58 -26 175 -15 64 7 125 14 134
18 11 4 23 -1 35 -14 25 -30 81 -28 112 5 26 27 47 27 104 -1 25 -12 32 -12
51 0 20 13 33 13 122 -6 93 -19 130 -29 179 -49 11 -5 45 -18 76 -29 31 -11
85 -33 121 -50 36 -17 73 -31 83 -31 10 0 33 -16 51 -35 25 -28 39 -35 68 -35
25 0 45 -9 68 -29 18 -16 51 -34 73 -40 22 -6 47 -21 56 -33 16 -21 19 -21 74
-8 46 11 68 11 114 2 86 -18 157 4 199 61 15 19 52 23 69 6 6 -6 33 -12 61
-12 37 -1 54 4 72 21 17 16 36 22 66 22 43 0 64 13 43 25 -17 11 -28 49 -17
63 6 7 35 12 73 12 54 0 63 -3 68 -20 9 -33 68 -27 95 10 17 22 31 30 55 30
38 0 44 4 80 53 51 68 66 149 62 346 l-4 174 30 55 c36 67 37 105 3 168 -24
45 -25 52 -14 107 6 31 8 67 5 77 -6 20 -25 20 -1791 20 l-1784 0 13 -32 c13
-31 17 -33 63 -33 27 0 55 -4 62 -8 17 -11 15 -53 -4 -82 -15 -23 -14 -27 13
-77 19 -36 34 -52 45 -50 12 2 20 -8 27 -35 14 -48 14 -83 1 -83 -5 0 -10 5
-10 11 0 6 -9 21 -19 33 -67 73 -81 93 -81 116 -1 24 -1 24 -15 6 -8 -11 -15
-40 -15 -65 0 -25 -3 -76 -7 -113 -5 -56 -9 -68 -24 -68 -10 0 -20 4 -23 8 -2
4 -7 57 -10 117 -2 61 -12 151 -20 200 -8 50 -16 104 -18 120 l-3 30 -3297 3
-3298 2 0 -660z m8670 -912 c0 -14 -51 -123 -61 -133 -8 -7 -45 -29 -83 -49
-37 -20 -89 -56 -113 -81 l-45 -44 -104 1 c-101 1 -105 2 -156 36 -29 19 -84
48 -123 65 -38 17 -72 34 -75 38 -3 3 -18 12 -34 20 -46 22 -44 39 3 39 48 0
158 -44 186 -75 28 -32 88 -49 170 -49 62 0 78 5 139 37 38 20 73 37 79 37 10
0 48 30 120 92 23 21 47 38 53 38 7 0 14 7 18 15 4 12 26 22 26 13z m526
-1825 c-8 -127 -11 -151 -19 -178 -5 -15 1 -26 28 -44 26 -17 35 -31 35 -52 0
-35 -35 -63 -61 -48 -10 5 -24 8 -30 7 -19 -4 -22 66 -5 115 10 31 13 74 9
169 -6 134 -7 131 41 137 5 0 6 -46 2 -106z"/>
<path d="M10392 10787 c-6 -7 -14 -44 -17 -82 -9 -111 -27 -207 -45 -245 -11
-22 -20 -74 -24 -139 -3 -58 -12 -122 -18 -143 -9 -30 -9 -51 0 -86 6 -26 14
-75 16 -109 3 -42 14 -82 33 -120 l28 -58 55 3 c56 4 150 25 173 39 6 4 18 8
25 9 7 1 36 9 65 18 28 8 88 17 132 20 96 6 185 25 204 44 38 37 98 64 160 73
36 5 77 17 91 27 14 9 37 24 53 31 15 8 27 18 27 23 0 4 7 8 15 8 9 0 21 12
27 28 7 15 20 34 28 42 29 28 51 72 60 118 25 130 36 172 48 184 19 19 16 88
-4 88 -27 0 -94 -22 -94 -31 0 -11 -74 -49 -94 -49 -9 0 -22 12 -30 28 -12 24
-12 31 0 55 16 30 54 37 74 12 7 -8 19 -15 27 -15 28 0 133 84 133 107 0 7 5
13 10 13 6 0 10 6 10 13 0 6 7 25 15 41 9 16 13 37 10 48 -6 17 -31 18 -594
18 -469 0 -591 -3 -599 -13z"/>
<path d="M13155 10749 c-27 -27 -56 -49 -62 -49 -7 0 -13 -6 -13 -14 0 -8 -9
-17 -20 -21 -11 -3 -42 -22 -69 -41 -28 -19 -55 -34 -60 -34 -6 0 -29 -18 -52
-40 -23 -22 -45 -40 -49 -40 -4 0 -10 -8 -13 -19 -3 -14 -11 -17 -29 -14 -16
3 -41 -6 -70 -24 -111 -69 -178 -115 -178 -124 0 -5 -10 -9 -21 -9 -12 0 -32
-10 -44 -22 -12 -13 -39 -38 -59 -57 -38 -35 -43 -46 -26 -56 13 -8 50 4 50
16 0 21 33 42 74 46 42 5 44 4 48 -26 4 -30 2 -32 -76 -72 -94 -48 -135 -57
-153 -32 -8 10 -13 12 -13 4 0 -6 -8 -11 -17 -9 -13 2 -17 -3 -15 -15 2 -10
-1 -24 -6 -30 -10 -12 -16 -40 -13 -63 1 -12 78 -39 101 -35 8 2 4 -6 -10 -17
-14 -11 -25 -32 -26 -48 -1 -16 -3 -34 -3 -40 -1 -7 -7 -12 -13 -11 -57 2 -98
-25 -98 -64 -1 -13 -8 -42 -16 -64 -8 -22 -19 -69 -24 -105 -5 -36 -14 -94
-20 -130 -6 -36 -15 -96 -20 -133 -5 -37 -16 -82 -24 -100 -36 -84 -38 -95
-28 -159 17 -103 10 -182 -28 -298 -19 -58 -37 -107 -40 -110 -3 -3 -14 -30
-24 -60 -22 -62 -51 -111 -90 -153 -15 -16 -34 -41 -44 -55 -9 -15 -22 -31
-29 -35 -20 -13 -63 -104 -57 -120 3 -8 1 -18 -5 -22 -7 -4 -11 4 -11 19 0 25
-1 25 -43 -17 -27 -26 -55 -43 -73 -45 -39 -4 -105 -27 -182 -63 -35 -16 -75
-32 -90 -35 -42 -10 -92 -52 -92 -77 0 -12 -9 -28 -20 -35 -11 -7 -20 -21 -20
-32 0 -12 -10 -25 -25 -32 -14 -6 -25 -15 -25 -21 0 -5 -7 -24 -16 -43 -16
-33 -16 -36 1 -48 16 -11 16 -16 4 -52 -8 -21 -18 -42 -23 -45 -13 -10 4 -70
22 -77 10 -3 47 -31 83 -61 36 -31 86 -71 112 -88 42 -29 47 -37 48 -70 0 -21
4 -47 9 -58 8 -19 9 -19 9 1 1 19 23 33 53 34 6 0 21 -53 18 -66 -1 -3 16 -18
37 -32 21 -14 42 -31 46 -39 4 -7 12 -13 17 -13 14 0 180 -101 180 -109 0 -5
23 -37 50 -72 60 -74 63 -102 11 -107 -34 -3 -73 11 -99 35 -7 7 -30 22 -52
34 -22 13 -40 27 -40 32 0 16 -51 76 -70 82 -30 10 -87 59 -130 114 -22 28
-47 51 -55 51 -15 0 -63 28 -129 76 -33 24 -47 29 -60 22 -11 -6 -27 -6 -44 1
-15 5 -37 11 -50 13 -12 2 -23 8 -23 13 0 9 -36 34 -50 35 -10 0 -20 -37 -34
-130 -19 -116 -30 -167 -42 -182 -24 -29 -25 -96 -4 -153 12 -31 21 -70 21
-88 1 -63 107 -197 157 -197 15 0 16 -2 3 -10 -33 -21 -75 -11 -108 26 -23 26
-38 35 -52 31 -11 -3 -23 -1 -26 4 -11 18 -34 9 -40 -16 -3 -14 -10 -25 -16
-25 -10 0 -31 -16 -56 -42 -15 -16 -16 -16 -29 2 -13 18 -43 18 -43 -1 0 -5
-9 -18 -20 -29 -11 -11 -21 -35 -22 -52 0 -18 -2 -39 -2 -46 -1 -7 -11 -23
-23 -36 -16 -17 -19 -26 -11 -40 6 -10 7 -32 4 -48 -3 -17 -1 -37 4 -44 8 -8
8 -14 0 -19 -6 -4 -7 -13 -1 -23 24 -46 16 -301 -11 -327 -3 -3 -2 -22 3 -42
4 -20 7 -39 7 -42 -2 -25 4 -41 17 -41 8 0 15 -7 15 -16 0 -8 5 -12 10 -9 6 3
10 -1 10 -9 0 -8 -4 -17 -9 -20 -12 -8 15 -82 28 -79 6 2 11 -6 11 -17 0 -30
67 -123 82 -114 5 3 15 -11 23 -30 11 -27 21 -36 38 -36 13 0 41 -13 63 -30
21 -16 55 -32 74 -35 19 -4 82 -15 140 -25 58 -10 161 -22 230 -25 197 -10
237 -13 276 -24 21 -6 40 -8 45 -6 5 4 19 -17 19 -30 0 -7 -145 -17 -245 -17
-60 0 -115 -4 -121 -8 -5 -5 -37 -16 -70 -23 -32 -8 -76 -22 -98 -31 -21 -9
-49 -16 -62 -16 -26 0 -41 -16 -22 -23 10 -3 10 -11 0 -38 -11 -30 -10 -35 4
-44 10 -5 31 -22 47 -37 17 -16 35 -28 40 -28 6 0 8 -3 4 -6 -10 -10 70 -71
110 -85 59 -19 127 -56 164 -88 19 -17 43 -31 55 -31 11 0 24 -4 30 -8 13 -13
93 -43 134 -52 52 -12 104 -33 113 -47 4 -7 19 -13 32 -13 13 0 26 -4 29 -9
17 -26 165 -76 196 -66 27 9 60 -3 60 -21 0 -8 12 -19 27 -25 15 -6 30 -14 33
-19 9 -14 128 -60 156 -60 18 0 38 13 63 40 20 22 44 40 53 40 10 0 32 14 50
32 21 21 33 27 36 18 3 -7 -5 -20 -16 -29 -31 -23 -73 -113 -60 -128 6 -7 16
-13 23 -13 8 0 26 -6 42 -14 33 -17 235 -79 313 -96 30 -7 117 -28 194 -47
126 -31 147 -34 245 -29 58 2 135 8 171 13 54 7 64 11 62 26 -2 9 2 17 8 17
16 0 12 136 -6 171 -13 26 -13 38 -3 86 11 49 11 59 -6 89 -15 28 -16 36 -5
49 8 10 22 14 36 11 25 -7 34 8 34 55 0 24 -4 29 -24 29 -14 0 -28 5 -32 12
-9 15 42 56 76 60 18 2 26 10 28 28 2 13 15 37 28 53 22 26 24 35 18 95 -7 70
-19 93 -68 122 -25 16 -32 17 -63 4 -19 -8 -48 -12 -66 -9 -20 3 -42 0 -57
-10 -101 -60 -140 -68 -140 -29 0 31 50 84 79 84 11 0 23 5 26 10 3 6 15 10
27 10 17 0 18 2 8 15 -7 9 -29 15 -54 15 -68 0 -114 66 -60 87 8 3 42 -2 75
-11 32 -9 81 -16 109 -16 l50 0 0 73 c-1 59 3 81 24 121 31 59 32 80 6 129
-11 20 -20 43 -20 50 0 8 -7 29 -16 46 -21 42 -13 96 21 131 14 14 25 32 25
39 0 7 9 24 20 38 11 14 20 32 20 40 0 8 17 40 37 71 20 31 36 60 35 65 -1 4
1 7 6 7 4 0 20 25 37 55 16 30 34 54 40 52 20 -8 7 -66 -29 -121 -20 -31 -36
-66 -36 -79 -1 -12 -7 -33 -15 -47 -8 -14 -14 -34 -15 -45 0 -21 -36 -96 -50
-105 -5 -3 -6 -54 -3 -114 5 -92 9 -109 23 -113 21 -6 40 -44 40 -81 0 -15 9
-41 20 -59 10 -18 21 -43 23 -57 5 -41 16 -42 32 -3 8 21 20 37 27 37 7 0 9
20 4 68 -14 125 -14 127 13 130 15 3 30 -3 38 -14 16 -22 17 -95 1 -130 -11
-23 -10 -28 11 -45 25 -20 55 -18 101 8 14 7 61 33 105 58 44 24 87 44 96 45
24 0 46 31 54 73 4 21 14 44 22 50 8 7 24 23 36 36 38 42 79 76 90 76 7 0 13
-13 15 -28 3 -21 -4 -33 -25 -50 -51 -40 -63 -57 -63 -89 0 -18 -7 -42 -15
-52 -22 -30 10 -56 69 -56 27 0 51 -6 60 -16 34 -34 15 -41 -61 -24 -33 8 -53
6 -89 -6 -26 -9 -55 -14 -64 -11 -26 7 -113 -25 -153 -56 -19 -14 -56 -38 -83
-53 -58 -32 -124 -97 -124 -122 0 -9 10 -36 22 -59 22 -40 22 -43 5 -55 -15
-11 -16 -18 -8 -41 6 -16 11 -39 11 -52 0 -13 12 -38 27 -55 14 -18 28 -44 29
-58 2 -15 8 -49 15 -75 6 -27 9 -68 6 -92 -5 -36 -2 -50 24 -90 34 -53 65
-127 83 -195 10 -40 9 -47 -8 -64 -17 -18 -21 -18 -45 -3 -20 12 -29 30 -39
73 -7 31 -21 67 -31 81 -11 13 -25 56 -31 96 -7 39 -18 86 -25 102 -7 17 -16
57 -19 90 -9 77 -33 142 -67 182 -15 17 -29 37 -32 45 -11 30 -30 -14 -38 -89
-18 -176 -29 -226 -56 -262 -15 -20 -31 -38 -35 -39 -5 -2 -6 -7 -4 -11 3 -4
-1 -32 -9 -62 -8 -30 -15 -72 -15 -94 -1 -22 -2 -60 -2 -85 -1 -25 3 -70 8
-99 l9 -55 45 -3 c24 -2 48 -7 54 -13 5 -5 28 -10 49 -10 22 0 56 -9 76 -19
20 -11 67 -26 104 -35 66 -15 125 -45 187 -94 15 -12 31 -22 35 -22 10 0 3 82
-8 105 -14 27 -26 96 -20 111 15 40 83 -115 83 -189 0 -18 6 -39 12 -45 10
-10 10 -14 1 -20 -12 -7 65 -66 108 -84 10 -4 37 -22 61 -40 25 -19 58 -40 76
-47 17 -7 49 -30 72 -52 59 -57 169 -139 250 -189 22 -13 40 -29 40 -35 0 -10
97 -61 260 -135 271 -123 341 -152 400 -166 36 -9 103 -30 150 -49 82 -32 149
-54 235 -77 22 -5 56 -16 75 -24 118 -46 240 -35 240 22 0 8 4 14 9 14 5 0 16
6 23 14 18 17 113 26 129 12 8 -8 13 -8 16 2 3 6 11 12 19 12 8 0 14 4 14 8 0
15 49 32 89 32 64 0 103 -20 160 -81 30 -33 58 -59 64 -59 6 0 25 -11 43 -25
37 -29 48 -27 117 22 26 18 50 33 55 33 4 0 12 8 19 18 6 11 31 32 55 48 23
16 77 66 118 110 41 45 80 82 85 83 6 1 28 15 50 33 38 32 38 33 15 38 -23 5
-22 8 32 63 30 31 63 57 72 57 12 0 16 9 16 36 0 26 8 43 29 65 16 16 34 29
39 29 10 0 57 58 57 72 0 5 7 13 15 18 12 8 12 12 2 18 -10 7 -10 11 3 22 8 7
15 17 15 23 0 6 6 18 13 26 18 21 37 90 37 131 0 19 7 42 16 52 9 10 18 30 19
45 1 16 7 40 13 54 6 15 21 64 33 109 17 61 25 78 31 64 4 -12 6 0 5 32 -2 50
15 84 42 84 6 0 12 7 12 15 2 19 4 25 14 48 4 10 5 20 2 23 -3 4 3 15 14 27
10 11 19 26 19 32 0 6 9 30 20 53 11 22 20 45 20 50 0 6 6 12 14 15 9 4 12 14
9 26 -6 23 22 102 40 113 9 6 9 8 1 8 -10 0 -11 33 -3 67 2 4 -4 20 -11 35
-11 23 -11 38 -1 82 7 33 9 78 5 114 -5 46 -2 67 11 97 14 28 20 33 26 22 7
-11 18 -13 49 -7 22 4 40 4 40 -1 0 -5 10 -18 22 -29 55 -51 64 -239 14 -276
-9 -6 -16 -16 -16 -23 0 -6 -7 -11 -15 -11 -16 0 -20 -12 -7 -24 4 -4 7 -11 7
-14 1 -4 6 -17 13 -29 13 -23 10 -38 -16 -90 -17 -34 -19 -35 -62 -37 -16 -1
-29 -9 -35 -23 -5 -13 -15 -23 -22 -23 -17 0 -16 -10 4 -32 9 -10 12 -18 7
-18 -9 0 -21 -47 -42 -167 -7 -41 -6 -55 4 -64 20 -16 18 -26 -16 -97 -17 -35
-30 -72 -30 -81 0 -9 -9 -35 -19 -57 -20 -40 -38 -134 -27 -134 17 0 93 45
117 69 14 14 92 89 173 166 80 77 165 167 187 200 22 33 58 76 80 96 32 28 41
44 43 74 2 23 11 44 23 54 11 9 47 52 79 96 32 44 80 100 106 124 65 58 116
137 127 197 5 27 17 63 25 79 9 17 16 33 16 37 0 4 14 27 31 51 27 39 36 60
38 93 1 6 45 56 100 111 54 55 106 115 116 133 22 42 35 55 63 64 19 6 22 14
22 61 0 33 -5 55 -12 58 -10 4 -10 6 0 6 9 1 12 492 12 2421 l0 2420 -2855 0
c-2531 0 -2855 -2 -2855 -15 0 -8 -5 -15 -11 -15 -5 0 -8 -4 -4 -9 10 -17 -22
-26 -73 -23 -45 3 -52 7 -62 33 -12 28 -15 29 -74 28 -59 -1 -63 -2 -111 -50z
m-366 -430 c11 -18 22 -26 25 -20 11 17 56 13 82 -8 14 -11 42 -22 63 -26 22
-4 47 -15 57 -26 14 -15 32 -19 88 -20 95 -1 118 -9 127 -41 7 -25 5 -27 -43
-33 -38 -6 -53 -3 -67 9 -12 11 -37 16 -85 16 -44 0 -75 5 -91 16 -18 11 -35
14 -64 9 -51 -8 -81 1 -81 25 0 26 -21 36 -32 16 -11 -20 -71 -22 -88 -1 -16
20 -3 74 24 97 33 27 64 23 85 -13z m5868 -3105 c6 -17 -30 -60 -59 -70 -10
-3 -18 -11 -18 -17 0 -24 -97 -83 -134 -82 -27 0 -31 22 -7 30 12 3 21 13 21
22 0 14 -2 14 -18 0 -24 -22 -32 -21 -32 2 0 25 47 74 65 67 8 -3 18 1 22 9 9
16 98 52 131 54 12 1 25 -6 29 -15z m-6637 -421 c36 -58 72 -122 81 -142 63
-147 89 -183 157 -221 15 -8 36 -24 48 -36 31 -31 74 -124 74 -160 0 -86 46
-198 113 -279 28 -34 35 -55 17 -55 -20 0 -59 44 -75 84 -9 22 -23 48 -30 56
-27 31 -94 178 -101 221 -9 53 -28 86 -57 95 -38 11 -97 56 -97 74 0 9 -16 38
-36 64 -19 26 -38 63 -41 83 -4 23 -17 46 -33 59 -14 13 -34 42 -44 66 -32 75
-35 82 -57 109 -16 20 -19 34 -14 58 4 17 12 31 18 31 7 0 41 -48 77 -107z
m5827 -273 c10 -11 23 -20 30 -20 7 0 21 -9 31 -20 14 -16 39 -22 118 -29 270
-26 328 -41 277 -69 -15 -9 -15 -12 0 -51 21 -51 21 -90 2 -115 -8 -11 -15
-36 -15 -55 0 -21 -11 -53 -25 -76 -13 -22 -25 -48 -25 -58 0 -11 -18 -44 -40
-76 -22 -31 -40 -60 -40 -64 0 -20 -75 -109 -84 -99 -3 3 -6 0 -6 -6 0 -7 5
-12 10 -12 28 0 -12 -119 -40 -120 -10 0 -11 -3 -4 -8 22 -14 44 -72 44 -117
l0 -45 -55 0 c-67 0 -95 12 -118 51 -21 37 -14 72 18 93 16 10 25 29 29 60 4
25 11 48 15 50 4 3 7 19 6 36 -1 16 2 30 7 30 4 0 8 8 8 18 0 9 14 43 31 75
17 32 28 61 26 64 -3 2 8 32 24 66 18 38 29 78 29 104 0 23 5 45 10 48 19 12
11 77 -12 101 -79 80 -93 93 -97 88 -2 -2 -11 2 -20 9 -9 8 -44 24 -78 36 -82
30 -123 74 -103 111 14 25 26 25 47 0z m-4755 -916 c21 -15 38 -27 38 -28 0
-1 4 -15 9 -32 8 -29 7 -30 -26 -32 -40 -3 -103 14 -118 32 -15 19 -41 26 -53
14 -17 -17 -52 1 -52 28 0 20 5 24 33 24 17 1 46 7 62 14 38 17 59 13 107 -20z
m-557 -223 c47 -21 75 -46 75 -67 0 -28 -206 -6 -245 26 -16 13 -20 42 -8 53
14 15 138 6 178 -12z m785 -198 c0 -10 -24 -35 -53 -56 -44 -33 -57 -38 -87
-32 -19 3 -72 10 -118 14 -90 9 -102 15 -83 34 8 8 48 12 119 12 91 0 113 4
147 22 49 27 75 29 75 6z"/>
<path d="M11076 9885 c-37 -19 -72 -35 -78 -35 -5 0 -24 -11 -41 -24 -53 -39
-100 -59 -144 -62 -46 -3 -63 -9 -63 -26 0 -7 15 -8 43 -4 23 4 74 8 112 10
81 3 94 6 115 25 13 13 15 12 18 -11 3 -26 -9 -46 -55 -95 -13 -13 -23 -26
-23 -29 0 -3 -12 -16 -26 -29 -26 -24 -33 -25 -159 -25 -133 0 -190 10 -211
38 -8 11 -22 13 -55 9 -116 -16 -140 -41 -104 -111 8 -15 15 -34 15 -41 0 -22
26 -64 57 -94 18 -17 32 -43 36 -65 3 -20 15 -49 26 -65 14 -19 21 -45 21 -73
0 -45 46 -152 76 -175 27 -20 94 -115 88 -125 -3 -5 5 -17 18 -28 24 -20 40
-26 36 -12 -1 4 3 27 9 52 7 25 14 97 17 160 5 121 18 183 31 145 3 -11 15
-39 26 -63 10 -23 19 -54 19 -68 0 -33 17 -64 35 -64 7 0 23 17 36 38 22 37
63 82 74 82 13 0 31 26 32 45 1 11 8 45 17 75 65 240 71 294 25 270 -24 -13
-49 -2 -49 21 0 11 -8 31 -17 46 -17 25 -16 26 10 49 26 22 27 27 21 76 -4 29
-10 62 -14 72 -5 14 2 27 25 48 18 15 37 28 41 28 5 1 27 16 48 35 l39 35 -29
0 c-16 -1 -60 -16 -98 -35z"/>
<path d="M11433 9820 c-31 -19 -33 -23 -33 -81 0 -34 -4 -78 -10 -98 -5 -20
-12 -49 -15 -65 -4 -19 -9 -25 -14 -18 -8 14 -72 -52 -70 -72 3 -24 -14 -56
-38 -71 -13 -9 -22 -22 -20 -30 3 -7 -1 -24 -8 -38 -14 -27 -5 -37 34 -37 20
0 41 51 41 98 0 26 4 32 23 32 12 0 27 4 34 8 22 14 44 81 38 115 -7 39 9 79
66 167 17 26 22 48 20 88 -1 27 -7 27 -48 2z"/>
<path d="M10042 9450 c-32 -8 -82 -45 -82 -62 0 -4 -9 -18 -20 -30 -86 -97
-108 -138 -76 -138 21 0 59 -51 47 -63 -15 -15 -63 2 -68 23 -7 25 -68 28 -77
5 -16 -41 48 -106 161 -161 67 -33 69 -34 113 -19 25 8 56 14 70 13 75 -3 89
2 145 55 48 47 55 58 55 93 0 59 -18 158 -30 162 -5 2 -10 12 -10 22 0 9 -7
23 -15 30 -8 7 -15 9 -15 6 0 -4 -7 0 -16 8 -8 9 -30 16 -48 16 -21 0 -44 9
-62 25 -16 14 -31 25 -34 24 -3 -1 -20 -5 -38 -9z"/>
<path d="M0 9156 l0 -145 48 -6 c26 -3 55 -10 64 -16 25 -13 28 -12 28 15 0
13 6 26 13 29 6 2 -8 11 -33 18 -97 29 -129 88 -65 118 26 12 32 12 58 -2 16
-10 36 -17 45 -17 10 0 30 -14 46 -31 27 -28 28 -32 13 -41 -21 -11 -22 -44
-1 -52 39 -15 75 -6 105 27 57 61 50 90 -30 133 -25 14 -61 36 -80 49 -19 14
-47 25 -63 25 -16 0 -39 5 -51 12 -12 7 -32 11 -44 9 -11 -1 -24 3 -28 8 -19
31 -25 -1 -25 -133z"/>
<path d="M9662 9077 c-12 -13 -22 -33 -22 -45 0 -14 -8 -24 -23 -27 -15 -4
-29 -19 -37 -41 -8 -19 -17 -34 -22 -34 -4 0 -5 -7 -2 -15 4 -8 1 -15 -5 -15
-7 0 -15 -10 -20 -22 -6 -17 -17 -23 -46 -24 -21 0 -43 -7 -49 -15 -6 -8 -26
-25 -43 -38 -36 -25 -42 -48 -15 -58 9 -3 26 -14 37 -24 17 -15 26 -16 61 -7
36 10 45 9 76 -10 45 -28 53 -63 25 -110 -25 -42 -32 -94 -16 -123 6 -13 12
-95 14 -208 2 -102 8 -199 13 -216 6 -17 11 -22 11 -12 1 23 10 22 37 -8 13
-14 28 -25 34 -25 5 0 10 -4 10 -10 0 -5 -4 -10 -10 -10 -5 0 -10 -7 -10 -15
0 -9 -12 -21 -26 -27 -21 -10 -27 -9 -36 3 -7 10 -8 5 -2 -16 4 -16 7 -39 8
-50 1 -11 5 -26 9 -33 5 -7 4 -36 -2 -65 -5 -28 -8 -63 -7 -77 2 -14 4 -35 5
-47 0 -13 6 -23 12 -23 7 0 20 -10 30 -22 11 -11 19 -17 19 -12 0 5 7 1 15 -9
7 -11 11 -26 8 -35 -4 -9 -2 -13 4 -9 13 8 14 -73 1 -90 -15 -18 4 -93 23 -93
5 0 9 7 9 15 0 10 10 15 28 15 26 0 62 29 62 50 0 5 11 17 25 26 14 9 25 25
25 35 0 11 5 19 10 19 6 0 10 7 10 16 0 9 5 14 11 12 17 -6 96 80 102 110 4
16 54 77 121 147 64 66 111 122 106 123 -6 2 -10 11 -10 19 0 9 6 13 15 10 8
-4 17 -2 20 3 4 6 -7 10 -24 10 -17 0 -31 -4 -31 -10 0 -5 -4 -10 -10 -10 -5
0 -10 6 -10 14 0 8 -6 16 -12 19 -8 2 -2 10 14 17 23 11 31 10 54 -5 14 -9 23
-12 19 -6 -4 8 1 10 17 6 19 -5 27 -1 38 22 8 15 23 34 33 41 9 7 17 20 17 28
0 8 5 14 12 14 6 0 8 3 5 7 -4 3 0 17 8 30 9 13 11 23 5 23 -5 0 -10 7 -10 15
0 8 -4 15 -8 15 -5 0 -9 21 -11 47 -1 34 -8 51 -23 61 -18 13 -20 22 -15 73 5
54 -17 175 -37 208 -4 6 -2 27 4 46 9 28 8 40 -6 66 -19 38 -21 75 -7 189 14
117 5 133 -52 88 -25 -19 -33 -20 -76 -11 -54 11 -57 9 -79 -45 -19 -49 -91
-57 -105 -11 -5 14 -15 19 -39 19 -42 0 -65 18 -90 71 -17 35 -33 49 -85 76
-35 18 -65 33 -66 33 -1 0 -11 -10 -23 -23z"/>
<path d="M10404 9016 c-3 -8 -14 -18 -24 -21 -10 -3 -23 -20 -29 -37 -14 -39
-15 -198 -1 -198 6 0 10 -6 10 -13 0 -7 14 -39 31 -72 l31 -60 -6 -147 c-7
-166 0 -198 40 -190 15 3 24 11 24 24 0 29 28 78 45 78 8 0 15 4 15 9 0 5 9
11 20 14 12 3 20 14 20 26 0 11 6 24 13 28 7 4 24 26 38 49 54 91 84 134 96
134 15 0 17 36 3 45 -5 3 -10 15 -10 26 0 10 -4 19 -10 19 -5 0 -18 17 -27 37
l-18 38 -71 -3 -70 -4 -27 61 c-15 34 -33 61 -40 61 -15 0 -38 65 -31 85 3 7
1 16 -5 20 -6 3 -14 -1 -17 -9z"/>
<path d="M11752 8925 c-7 -8 -25 -15 -40 -15 -15 0 -39 -12 -54 -25 -22 -19
-28 -33 -28 -65 0 -22 -5 -40 -10 -40 -39 0 -61 -265 -23 -277 6 -2 26 12 44
32 18 19 35 31 39 26 10 -17 54 59 52 89 -3 40 16 89 28 70 6 -10 10 -7 15 16
4 16 13 48 21 72 17 51 18 86 4 113 -13 22 -30 24 -48 4z"/>
<path d="M11093 8868 c-13 -17 -16 -142 -4 -191 8 -32 5 -45 -15 -80 -27 -48
-29 -65 -9 -90 13 -18 14 -18 24 1 6 11 13 41 15 66 5 47 9 57 65 160 33 60
32 71 -4 78 -11 1 -26 18 -34 36 -16 35 -23 39 -38 20z"/>
<path d="M0 8670 c0 -121 0 -123 27 -146 16 -13 31 -24 35 -24 9 0 113 -91
113 -99 2 -26 18 -61 28 -61 28 -1 40 -17 27 -40 -14 -27 -6 -37 39 -43 18 -3
43 -15 56 -27 12 -12 51 -35 86 -51 60 -29 63 -31 45 -45 -11 -7 -18 -15 -15
-17 2 -2 24 -19 49 -39 25 -19 60 -43 78 -52 51 -26 37 -36 -20 -14 -29 11
-64 23 -78 28 -14 4 -43 17 -65 28 -22 11 -65 31 -97 46 -31 15 -63 38 -72 51
-9 14 -23 25 -31 25 -7 0 -16 8 -19 18 -3 9 -30 33 -58 51 -29 19 -70 53 -90
75 l-38 41 0 -225 0 -226 33 -12 c18 -7 47 -12 63 -12 16 0 63 -4 104 -10 41
-5 120 -14 175 -20 151 -14 312 -38 332 -48 10 -5 65 -14 123 -21 98 -12 202
-34 278 -60 76 -26 99 -33 127 -37 52 -9 167 -45 250 -80 44 -18 127 -47 185
-65 58 -17 109 -36 114 -40 6 -5 18 -9 29 -9 10 0 87 -35 171 -77 158 -81 190
-95 291 -132 33 -12 94 -36 135 -52 55 -21 92 -29 137 -29 57 0 63 2 69 24 8
32 -11 129 -38 194 -19 46 -20 54 -7 67 27 28 50 -3 64 -86 7 -41 19 -101 26
-133 11 -47 11 -60 1 -64 -6 -2 -12 -9 -12 -16 0 -12 55 -29 149 -47 87 -16
107 -17 306 -24 105 -4 196 -8 203 -11 26 -8 122 8 122 22 0 7 5 14 11 16 12
4 -101 68 -120 68 -6 0 -25 16 -42 35 -17 19 -36 35 -43 35 -13 0 -89 69 -99
90 -5 8 -14 26 -22 40 -8 14 -15 37 -15 51 0 26 -51 85 -63 72 -4 -3 -7 -1 -7
5 0 7 -20 17 -45 23 -25 6 -52 20 -59 31 -8 11 -22 19 -33 17 -10 -1 -29 3
-43 8 -62 27 -85 33 -172 48 -177 30 -191 34 -333 101 -39 18 -82 38 -95 44
-14 5 -47 24 -75 40 -27 17 -60 35 -71 40 -12 4 -24 16 -27 24 -4 9 -13 16
-20 16 -8 0 -35 11 -61 25 -26 14 -60 25 -76 25 -16 0 -35 7 -44 15 -8 8 -34
17 -58 20 -189 21 -239 27 -278 37 -25 6 -63 14 -85 18 -22 3 -55 14 -73 24
-18 9 -37 14 -42 11 -5 -3 -20 1 -34 10 -13 9 -35 17 -48 19 -12 1 -38 10 -56
20 -19 10 -59 26 -90 36 -95 31 -186 65 -209 78 -13 7 -23 10 -23 7 0 -6 -79
52 -90 66 -3 3 -11 8 -19 10 -15 5 -41 72 -41 107 0 13 -4 21 -9 17 -5 -3 -12
4 -16 15 -11 35 -46 51 -85 40 -81 -23 -109 -15 -231 66 -63 42 -143 87 -179
100 -36 14 -74 28 -85 33 -11 4 -38 14 -60 21 -22 7 -46 15 -52 17 -10 4 -13
-24 -13 -117z"/>
<path d="M3450 8742 c-25 -10 -55 -23 -66 -29 -12 -7 -23 -10 -26 -8 -2 2 -20
-2 -40 -9 -37 -12 -37 -12 -23 -40 9 -18 15 -57 15 -105 0 -48 5 -84 13 -96
14 -20 37 -101 37 -128 0 -7 -9 -23 -21 -35 -11 -12 -18 -26 -16 -30 3 -4 -1
-65 -9 -136 -12 -105 -20 -140 -43 -185 -16 -31 -39 -80 -52 -108 -12 -29 -27
-53 -33 -53 -6 0 -4 -5 4 -10 8 -5 11 -10 6 -10 -21 0 19 -29 62 -44 26 -10
55 -21 64 -26 9 -5 53 -12 97 -16 69 -6 81 -5 81 8 0 17 53 43 68 34 6 -3 13
-29 17 -57 5 -34 12 -52 24 -55 30 -9 106 -47 126 -64 23 -19 128 -60 153 -60
10 0 31 -7 47 -16 17 -9 42 -23 58 -31 15 -8 27 -18 27 -23 0 -4 17 -11 37
-15 21 -4 42 -10 48 -13 5 -4 12 -7 15 -7 3 -1 22 -9 44 -18 21 -9 45 -17 52
-17 7 0 28 -9 46 -20 18 -11 43 -20 55 -20 12 0 25 -4 28 -10 3 -5 16 -10 27
-10 12 0 42 -10 67 -22 61 -29 218 -50 237 -30 8 7 14 22 14 32 0 35 -48 125
-79 148 -17 12 -31 30 -31 38 0 10 -6 14 -14 11 -8 -3 -26 7 -40 24 -17 19
-36 29 -55 29 -15 0 -50 9 -77 19 -27 11 -61 22 -75 25 -14 3 -38 18 -52 32
-15 15 -27 23 -27 18 0 -5 -4 -4 -8 2 -4 6 -22 19 -40 28 -26 14 -31 20 -23
35 16 28 35 40 77 47 21 3 41 8 45 9 3 2 23 -1 45 -6 21 -6 58 -15 82 -21 24
-5 46 -16 49 -24 3 -8 13 -14 23 -14 24 0 107 -36 111 -48 11 -27 183 -212
236 -254 12 -10 33 -19 45 -20 13 -2 30 -8 38 -13 38 -25 59 -31 110 -33 74
-3 101 -9 157 -36 26 -12 75 -29 108 -36 33 -7 64 -17 69 -22 6 -4 20 -8 32
-8 12 0 27 -6 33 -14 6 -7 33 -21 59 -31 26 -10 52 -23 57 -29 6 -6 24 -13 40
-14 17 -2 34 -7 39 -12 5 -5 15 -6 22 -3 8 3 14 -1 14 -11 0 -9 -4 -16 -10
-16 -5 0 -10 -4 -10 -10 0 -5 8 -10 18 -10 10 0 27 -7 38 -15 24 -18 64 -19
64 -2 0 7 -18 31 -40 52 -22 21 -40 44 -40 51 0 13 -67 49 -113 60 -21 5 -25
9 -15 15 10 6 8 9 -8 9 -24 0 -74 22 -74 32 0 8 -142 95 -235 143 -33 17 -69
36 -80 42 -35 20 -114 53 -125 53 -6 0 -27 10 -48 23 -20 12 -62 31 -92 41
-63 22 -137 61 -163 88 -10 10 -26 18 -36 18 -18 0 -52 29 -35 31 5 0 -1 4
-13 9 -12 5 -29 25 -39 45 -9 21 -41 54 -70 76 -30 22 -64 53 -76 69 -12 17
-28 30 -36 30 -24 0 -98 53 -123 89 -13 19 -36 46 -51 61 -15 15 -48 71 -74
124 -25 53 -50 96 -54 96 -4 0 -16 20 -27 45 -21 52 -33 58 -33 16 0 -16 -6
-31 -12 -34 -20 -6 -66 12 -72 29 -9 25 12 54 39 54 29 0 35 30 10 50 -7 6
-28 36 -45 66 -29 51 -123 155 -138 152 -11 -2 -65 22 -82 36 -16 13 -104 48
-130 52 -94 13 -138 12 -180 -4z"/>
<path d="M1316 8709 c-32 -5 -67 -15 -76 -24 -9 -8 -25 -15 -34 -15 -29 0 -76
-33 -82 -57 -7 -26 2 -72 18 -90 6 -7 21 -13 34 -13 14 0 24 -6 24 -14 0 -7 9
-16 20 -19 11 -3 18 -1 14 4 -3 5 0 9 7 9 7 0 26 11 43 23 19 15 52 26 85 30
29 4 63 13 76 21 12 8 35 16 51 18 21 2 33 12 44 35 11 24 22 33 40 33 20 0
22 -2 10 -10 -11 -7 -6 -9 20 -9 19 1 27 3 18 6 -10 2 -18 9 -18 14 0 5 -7 9
-15 9 -8 0 -47 11 -87 24 -98 31 -123 34 -192 25z"/>
<path d="M3020 8613 c-36 -13 -99 -38 -140 -54 -41 -15 -97 -33 -124 -39 -27
-6 -57 -15 -67 -21 -18 -9 -37 -14 -169 -40 -30 -6 -59 -14 -65 -17 -5 -3 -67
-7 -138 -9 -75 -2 -137 -8 -150 -15 -16 -9 -108 -11 -342 -10 -176 2 -326 -1
-333 -6 -10 -6 2 -15 40 -32 29 -12 67 -28 83 -36 17 -7 57 -21 90 -30 57 -15
74 -20 163 -45 20 -5 51 -14 67 -18 17 -4 63 -22 103 -40 67 -29 81 -32 145
-28 105 7 166 21 190 45 69 66 78 71 111 70 32 -1 32 -2 14 -20 -10 -10 -18
-27 -18 -37 0 -26 -42 -71 -67 -71 -25 0 -93 -70 -93 -96 0 -20 28 -54 45 -54
5 0 17 -7 27 -17 10 -9 29 -17 41 -19 13 -1 41 -14 63 -29 21 -15 50 -31 64
-37 23 -9 178 -35 269 -45 25 -3 51 -12 59 -19 7 -8 25 -14 38 -14 14 0 38 -7
54 -15 38 -20 67 -4 76 42 3 17 15 39 25 49 10 9 19 24 19 33 0 9 7 36 16 60
8 24 17 95 20 160 3 64 12 144 21 178 17 69 13 225 -6 231 -6 2 -11 12 -11 22
0 24 -20 37 -21 13 0 -15 -2 -14 -9 3 -13 34 -21 34 -90 7z"/>
<path d="M10906 8544 c-3 -9 -6 -28 -6 -42 -1 -70 -62 -82 -95 -20 -11 21 -27
38 -35 38 -21 0 -52 -68 -41 -89 5 -9 12 -46 16 -83 l7 -66 -41 -45 c-23 -24
-41 -53 -41 -64 0 -10 -5 -24 -12 -31 -13 -13 5 -42 27 -42 7 0 18 -6 24 -14
6 -7 31 -19 56 -26 32 -9 45 -18 47 -34 4 -24 -11 -76 -26 -92 -27 -29 -44
-53 -74 -108 -18 -32 -32 -59 -30 -61 2 -2 27 -5 57 -6 41 -2 56 1 59 11 2 8
16 39 29 68 22 44 25 62 20 113 -5 54 -3 63 19 86 28 30 31 75 8 121 -9 19
-13 41 -9 54 12 37 46 88 59 88 7 0 19 12 27 27 18 33 15 213 -4 225 -19 12
-34 9 -41 -8z"/>
<path d="M10490 8070 c-18 -18 -20 -33 -20 -155 l0 -135 -35 0 c-19 0 -35 -4
-35 -10 0 -5 -19 -10 -43 -10 -35 0 -49 -6 -76 -32 -37 -36 -51 -66 -51 -107
0 -37 17 -51 63 -51 32 0 38 -3 33 -16 -16 -42 -62 -83 -139 -122 -15 -8 -36
-25 -46 -37 -23 -31 -17 -91 12 -107 29 -15 117 -11 137 7 9 8 21 15 26 15 15
1 74 59 74 72 0 8 16 37 35 65 19 29 35 58 35 65 0 7 18 39 40 72 22 32 40 68
40 80 0 26 19 60 21 36 1 -25 18 22 18 54 1 21 -3 27 -14 22 -9 -3 -24 7 -40
28 -21 28 -23 37 -15 67 6 18 10 57 10 85 0 29 7 65 15 80 8 16 15 35 15 42 0
19 -38 14 -60 -8z"/>
<path d="M2396 7931 c-4 -6 -25 -16 -46 -22 -48 -15 -51 -25 -8 -34 18 -4 39
-11 48 -16 40 -21 130 -42 173 -40 28 1 47 -2 47 -8 0 -12 52 -41 75 -41 22 0
19 21 -5 27 -11 3 -20 9 -20 14 0 5 -8 9 -19 9 -10 0 -24 7 -32 16 -7 9 -22
14 -36 11 -14 -2 -29 3 -39 14 -10 11 -23 19 -31 19 -7 0 -21 4 -31 9 -9 5
-26 13 -37 16 l-20 7 20 8 c11 5 15 9 8 9 -6 1 -18 4 -26 7 -8 3 -18 1 -21 -5z"/>
<path d="M2732 7754 c2 -9 10 -20 18 -24 36 -17 119 -43 160 -50 25 -4 71 -19
103 -34 32 -14 62 -26 68 -26 5 0 31 -10 57 -22 30 -14 67 -22 102 -22 52 -1
55 0 55 24 0 20 -6 26 -35 31 -19 3 -49 13 -67 22 -18 9 -39 17 -48 17 -8 0
-15 4 -15 8 0 4 -27 14 -59 21 -33 7 -72 19 -87 27 -14 8 -36 14 -49 14 -12 0
-39 7 -58 15 -20 8 -62 15 -92 15 -47 0 -56 -3 -53 -16z"/>
<path d="M23 7682 l-23 -3 0 -3840 0 -3839 2349 0 c2070 0 2350 2 2361 15 7 8
30 20 51 25 22 6 39 16 39 23 0 10 59 50 79 53 8 1 37 13 91 37 25 10 65 22
88 24 l44 5 -7 -64 -7 -65 43 -7 c37 -6 45 -4 71 21 35 34 40 95 8 115 -29 18
-25 24 25 45 25 10 45 23 45 28 0 6 24 23 53 39 28 16 54 32 57 35 3 3 30 25
60 47 36 26 60 54 69 77 8 21 20 37 26 37 6 0 17 10 24 23 17 30 80 77 171
129 73 42 98 51 250 98 41 12 91 31 111 41 20 11 44 19 52 19 8 0 17 3 19 8 5
11 61 48 86 56 12 4 20 11 17 16 -3 4 4 10 15 13 26 7 92 146 78 164 -6 8 0
33 17 75 15 35 29 73 32 86 3 12 9 22 14 22 9 0 51 86 64 129 13 45 127 252
159 290 36 42 59 60 68 55 4 -3 8 10 8 28 0 27 9 42 43 74 24 23 51 45 59 50
8 5 33 35 56 66 23 31 48 61 55 65 7 4 20 19 29 33 9 14 37 47 62 74 25 27 42
54 39 59 -3 6 -1 7 5 3 5 -3 19 9 31 26 24 40 77 82 111 91 26 6 135 106 126
115 -3 3 6 19 19 36 14 17 29 36 34 42 4 5 11 31 15 56 5 35 4 49 -7 55 -31
18 -29 71 8 173 7 19 20 60 29 90 17 56 40 90 62 90 7 0 15 13 19 30 4 16 26
49 51 72 24 24 44 50 44 58 0 9 4 20 8 25 5 6 18 34 30 63 21 53 106 172 122
172 5 0 12 12 16 28 4 15 11 32 18 37 6 6 21 31 34 56 12 26 29 52 37 59 8 7
15 19 15 26 0 8 5 14 10 14 6 0 10 5 10 10 0 6 12 29 27 53 28 42 47 87 63
142 13 46 31 97 45 125 7 14 16 41 20 60 4 19 11 40 15 45 4 6 11 33 15 61 10
78 7 623 -4 674 -5 25 -15 68 -22 95 -7 28 -13 71 -13 98 -1 32 -5 47 -14 47
-7 0 -12 6 -11 13 5 34 -18 82 -58 123 -25 24 -41 44 -36 44 4 0 -5 7 -21 15
-56 30 -115 1 -116 -55 0 -14 -6 -34 -14 -45 -7 -11 -17 -31 -21 -45 -14 -47
-115 -159 -142 -160 -7 0 -13 -4 -13 -9 0 -5 -9 -13 -21 -16 -52 -17 -139 -96
-139 -126 0 -22 -129 -137 -161 -144 -16 -4 -31 -11 -34 -16 -4 -5 -45 -9 -93
-9 -101 0 -215 -30 -302 -79 -30 -17 -61 -31 -67 -31 -7 0 -43 -14 -80 -31
-73 -34 -116 -37 -214 -19 -109 21 -251 9 -286 -24 -7 -6 -33 -10 -58 -8 -35
3 -45 8 -43 21 2 9 14 18 28 21 13 3 30 15 36 28 6 13 14 23 18 23 18 -2 18 0
0 14 -10 8 -26 15 -35 15 -9 0 -21 11 -27 25 -7 14 -22 29 -34 34 -13 5 -32
17 -43 28 -30 27 -99 78 -105 76 -3 0 -23 9 -45 22 -22 13 -56 26 -75 30 -67
14 -176 72 -220 116 -41 42 -110 140 -110 156 0 4 -11 37 -24 73 -13 36 -29
84 -36 108 -7 23 -16 42 -21 42 -4 0 -10 11 -13 24 -4 18 -11 23 -26 19 -21
-6 -80 -73 -80 -92 0 -31 -54 -105 -138 -188 l-94 -93 -54 6 -54 7 -100 -103
-99 -104 -37 12 c-45 13 -76 0 -132 -56 -82 -82 -91 -85 -210 -78 -193 12
-242 18 -242 31 0 26 46 35 170 32 136 -2 138 -2 209 62 35 32 113 61 163 61
21 0 42 14 83 55 29 30 62 56 73 58 11 2 26 8 34 13 7 6 34 21 60 33 25 12 49
28 51 35 3 8 28 17 55 21 35 5 57 14 75 33 41 44 118 162 133 205 8 22 19 46
25 53 6 7 8 17 5 22 -7 12 54 42 83 42 30 0 28 42 -4 71 -13 13 -28 40 -31 59
-4 19 -18 58 -33 85 -25 48 -26 57 -24 190 1 117 5 149 23 195 12 30 30 82 41
115 11 33 26 69 34 82 8 12 15 29 15 38 0 8 5 15 10 15 6 0 10 5 10 10 0 6 23
41 50 79 28 38 50 74 50 80 0 6 5 11 10 11 6 0 10 9 10 20 0 11 4 20 9 20 5 0
11 9 14 21 6 23 -24 39 -77 39 -34 0 -86 20 -86 33 0 4 -7 7 -15 7 -28 0 -120
59 -185 120 -36 34 -76 64 -90 67 -13 3 -36 17 -50 30 -28 26 -95 61 -130 68
-12 2 -27 8 -34 14 -6 5 -42 12 -81 16 -117 11 -126 12 -240 30 -87 13 -153
16 -320 13 -250 -6 -270 -11 -281 -71 -4 -23 -6 -53 -5 -67 3 -25 3 -25 -18
-6 -11 10 -20 21 -19 25 2 23 -7 32 -44 42 -52 14 -232 5 -304 -15 -74 -21
-362 -49 -424 -42 -30 3 -93 10 -140 15 -47 4 -98 13 -114 20 -16 6 -63 16
-105 22 -42 6 -79 16 -83 22 -6 9 -8 9 -8 0 0 -7 -11 -13 -24 -13 -13 0 -27 6
-29 13 -3 7 -6 5 -6 -5 -1 -29 -32 -18 -44 14 -7 20 -99 68 -185 97 -34 12
-111 46 -172 76 -60 31 -124 58 -142 62 -18 3 -48 15 -65 25 -18 9 -33 15 -33
12 0 -3 -22 14 -49 38 -102 91 -163 124 -321 170 -19 6 -87 35 -151 64 -63 30
-123 54 -133 54 -9 0 -38 11 -64 25 -26 14 -52 25 -59 25 -7 0 -29 11 -49 25
-44 30 -76 39 -219 60 -60 9 -141 25 -180 36 -87 26 -201 46 -294 53 -40 3
-77 8 -82 12 -9 5 -75 16 -309 52 -25 4 -55 6 -67 4z m2767 -1162 c22 -11 45
-20 53 -20 8 0 24 -9 37 -20 13 -11 26 -20 31 -20 12 0 139 -130 139 -143 0
-6 16 -29 35 -50 30 -32 33 -41 24 -58 -6 -12 -9 -21 -7 -22 2 -1 22 -17 46
-36 30 -23 51 -32 67 -28 14 2 22 0 19 -4 -3 -5 0 -9 5 -9 6 0 11 -9 11 -21 0
-11 -4 -17 -10 -14 -15 9 -12 -60 4 -98 7 -18 27 -47 45 -66 17 -18 31 -39 31
-47 0 -7 12 -17 28 -20 15 -4 39 -16 55 -26 l27 -20 -21 -29 c-24 -34 -52 -32
-82 4 -61 75 -77 83 -77 37 0 -49 -59 -138 -82 -124 -16 10 -8 89 12 121 14
23 18 43 14 65 -10 56 -35 128 -45 128 -5 0 -9 7 -9 15 0 8 -4 15 -8 15 -17 0
-72 85 -72 111 0 32 -25 50 -95 69 -55 14 -129 49 -160 75 -19 15 -15 16 63
10 49 -4 82 -3 82 3 0 5 -22 33 -50 62 -27 29 -50 56 -50 61 0 7 -34 22 -55
24 -5 0 -26 6 -46 14 -33 13 -74 63 -61 75 12 12 65 5 102 -14z m445 -58 c1
-26 9 -60 17 -77 10 -18 17 -65 19 -120 4 -86 3 -90 -18 -93 -18 -3 -23 3 -29
35 -4 21 -13 47 -21 59 -7 12 -16 63 -20 116 -5 89 -4 97 16 117 28 28 34 23
36 -37z m295 -808 c6 -14 10 -47 10 -74 0 -31 5 -52 14 -57 22 -13 36 -49 36
-96 0 -33 6 -50 23 -68 49 -51 77 -97 77 -127 0 -17 4 -33 9 -37 5 -3 13 -19
16 -37 11 -49 36 -102 43 -92 14 20 57 44 80 44 20 0 22 -4 17 -22 -12 -37
-43 -66 -68 -61 -28 5 -57 -34 -35 -48 10 -7 6 -15 -18 -33 -23 -19 -35 -41
-49 -93 -10 -37 -28 -82 -42 -100 -21 -29 -23 -38 -15 -87 5 -30 7 -67 5 -83
-3 -15 0 -40 6 -55 11 -30 28 -32 69 -10 13 8 36 10 57 6 22 -4 45 -1 65 9 17
9 52 19 78 23 26 4 56 13 67 20 11 8 37 14 58 14 34 0 37 -2 27 -20 -18 -34
-48 -44 -76 -25 -19 12 -24 13 -24 2 0 -24 -69 -84 -113 -96 -23 -7 -59 -22
-80 -32 -22 -10 -49 -19 -61 -19 -13 0 -26 -3 -29 -7 -11 -10 14 -33 36 -33
11 0 40 -9 64 -21 32 -15 43 -27 43 -44 0 -18 9 -25 45 -35 25 -7 45 -16 45
-19 0 -4 18 -18 41 -30 54 -30 89 -23 89 19 0 40 34 44 82 9 28 -20 71 -22
263 -16 46 2 68 -3 90 -18 17 -11 33 -20 37 -20 3 0 10 -3 14 -7 4 -5 22 -8
40 -8 18 0 48 -6 66 -14 36 -16 133 -48 213 -71 28 -8 67 -15 87 -15 20 0 40
-5 44 -11 4 -7 28 -9 71 -4 l64 7 -3 -34 c-3 -33 -3 -33 -68 -41 -82 -10 -115
-9 -165 4 -74 20 -188 61 -219 80 -17 10 -41 19 -54 19 -13 0 -37 7 -53 16
-17 8 -37 13 -45 10 -8 -3 -60 0 -114 6 -79 9 -104 9 -123 -1 -30 -16 -44 -17
-192 -7 -135 9 -225 33 -264 70 -30 29 -119 44 -183 32 -32 -6 -34 -9 -37 -47
-1 -23 5 -57 14 -75 8 -18 16 -51 18 -73 2 -34 7 -42 36 -56 31 -15 33 -18 29
-56 -3 -35 0 -44 21 -58 14 -9 43 -20 64 -26 22 -5 45 -19 51 -29 6 -11 23
-32 38 -47 26 -26 27 -32 22 -88 -5 -57 -4 -61 16 -61 11 0 23 -6 26 -14 3 -8
19 -20 35 -26 32 -14 40 -49 14 -70 -9 -7 -15 -29 -15 -51 0 -32 5 -42 25 -51
24 -11 35 -38 15 -38 -16 0 -12 -73 7 -135 25 -79 37 -69 29 24 -4 53 -3 82 4
86 6 4 14 4 18 0 3 -3 0 -10 -8 -15 -12 -8 -11 -10 6 -10 20 0 23 -7 29 -72 4
-40 14 -85 21 -100 20 -38 18 -57 -11 -98 -30 -43 -24 -77 19 -99 26 -14 53
-72 41 -91 -4 -6 -21 -8 -41 -4 -32 6 -34 4 -34 -20 0 -31 -11 -33 -35 -6 -15
17 -17 31 -12 90 5 65 4 72 -18 93 -33 31 -70 102 -95 183 -12 38 -31 89 -42
114 -12 25 -20 63 -19 84 1 50 -24 151 -53 213 -13 26 -27 59 -31 73 -22 71
-110 170 -187 209 -17 9 -35 23 -39 31 -10 20 -53 116 -71 159 l-14 33 -28
-41 c-16 -23 -27 -44 -24 -47 21 -20 -86 -244 -116 -244 -8 0 -31 -17 -52 -38
-22 -22 -58 -51 -81 -65 -32 -20 -46 -38 -61 -79 -11 -30 -18 -66 -15 -80 6
-30 -27 -92 -56 -108 -19 -10 -61 -108 -61 -142 0 -11 -14 -38 -31 -59 -17
-22 -32 -45 -33 -52 -4 -25 -27 -57 -42 -57 -8 0 -19 -10 -23 -22 -5 -13 -35
-50 -66 -83 -32 -33 -70 -79 -87 -102 -23 -35 -36 -44 -69 -49 -26 -4 -43 -14
-51 -28 -14 -27 -59 -65 -77 -66 -15 0 -71 -57 -71 -72 0 -4 -37 -46 -83 -93
-62 -63 -90 -85 -109 -85 -51 0 -43 37 14 70 9 6 33 43 53 84 39 80 57 97 124
117 29 9 46 20 52 36 5 13 22 29 38 34 16 6 32 17 35 25 3 9 10 13 15 9 5 -3
13 5 17 17 4 13 24 38 45 56 21 18 55 61 75 95 20 34 54 80 74 102 20 22 48
56 61 75 13 19 29 40 36 45 7 6 17 46 23 89 5 44 17 87 25 96 8 9 15 24 15 32
0 9 7 21 15 28 8 7 15 27 15 45 0 45 29 92 65 107 51 20 174 146 185 190 7 25
17 38 28 39 9 0 31 21 48 47 26 39 32 61 38 131 4 46 10 90 13 97 9 25 -35 16
-114 -23 -42 -21 -90 -50 -107 -65 -17 -16 -33 -28 -37 -28 -4 0 -14 -18 -23
-40 -16 -41 -21 -68 -10 -57 4 3 19 0 35 -8 15 -8 36 -15 46 -15 10 -1 29 -10
42 -21 23 -19 23 -20 5 -40 -16 -17 -25 -20 -59 -14 -22 4 -47 8 -55 9 -9 1
-21 6 -29 10 -20 13 -62 -15 -68 -44 -2 -15 -20 -44 -39 -64 -19 -21 -46 -61
-59 -89 -14 -27 -33 -56 -43 -63 -11 -7 -22 -27 -25 -43 -9 -42 -85 -127 -127
-142 -19 -6 -43 -18 -53 -27 -26 -23 -27 -11 0 27 12 19 23 30 23 26 0 -5 20
31 45 80 24 49 55 100 69 114 26 28 66 99 66 117 0 6 9 19 20 29 11 10 32 39
47 64 14 25 30 49 36 52 5 4 11 26 13 49 2 24 13 58 25 76 26 42 108 117 151
137 18 9 46 29 62 45 19 21 49 36 93 48 55 15 64 20 61 38 -2 17 -13 23 -53
29 -27 5 -70 15 -95 22 -25 8 -76 19 -114 24 -37 6 -75 16 -85 23 -40 34 -114
43 -132 16 -3 -5 -35 -4 -75 2 -59 9 -84 8 -167 -9 -53 -12 -110 -27 -125 -35
-21 -11 -49 -13 -109 -9 -58 4 -95 1 -134 -10 -30 -9 -70 -18 -90 -22 -19 -3
-53 -14 -74 -25 -29 -15 -59 -20 -116 -20 -73 0 -79 2 -101 29 -29 34 -77 50
-138 46 -61 -4 -80 8 -80 50 0 31 3 35 28 35 46 0 159 -37 220 -72 31 -18 60
-32 63 -31 4 1 17 4 30 7 13 2 35 9 49 14 14 6 77 23 140 37 63 14 147 33 185
42 39 9 93 16 122 15 29 -1 89 4 135 12 46 7 102 11 124 9 28 -3 50 0 66 11
26 17 89 19 128 3 14 -6 31 -11 39 -13 8 -1 17 -8 21 -14 5 -8 21 -10 46 -6
22 4 91 2 154 -3 122 -10 157 -3 145 27 -3 9 -9 29 -12 44 -4 22 -1 27 18 30
24 3 24 4 24 123 0 96 -4 127 -18 153 -10 19 -22 65 -26 103 l-7 70 25 -6 c41
-10 50 -25 60 -100 8 -51 16 -75 31 -87 12 -10 25 -30 29 -45 8 -30 29 -37 42
-13 5 8 27 55 50 104 l41 90 -11 125 c-7 69 -12 145 -12 168 0 38 -3 42 -29
48 -23 5 -29 11 -27 27 2 11 -5 50 -15 87 -10 36 -18 75 -18 86 0 11 -12 42
-25 70 -22 45 -23 52 -10 72 8 12 15 29 15 37 0 13 10 17 53 25 4 0 12 -11 17
-25z m-404 -139 c1 -5 9 -38 17 -73 9 -34 27 -82 41 -106 14 -24 22 -46 19
-50 -3 -3 -1 -6 5 -6 10 0 29 -100 24 -127 -2 -6 6 -17 16 -25 20 -14 42 -49
42 -67 0 -22 -37 -10 -48 14 -7 14 -19 28 -27 31 -8 4 -15 14 -15 23 0 9 -14
37 -32 60 -28 38 -33 56 -43 146 -7 64 -19 117 -32 141 -22 42 -22 72 -1 85
12 7 24 -9 34 -46z m2546 -1350 c19 -8 66 -22 104 -31 64 -16 184 -84 184
-105 0 -4 20 -15 44 -24 33 -13 48 -25 57 -49 7 -17 21 -39 32 -50 12 -12 15
-22 9 -28 -15 -15 -59 16 -128 90 -57 61 -64 66 -115 72 -30 4 -107 19 -171
33 -148 33 -246 31 -312 -8 -36 -21 -56 -25 -119 -25 -78 0 -93 7 -83 38 7 21
141 47 227 44 46 -2 66 3 113 28 64 33 106 37 158 15z"/>
<path d="M3300 7415 c0 -15 48 -53 73 -59 16 -4 45 -22 64 -41 20 -19 40 -35
45 -35 5 0 16 -7 25 -15 8 -9 45 -35 82 -59 37 -24 73 -51 80 -60 24 -29 101
-56 159 -56 86 0 235 21 257 37 20 13 20 14 -2 19 -13 4 -23 10 -23 15 0 5 -8
9 -17 9 -21 1 -53 23 -53 37 0 6 -27 16 -61 23 -33 7 -63 19 -66 26 -2 7 -12
12 -21 12 -35 -2 -149 37 -225 77 -16 8 -43 15 -60 15 -18 1 -50 8 -72 16 -22
9 -51 15 -64 15 -14 -1 -27 3 -30 7 -7 10 -91 25 -91 17z"/>
<path d="M3925 7390 c-16 -25 8 -95 43 -129 33 -30 39 -33 76 -26 62 11 101 8
137 -11 19 -9 60 -17 94 -18 33 -1 65 -4 70 -5 6 -2 21 -3 35 -2 23 2 21 4
-14 21 -22 11 -50 20 -63 20 -13 0 -23 5 -23 10 0 6 -10 10 -23 10 -13 0 -34
12 -48 26 -27 29 -76 57 -87 50 -4 -2 -32 11 -62 30 -55 34 -122 46 -135 24z"/>
<path d="M4843 7262 c-19 -12 -4 -52 19 -52 10 0 17 -4 14 -9 -7 -10 64 -28
164 -40 68 -9 151 -30 160 -41 10 -14 159 -49 208 -50 26 0 32 4 32 21 0 23
-51 49 -96 49 -15 0 -41 4 -58 9 -17 5 -76 21 -131 35 -55 14 -138 39 -185 55
-91 32 -108 35 -127 23z"/>
<path d="M9951 7006 c-20 -11 -21 -14 -7 -19 9 -4 16 -12 15 -19 -3 -20 12
-48 26 -48 12 0 30 -14 98 -77 21 -19 41 -32 44 -29 4 3 15 -1 25 -11 17 -15
18 -14 12 33 -4 27 -11 57 -15 66 -5 9 -9 29 -9 45 0 45 -13 55 -71 59 -30 1
-63 5 -74 7 -12 3 -31 -1 -44 -7z"/>
<path d="M5536 6829 c-11 -25 -16 -29 -16 -14 -1 17 -3 16 -13 -7 -16 -35 -47
-68 -64 -68 -8 0 -13 -7 -11 -17 9 -45 230 -91 373 -77 75 7 109 20 166 65 20
16 42 29 48 29 5 0 15 9 21 20 8 16 8 20 -4 20 -8 0 -19 7 -24 16 -5 9 -30 18
-65 23 -30 4 -62 13 -71 20 -9 8 -69 14 -170 18 l-156 6 -14 -34z"/>
<path d="M6266 6551 c-10 -11 -21 -20 -25 -19 -20 2 -32 -5 -45 -29 -45 -83
-49 -94 -40 -102 5 -5 57 -11 117 -14 l107 -5 -1 83 c-1 90 -2 91 -64 101 -23
3 -36 -1 -49 -15z"/>
<path d="M6646 6531 c-3 -4 6 -19 19 -31 20 -19 25 -33 25 -71 0 -26 -6 -54
-13 -61 -8 -7 -12 -19 -10 -25 3 -7 -1 -22 -8 -35 -6 -13 -8 -20 -4 -16 4 4
19 -1 32 -12 61 -48 146 -33 163 28 11 43 0 55 -42 46 -21 -4 -28 -2 -28 10 0
9 -9 21 -20 28 -22 14 -29 78 -8 78 19 0 -25 29 -45 30 -10 0 -20 6 -23 14 -7
17 -31 28 -38 17z"/>
<path d="M7219 6351 l23 -6 -23 -11 c-13 -6 -54 -25 -91 -43 -36 -17 -70 -31
-75 -32 -29 -1 -82 -119 -54 -119 7 0 9 -4 6 -10 -11 -17 3 -11 32 16 99 90
147 125 166 124 44 -4 59 0 54 14 -3 7 -1 18 5 24 5 5 7 19 3 31 -5 16 -14 21
-38 20 -28 -1 -29 -2 -8 -8z"/>
<path d="M6424 6324 c4 -14 10 -40 13 -58 8 -44 18 -53 55 -48 43 6 99 62 91
91 -6 23 -17 27 -107 36 l-58 5 6 -26z"/>
<path d="M5820 6330 c0 -5 -7 -10 -15 -10 -8 0 -19 -17 -25 -42 -7 -22 -18
-51 -26 -64 -12 -18 -13 -30 -4 -64 10 -36 14 -41 33 -36 12 3 25 6 30 6 4 0
7 5 7 11 0 5 13 24 29 41 34 36 113 52 124 24 3 -8 0 -22 -8 -30 -22 -21 -19
-26 15 -26 25 0 30 -4 30 -25 0 -16 -7 -28 -17 -31 -57 -18 -60 -21 -31 -34
32 -15 76 -6 85 18 4 9 12 21 20 25 7 4 13 21 13 37 0 16 5 40 11 53 9 20 8
28 -6 45 -10 11 -24 18 -32 15 -8 -3 -13 0 -11 8 2 9 -8 15 -24 17 -16 2 -28
8 -28 13 0 6 -4 8 -9 4 -5 -3 -12 -1 -16 5 -20 33 -145 67 -145 40z"/>
<path d="M7396 6321 c-12 -13 -15 -35 -14 -89 2 -60 -1 -76 -20 -102 -36 -48
-17 -89 41 -90 34 0 59 -22 51 -44 -9 -22 15 -76 33 -76 8 0 23 5 34 10 17 10
18 13 5 33 -22 33 -8 84 29 105 30 17 54 41 55 54 0 4 -17 6 -37 5 l-38 -2 -3
47 c-3 38 1 50 22 72 52 51 24 77 -95 90 -37 4 -50 1 -63 -13z"/>
<path d="M6278 6054 c-2 -1 -23 -4 -46 -5 -29 -2 -52 -11 -68 -26 -14 -13 -35
-23 -48 -23 -12 0 -31 -7 -42 -15 -11 -9 -42 -15 -79 -15 -62 0 -97 -12 -76
-24 6 -4 11 -16 11 -27 0 -10 5 -19 10 -19 6 0 10 -9 10 -20 0 -16 -7 -20 -38
-20 -21 0 -42 4 -48 9 -9 9 -43 14 -73 12 -12 -1 -11 -4 1 -18 27 -31 31 -60
9 -66 -27 -7 -56 -54 -44 -70 14 -18 35 -106 27 -118 -11 -19 6 -59 26 -59 10
0 23 -7 28 -16 7 -13 19 -16 56 -12 25 3 49 2 52 -3 3 -5 9 -7 14 -4 11 7 90
-13 90 -22 0 -4 -7 -14 -15 -23 -13 -14 -13 -19 1 -38 8 -12 22 -22 30 -22 8
0 12 -4 9 -10 -4 -6 5 -10 20 -10 25 0 25 -1 9 -25 -11 -17 -14 -34 -10 -53 4
-15 8 -35 10 -44 1 -10 5 -21 9 -24 13 -13 7 -62 -9 -75 -12 -10 -15 -24 -11
-52 3 -21 7 -40 9 -43 10 -10 79 -14 95 -6 10 5 30 12 46 16 22 5 27 3 27 -13
0 -30 36 -38 130 -28 25 3 89 -3 145 -14 82 -16 104 -24 123 -46 l24 -26 -24
-18 c-12 -10 -33 -19 -46 -19 -21 0 -22 -1 -8 -16 9 -8 14 -19 11 -24 -3 -4 5
-10 18 -12 35 -7 149 -1 156 9 3 5 31 27 61 48 30 22 78 62 107 88 47 45 51
51 42 75 -19 51 -46 69 -102 71 -72 2 -116 7 -124 15 -11 11 -23 7 -23 -9 0
-8 -4 -15 -10 -15 -5 0 -9 6 -7 13 1 8 -8 11 -25 9 -16 -1 -28 1 -28 5 0 4
-28 17 -62 27 -35 11 -69 24 -75 29 -15 11 -18 31 -3 22 6 -3 10 3 10 13 0 16
-10 22 -47 28 -56 11 -62 25 -36 80 16 33 24 40 63 47 47 9 62 21 53 43 -6 18
18 29 28 13 7 -12 12 -12 29 -1 14 8 26 10 33 4 13 -10 17 -10 124 11 65 12
106 27 74 27 -18 0 42 49 65 53 11 2 32 9 48 16 16 6 37 9 46 6 10 -3 37 6 63
22 52 32 70 71 41 88 -9 5 -25 17 -34 26 -19 18 -26 20 -159 49 -52 11 -110
29 -128 40 -19 11 -42 20 -51 20 -9 0 -28 9 -42 20 -14 11 -35 20 -47 20 -12
0 -24 4 -28 9 -7 12 -113 61 -130 61 -8 0 -22 11 -33 25 -13 16 -30 25 -49 25
-16 0 -38 7 -51 15 -22 16 -108 45 -114 39z"/>
<path d="M7610 5950 c-14 -4 -20 -8 -13 -9 6 -1 12 -9 12 -18 0 -10 5 -36 11
-58 7 -22 15 -60 19 -85 5 -38 9 -45 26 -42 32 5 86 3 105 -3 15 -5 17 -1 10
36 -4 22 -13 46 -19 52 -6 6 -11 19 -11 28 0 9 -11 24 -25 33 -13 9 -32 30
-40 46 -16 31 -30 34 -75 20z"/>
<path d="M19178 5603 c-12 -3 -18 -14 -18 -33 0 -16 -5 -32 -10 -35 -8 -5 -8
-11 0 -20 8 -9 8 -15 0 -20 -14 -9 -13 -51 3 -76 10 -17 9 -22 -8 -35 -12 -9
-32 -13 -50 -11 -40 6 -65 -8 -65 -38 0 -13 -7 -30 -15 -38 -11 -11 -11 -17
-3 -19 12 -4 -15 -49 -54 -92 -10 -11 -18 -25 -18 -31 0 -7 -20 -31 -45 -54
-25 -23 -45 -46 -45 -50 0 -4 -11 -14 -25 -21 -14 -8 -24 -19 -21 -25 2 -7
-10 -26 -28 -42 -18 -18 -32 -42 -34 -59 -3 -40 -22 -56 -23 -18 0 16 -3 22
-6 14 -3 -8 -14 -23 -24 -33 -9 -10 -20 -35 -24 -55 -6 -35 -31 -92 -44 -102
-21 -17 -41 -65 -41 -101 0 -52 -36 -104 -79 -112 -16 -4 -38 -18 -48 -33 -10
-14 -35 -44 -55 -66 -21 -22 -38 -44 -38 -49 0 -5 -6 -9 -14 -9 -17 0 -106
-97 -106 -115 0 -25 -114 -105 -150 -105 -9 0 -28 -13 -41 -28 -43 -50 -103
-92 -131 -92 -15 0 -29 -4 -33 -10 -3 -5 -12 -7 -20 -3 -14 5 -19 -6 -16 -32
0 -6 -13 -16 -30 -24 -21 -9 -28 -18 -24 -29 3 -8 8 -40 11 -70 5 -52 3 -56
-31 -89 -19 -19 -44 -51 -54 -72 -11 -20 -38 -50 -60 -65 -63 -44 -183 -176
-207 -228 -13 -26 -49 -73 -81 -106 -68 -70 -83 -88 -83 -100 0 -5 -8 -16 -18
-26 -19 -17 -48 -94 -38 -103 3 -3 126 -6 273 -7 262 -3 304 -7 448 -43 104
-25 259 -79 320 -111 31 -16 123 -90 162 -131 l22 -23 -26 -27 c-21 -21 -34
-26 -62 -22 -32 3 -34 2 -19 -13 9 -9 24 -16 32 -16 32 0 73 -53 78 -100 5
-39 14 -54 72 -113 36 -37 66 -71 66 -76 0 -5 21 -11 48 -14 91 -9 127 -19
260 -69 56 -21 144 -58 194 -83 51 -25 93 -45 95 -45 2 0 3 305 3 679 l0 679
-30 6 c-18 3 -30 12 -30 21 0 8 -4 15 -10 15 -5 0 -12 0 -15 0 -10 0 -71 36
-92 55 -29 25 -32 75 -4 75 11 0 27 -7 35 -16 22 -21 106 -79 129 -87 16 -6
17 46 17 1013 0 561 -1 1019 -2 1019 -2 -1 -11 -3 -20 -6z"/>
<path d="M11140 4885 c-7 -8 -18 -15 -26 -15 -18 0 -27 -17 -17 -32 11 -19 3
-61 -15 -75 -21 -15 -74 -17 -89 -2 -8 8 -13 5 -18 -11 -4 -12 -5 -24 -2 -27
3 -2 -1 -23 -9 -45 -8 -22 -14 -42 -14 -44 0 -7 140 -74 155 -74 8 0 15 5 15
11 0 8 17 9 55 4 62 -7 129 12 171 49 13 12 37 33 53 48 22 19 26 28 16 32 -8
3 -26 23 -40 46 l-25 40 -54 -6 c-70 -8 -96 5 -96 51 0 32 -8 40 -33 36 -5 -1
-6 3 -3 8 11 16 -11 22 -24 6z"/>
<path d="M11734 4646 c-14 -89 -8 -134 19 -142 12 -4 34 -20 50 -36 16 -16 32
-27 35 -24 3 3 25 -12 48 -34 48 -44 80 -50 132 -24 18 8 32 17 32 20 0 13
-46 54 -57 50 -6 -3 -15 4 -18 15 -5 14 -12 18 -26 14 -14 -5 -19 -2 -19 13 0
10 -9 27 -20 37 -10 9 -26 42 -35 72 -19 66 -45 94 -94 100 l-37 5 -10 -66z"/>
<path d="M8550 4631 c0 -17 -51 -59 -80 -65 -17 -3 -40 -15 -52 -26 -21 -20
-21 -21 -4 -57 10 -20 21 -33 24 -27 4 5 18 10 31 12 13 2 36 17 52 33 15 16
34 29 41 29 38 0 66 82 34 102 -15 11 -46 10 -46 -1z"/>
<path d="M11496 4553 c-3 -3 -6 -17 -6 -29 0 -19 -7 -24 -43 -29 -24 -4 -52
-5 -63 -4 -23 4 -44 -8 -44 -25 0 -7 20 -26 45 -44 25 -18 50 -43 55 -57 6
-15 17 -25 30 -25 11 0 23 -6 26 -13 3 -8 17 -14 33 -14 35 0 121 -25 116 -34
-3 -3 7 -4 22 -1 25 5 25 6 8 18 -10 8 -28 14 -39 15 -21 0 -21 1 -1 8 16 7
13 9 -20 15 -22 4 -45 16 -53 27 -7 10 -19 19 -25 19 -18 0 -47 53 -47 84 0
21 5 26 28 27 27 2 27 2 2 6 -24 5 -23 6 10 17 36 11 43 31 12 31 -9 1 -22 4
-28 8 -6 3 -14 4 -18 0z"/>
<path d="M8402 4348 c-15 -19 -60 -119 -67 -150 -4 -16 -13 -28 -21 -28 -8 0
-13 -3 -12 -7 3 -18 -16 -50 -48 -78 -28 -26 -33 -38 -35 -81 -3 -56 4 -74 29
-74 21 0 61 -81 69 -139 7 -50 24 -67 52 -52 11 6 24 10 28 9 13 -3 57 13 74
29 14 12 23 12 57 1 46 -14 63 -49 38 -77 -8 -9 -18 -33 -21 -54 -4 -22 -15
-41 -24 -45 -9 -3 -20 -11 -24 -19 -5 -7 -28 -13 -55 -14 -76 -2 -97 -11 -100
-44 -2 -17 -9 -33 -15 -37 -6 -4 -8 -10 -4 -15 5 -4 12 -2 16 6 5 7 17 11 27
10 26 -4 92 19 134 47 23 16 49 24 77 24 23 0 44 4 47 9 4 5 40 8 81 6 71 -4
75 -3 95 23 41 52 90 134 90 151 0 9 6 25 13 36 7 11 14 36 15 55 2 19 8 37
14 41 7 4 -1 9 -18 11 -26 3 -29 7 -32 45 -3 35 1 44 20 57 13 8 32 16 43 18
27 4 53 34 59 66 8 46 4 62 -16 62 -23 0 -43 18 -52 48 -4 12 -15 22 -24 23
-14 0 -13 2 3 9 19 8 19 9 -2 9 -13 1 -23 -3 -23 -9 0 -5 -6 -10 -14 -10 -7 0
-27 -7 -42 -15 -16 -8 -22 -15 -14 -15 12 0 13 -2 1 -9 -7 -5 -29 -7 -48 -6
-19 2 -32 1 -29 -2 10 -10 -14 -43 -44 -58 -18 -9 -30 -23 -30 -36 0 -11 -7
-22 -15 -25 -8 -3 -17 -14 -20 -24 -3 -11 -11 -17 -18 -14 -11 4 -17 -5 -46
-81 -25 -64 -77 -102 -85 -62 -3 12 -8 36 -11 52 -3 17 -8 44 -11 60 -8 45
-26 76 -50 85 -11 5 -21 14 -22 22 -1 7 -4 25 -8 40 -4 18 0 41 11 65 10 20
21 48 25 62 4 14 12 25 18 24 6 -1 14 12 17 29 6 24 3 35 -11 45 -22 16 -29
16 -42 1z"/>
<path d="M9011 4269 c-7 -50 -10 -94 -7 -96 5 -5 53 24 74 44 7 7 20 13 28 13
8 0 14 8 14 18 0 9 7 26 15 36 20 26 19 56 -1 56 -8 0 -12 5 -9 10 4 6 -14 10
-48 10 l-54 0 -12 -91z"/>
<path d="M12233 4343 c-19 -7 -16 -60 3 -67 9 -4 31 -4 49 0 44 8 145 -12 169
-35 30 -27 134 -73 157 -69 33 5 -35 92 -96 122 -67 34 -244 65 -282 49z"/>
<path d="M10210 4265 c-25 -8 -70 -17 -101 -20 -34 -4 -64 -13 -76 -24 -11
-11 -43 -21 -76 -25 -31 -4 -57 -12 -57 -17 0 -5 -7 -9 -16 -9 -13 0 -14 -3
-4 -15 12 -15 6 -35 -11 -35 -16 0 -79 -73 -79 -92 0 -10 -4 -18 -10 -18 -13
0 -29 -33 -36 -72 -7 -47 -13 -79 -19 -108 -16 -81 -21 -124 -17 -146 2 -14 0
-24 -7 -24 -7 0 -9 -4 -6 -10 3 -5 -2 -21 -11 -34 -24 -37 -33 -88 -40 -211
-3 -60 -10 -135 -16 -165 -5 -30 -11 -65 -13 -77 -2 -12 -6 -26 -9 -32 -13
-20 -16 -84 -6 -96 8 -9 7 -17 -2 -26 -7 -8 -13 -34 -13 -59 -1 -25 -7 -101
-15 -170 -7 -69 -12 -169 -11 -223 2 -107 -3 -137 -24 -137 -15 0 -28 51 -22
85 2 11 0 36 -5 57 -4 21 -4 47 2 62 16 43 13 109 -11 191 -30 109 -30 108
-35 461 -3 309 -9 364 -39 364 -8 0 -15 6 -15 14 0 8 -13 27 -29 42 -16 15
-35 44 -42 66 -15 47 -31 57 -82 50 -27 -3 -37 -8 -33 -18 3 -9 -4 -16 -18
-20 -28 -7 -136 -115 -136 -137 0 -9 -9 -19 -20 -22 -11 -3 -20 -13 -20 -21 0
-8 -4 -14 -9 -14 -10 0 -72 -80 -116 -151 -30 -49 -61 -92 -80 -113 -14 -16
-45 -72 -45 -83 0 -4 14 -16 31 -25 25 -15 30 -23 27 -50 l-3 -33 -72 -1 c-67
0 -73 -2 -97 -31 -14 -17 -26 -36 -26 -42 0 -6 -4 -11 -9 -11 -5 0 -15 -15
-21 -34 -6 -19 -17 -37 -25 -40 -8 -3 -15 -13 -15 -22 0 -9 -6 -28 -14 -42 -8
-15 -17 -35 -20 -45 -3 -9 -17 -22 -31 -27 -14 -5 -25 -14 -25 -20 0 -5 -6
-10 -14 -10 -8 0 -17 -9 -21 -19 -3 -11 -15 -23 -26 -26 -10 -4 -19 -13 -19
-20 0 -8 -8 -20 -18 -27 -9 -7 -42 -51 -71 -98 -30 -47 -66 -103 -80 -125 -38
-59 -49 -78 -60 -100 -5 -11 -19 -29 -32 -40 -33 -29 -98 -109 -116 -142 -9
-15 -27 -62 -42 -103 -15 -41 -33 -85 -39 -97 -7 -12 -17 -46 -22 -75 -6 -28
-16 -59 -24 -67 -7 -9 -11 -22 -9 -29 3 -7 -4 -23 -14 -35 -11 -12 -23 -29
-27 -37 -3 -8 -17 -33 -31 -55 -13 -22 -29 -51 -34 -65 -6 -14 -16 -34 -23
-45 -38 -63 -62 -115 -73 -155 -35 -124 -134 -364 -168 -405 -4 -5 -19 -26
-33 -45 -13 -19 -63 -74 -109 -121 -47 -48 -85 -94 -85 -103 0 -30 -40 -101
-100 -176 -34 -41 -79 -104 -100 -140 -56 -91 -63 -102 -81 -130 -9 -14 -18
-47 -21 -75 -3 -27 -14 -70 -26 -95 -21 -45 -52 -120 -52 -125 0 -23 289 -25
4438 -25 4167 0 4374 1 4359 18 -11 12 -13 22 -6 35 6 9 17 42 25 73 8 31 20
65 26 77 24 42 37 113 38 197 0 83 1 87 45 155 24 39 48 75 52 80 23 28 43 66
43 80 0 9 6 26 14 38 8 12 17 49 20 82 11 117 26 217 36 235 6 10 10 29 10 42
0 14 13 37 30 53 16 16 28 31 25 33 -3 3 1 12 7 20 7 7 14 23 15 35 2 12 10
31 18 44 8 12 15 31 15 42 0 11 10 28 23 38 12 10 40 41 62 68 22 28 57 69 80
91 88 90 138 170 165 262 7 23 17 42 21 42 8 0 24 40 21 52 -3 12 29 91 44
108 10 12 12 63 11 207 -1 105 -5 189 -9 186 -5 -2 -8 5 -8 16 0 11 -3 22 -7
24 -11 6 -73 -21 -73 -32 0 -4 -19 -21 -42 -37 -24 -16 -51 -36 -61 -44 -10
-8 -20 -14 -23 -12 -3 2 -19 -8 -35 -22 -18 -15 -43 -26 -60 -26 -16 0 -29 -4
-29 -10 0 -5 -9 -10 -20 -10 -12 0 -32 -7 -45 -16 -27 -17 -63 -11 -81 14 -16
21 -5 52 17 52 11 0 19 5 19 11 0 5 -5 7 -11 3 -7 -4 -9 0 -5 12 10 32 26 207
19 217 -6 11 -148 3 -213 -12 -25 -6 -92 -15 -149 -21 -57 -6 -109 -14 -115
-18 -14 -8 -25 -11 -113 -23 -73 -10 -135 -22 -208 -40 -77 -20 -157 -27 -188
-18 -18 5 -61 9 -97 8 -44 -1 -76 3 -98 15 -17 9 -32 14 -32 10 0 -3 -25 8
-55 25 -34 19 -75 33 -112 37 -58 7 -157 38 -181 57 -7 5 -56 11 -110 12 -112
3 -255 22 -260 36 -2 5 -12 9 -22 9 -9 0 -35 8 -56 17 -22 9 -41 17 -44 17
-14 2 -107 41 -125 52 -11 6 -31 15 -45 19 -14 4 -58 23 -98 41 -40 19 -96 42
-125 52 -70 25 -149 83 -173 127 -10 19 -22 35 -26 35 -5 0 -8 7 -8 15 0 8 -4
15 -8 15 -4 0 -23 26 -42 58 -18 31 -50 80 -71 107 -20 28 -47 70 -59 94 -12
25 -54 74 -93 110 -38 36 -88 85 -110 109 -35 37 -46 42 -84 42 -24 0 -60 7
-81 15 -44 19 -106 12 -125 -14 -17 -23 -100 -26 -152 -5 -63 26 -118 55 -141
75 -11 11 -25 19 -32 19 -6 0 -17 9 -24 19 -15 21 -127 69 -250 107 -42 14
-80 29 -83 34 -3 6 -22 10 -40 10 -24 0 -38 6 -45 20 -6 11 -22 23 -35 26 -14
3 -25 10 -25 15 0 17 -39 30 -60 19 -14 -7 -20 -7 -20 0 0 5 5 10 12 10 6 0 4
7 -5 18 -10 10 -14 22 -10 25 3 4 0 7 -7 7 -9 0 -11 -10 -7 -35 3 -20 2 -35
-4 -35 -6 0 -8 -4 -5 -9 3 -5 -7 -11 -22 -14 -15 -3 -35 -9 -46 -13 -17 -7
-18 -3 -12 57 7 59 5 66 -16 86 -37 34 -144 83 -181 83 -21 0 -41 -8 -52 -20
-10 -11 -22 -20 -27 -20 -22 0 -38 -32 -42 -80 -3 -48 -26 -90 -53 -101 -15
-6 -53 -136 -53 -182 0 -23 -4 -58 -9 -77 -22 -85 -23 -125 -2 -149 17 -20 26
-22 60 -16 36 6 43 3 69 -23 17 -17 36 -39 43 -49 8 -11 37 -30 64 -43 39 -19
63 -24 111 -22 44 2 75 -3 115 -19 38 -15 75 -22 124 -21 83 0 135 19 167 63
29 39 57 53 131 69 57 11 85 7 58 -9 -7 -5 -12 -12 -11 -17 2 -5 -16 -18 -38
-29 -48 -23 -54 -45 -14 -45 16 0 31 -3 35 -6 11 -11 -25 -55 -42 -52 -9 2
-30 -7 -45 -20 -16 -12 -35 -22 -43 -22 -29 0 -102 -41 -108 -60 -7 -22 -21
-26 -27 -8 -2 6 -30 12 -69 13 -106 4 -182 15 -199 29 -8 7 -55 19 -103 26
-67 9 -91 17 -100 31 -7 11 -17 19 -24 19 -7 0 -13 4 -13 9 0 12 -45 22 -64
15 -11 -4 -16 -19 -16 -47 0 -27 -8 -50 -25 -73 -20 -27 -24 -42 -23 -91 1
-32 -4 -68 -10 -80 -16 -28 -15 -54 1 -52 31 4 48 -1 40 -13 -4 -7 -8 -47 -8
-88 0 -72 -1 -75 -28 -88 -25 -12 -30 -12 -41 4 -12 16 -14 16 -34 -4 -12 -12
-33 -24 -46 -28 -34 -8 -41 -33 -38 -134 3 -97 -12 -166 -40 -183 -10 -7 -18
-17 -18 -24 0 -17 -50 -73 -65 -73 -14 0 -45 -58 -45 -87 0 -39 -13 -63 -37
-69 -50 -13 -59 49 -14 95 16 17 40 58 52 92 18 48 31 66 62 87 l39 26 -7 118
c-8 138 0 161 59 172 34 7 36 9 36 46 0 27 -4 40 -13 40 -17 0 -15 24 7 73 25
58 41 163 46 299 0 5 3 7 8 7 4 -1 15 -1 26 0 15 1 16 3 6 16 -11 13 -15 13
-21 3 -7 -10 -9 -9 -9 5 0 9 -5 17 -10 17 -6 0 -22 27 -37 60 -14 33 -31 60
-38 60 -6 0 -18 -15 -26 -32 -12 -29 -19 -33 -54 -33 -51 -1 -70 -10 -118 -58
l-40 -40 -19 26 c-22 31 -70 36 -102 12 -27 -20 -54 -19 -52 2 0 10 17 25 36
34 19 9 44 26 54 38 11 11 23 21 28 21 16 0 98 72 98 85 0 7 6 15 14 18 7 3
25 26 39 51 l25 46 -45 55 c-25 30 -52 55 -59 55 -14 0 -42 20 -75 54 -9 10
-30 19 -46 20 -15 1 -53 14 -84 29 -31 15 -73 27 -93 27 -29 0 -44 7 -66 31
-40 44 -43 65 -13 89 36 28 47 26 97 -25 47 -47 92 -59 114 -32 20 24 17 100
-6 144 -27 51 -47 48 -56 -8 -6 -36 -9 -39 -37 -39 -30 0 -30 0 -28 50 2 42
-1 53 -19 66 -16 11 -22 25 -22 50 0 26 -10 47 -35 78 -19 24 -35 48 -35 54 0
13 -41 56 -55 59 -5 1 -18 5 -27 8 -16 6 -18 -1 -18 -69 0 -53 -4 -76 -12 -77
-66 -6 -63 -9 -63 62 0 41 -5 72 -14 82 -7 10 -10 17 -5 18 15 2 -39 17 -61
17 -11 1 -40 -6 -65 -13z m2377 -989 c-2 -13 75 -13 176 -1 44 5 67 4 67 -2 0
-19 -24 -31 -85 -43 -33 -6 -70 -18 -82 -26 -32 -20 -66 -17 -92 7 -16 16 -29
19 -49 14 -71 -17 -85 -18 -80 -4 3 8 14 19 25 24 12 6 27 16 35 23 8 6 18 9
21 5 4 -3 7 -1 7 5 0 6 13 10 29 10 17 -1 29 -6 28 -12z m-1757 -276 c0 -40
-34 -90 -84 -123 -28 -19 -70 -53 -92 -76 -39 -38 -84 -55 -84 -30 0 16 56 69
74 69 18 0 56 51 56 76 0 23 87 104 111 104 12 0 19 -7 19 -20z m1320 -90 c21
-22 46 -40 54 -40 9 0 36 -18 60 -40 24 -22 48 -40 53 -40 5 0 35 -18 66 -40
30 -22 62 -40 71 -40 15 0 32 -18 23 -26 -2 -3 -20 -7 -38 -10 -30 -5 -40 0
-79 35 -25 23 -48 41 -52 41 -4 0 -13 6 -20 13 -7 6 -32 24 -55 40 -24 15 -43
34 -43 42 0 8 -7 15 -15 15 -8 0 -15 5 -15 10 0 6 -6 10 -13 10 -19 0 -60 47
-52 59 10 16 13 14 55 -29z"/>
<path d="M13658 4230 c-15 -4 -42 -20 -61 -34 -23 -18 -46 -26 -73 -26 -21 0
-57 -6 -78 -14 -22 -8 -47 -12 -55 -11 -9 2 -33 4 -54 4 -21 1 -36 5 -33 9 4
7 -23 5 -181 -14 -29 -4 -53 -10 -53 -14 0 -10 -71 -30 -106 -30 -38 0 -17
-22 24 -24 16 -1 36 -7 45 -14 8 -7 39 -17 69 -23 81 -14 81 -15 109 -26 25
-11 36 -13 129 -29 25 -4 66 -17 92 -30 25 -13 65 -26 87 -30 23 -4 44 -11 47
-15 3 -5 28 -9 56 -9 45 0 55 -4 100 -45 28 -25 55 -45 61 -45 6 0 18 -6 26
-14 9 -7 41 -22 71 -32 65 -21 55 -19 155 -39 69 -15 141 -41 207 -76 10 -5
25 -9 33 -9 8 0 23 -4 33 -9 82 -42 175 -48 199 -14 23 30 14 54 -34 98 l-48
44 -78 1 c-43 0 -87 4 -97 10 -24 13 -34 60 -21 104 9 34 7 38 -23 61 -18 14
-36 25 -40 25 -4 0 -17 11 -29 25 -12 13 -44 33 -72 43 -29 11 -55 29 -62 42
-12 24 -36 42 -63 47 -8 1 -46 7 -84 13 -98 16 -136 33 -136 62 0 22 -17 49
-29 47 -4 0 -18 -4 -33 -9z"/>
<path d="M10710 4220 c-8 -5 -10 -10 -5 -10 6 0 11 -10 12 -21 1 -12 11 -31
22 -43 12 -12 21 -26 21 -30 0 -4 11 -32 25 -61 17 -37 36 -62 62 -78 46 -29
62 -47 97 -109 43 -74 105 -139 130 -136 18 3 21 -3 24 -34 2 -25 8 -38 18
-38 8 0 19 -12 25 -26 9 -26 10 -26 24 -8 8 10 15 24 15 31 0 6 8 18 19 25 10
7 22 29 26 48 4 19 11 41 16 50 5 8 18 44 29 80 29 89 49 128 92 174 29 30 35
43 27 53 -9 9 -8 13 0 13 7 0 9 5 6 10 -3 6 -17 10 -31 10 -13 0 -24 5 -24 11
0 5 -4 8 -9 5 -5 -3 -16 5 -25 18 -10 16 -22 23 -35 19 -10 -3 -28 0 -39 6
-28 15 -202 35 -286 33 -39 -1 -75 2 -80 7 -16 12 -138 12 -156 1z"/>
<path d="M12449 4082 c-42 -18 -89 -67 -89 -92 0 -30 20 -50 103 -104 31 -20
57 -41 57 -45 0 -12 66 -29 97 -24 84 13 89 19 48 57 -27 25 -34 80 -15 117
19 35 -1 50 -69 55 -63 4 -116 26 -89 37 7 3 4 5 -7 6 -11 0 -27 -3 -36 -7z"/>
<path d="M13207 3723 c-16 -16 -4 -43 38 -86 25 -26 45 -51 45 -57 0 -5 6 -10
14 -10 7 0 21 -10 29 -22 9 -13 34 -43 56 -68 23 -25 46 -61 52 -80 20 -60 66
-144 93 -169 14 -13 31 -40 37 -60 17 -51 43 -82 113 -138 136 -109 277 -162
432 -163 49 0 57 -3 174 -69 8 -5 78 -19 154 -31 77 -12 149 -27 160 -33 12
-5 30 -15 41 -21 11 -5 65 -12 120 -14 55 -2 116 -9 136 -17 59 -22 262 -21
489 3 231 25 286 34 383 61 37 11 70 20 72 20 3 0 35 14 70 31 61 29 65 33 59
58 -11 48 -29 77 -49 80 -11 2 -33 16 -50 32 -16 15 -38 30 -47 33 -13 5 -18
17 -18 44 0 25 -3 33 -9 25 -4 -8 -14 -13 -22 -12 -32 5 -38 -3 -44 -55 -8
-63 -9 -64 -115 -41 -132 29 -256 80 -289 120 -7 8 -26 18 -42 21 -16 4 -29
11 -29 16 0 5 -30 9 -67 9 -38 0 -74 4 -82 9 -9 6 -30 3 -58 -7 -35 -13 -46
-23 -50 -44 -7 -34 -23 -27 -23 11 0 22 -6 29 -37 40 -21 7 -54 23 -73 35 -19
13 -52 26 -72 30 -21 4 -38 10 -38 14 0 8 -90 44 -120 48 -68 10 -139 30 -160
44 -14 10 -43 26 -65 36 -22 10 -58 31 -79 46 -21 15 -47 28 -57 28 -10 0 -33
6 -51 14 -18 8 -67 22 -110 31 -42 9 -88 23 -103 31 -15 8 -39 14 -53 14 -29
0 -144 35 -184 56 -14 8 -33 14 -41 14 -8 0 -42 20 -76 45 -34 25 -69 45 -79
45 -10 0 -22 4 -27 9 -6 5 -50 12 -100 16 -49 4 -108 13 -130 21 -42 14 -107
19 -118 7z"/>
<path d="M8585 3373 c-21 -9 -50 -26 -62 -37 -20 -17 -21 -22 -9 -35 8 -9 18
-28 21 -44 13 -52 78 -46 104 10 7 15 17 36 22 45 15 29 10 57 -10 68 -23 12
-17 13 -66 -7z"/>
<path d="M8383 3350 c-55 -22 -65 -91 -21 -152 15 -21 28 -28 54 -28 31 0 34
2 36 33 1 41 -1 84 -8 125 -5 34 -19 39 -61 22z"/>
<path d="M7985 3330 c-3 -5 -26 -10 -51 -10 -24 0 -44 -4 -44 -9 0 -5 -9 -13
-20 -16 -29 -9 -34 -46 -15 -110 l16 -57 37 8 c20 4 78 8 129 9 91 1 123 12
123 40 0 7 7 19 16 26 53 44 27 129 -30 97 -12 -7 -29 -3 -60 11 -45 22 -91
27 -101 11z"/>
<path d="M15447 3231 l-39 -6 31 -29 c22 -21 29 -36 25 -50 -4 -17 -3 -18 5
-6 7 10 11 11 11 3 0 -7 -14 -20 -31 -28 -43 -23 -23 -47 38 -44 36 2 43 6 42
23 0 12 -3 15 -6 8 -7 -19 -32 16 -33 46 0 19 8 25 30 24 42 -2 101 -11 109
-17 6 -3 11 -2 11 4 0 6 7 8 16 4 11 -4 15 -2 13 6 -3 7 -21 19 -42 26 -20 7
-34 9 -31 4 9 -15 -12 -10 -37 9 -30 24 -63 30 -112 23z"/>
<path d="M16305 3227 c-16 -13 -17 -17 -6 -31 7 -9 10 -16 7 -16 -4 0 9 -13
27 -30 19 -16 39 -30 43 -30 5 0 40 -18 78 -40 75 -44 129 -52 145 -22 7 13 4
24 -10 42 -10 14 -19 31 -19 39 0 20 -41 60 -80 77 -53 23 -160 29 -185 11z"/>
<path d="M16000 3046 c0 -45 28 -79 101 -123 61 -37 75 -42 86 -30 10 10 11
20 4 38 -13 33 -101 130 -111 124 -5 -3 -11 -1 -15 5 -3 5 -19 10 -36 10 -24
0 -29 -4 -29 -24z"/>
<path d="M7879 2876 c-39 -20 -85 -32 -136 -34 -26 -2 -36 -10 -57 -46 -29
-50 -34 -86 -11 -86 9 0 26 -7 39 -15 20 -13 22 -22 18 -61 -2 -25 -10 -58
-18 -72 -7 -14 -11 -29 -8 -33 6 -10 34 0 34 12 0 4 16 16 35 25 19 9 35 22
35 29 0 8 9 16 20 20 23 7 60 85 60 127 0 16 4 37 10 47 5 10 13 37 19 60 10
46 4 50 -40 27z"/>
<path d="M17460 2844 c-14 -2 -40 -7 -57 -10 -18 -3 -33 -11 -33 -18 0 -17 44
-35 235 -96 55 -18 109 -36 120 -40 11 -5 58 -18 105 -30 47 -12 101 -26 120
-31 84 -24 159 -40 208 -46 48 -5 52 -4 52 15 0 79 -126 201 -208 202 -13 0
-35 6 -50 14 -42 21 -106 29 -252 31 -74 1 -153 4 -175 7 -22 4 -51 4 -65 2z"/>
<path d="M8188 2750 c-7 -11 -17 -20 -22 -20 -5 0 -20 -10 -33 -22 -28 -26
-86 -50 -133 -54 -47 -4 -48 -4 -25 -14 19 -8 19 -9 -2 -9 -28 -1 -40 -21 -22
-35 18 -13 49 -78 49 -100 0 -11 9 -16 33 -16 45 0 84 20 98 50 6 14 18 38 27
54 8 16 16 39 18 50 1 12 14 47 28 79 21 45 23 57 11 57 -8 0 -20 -9 -27 -20z"/>
<path d="M17510 2502 c0 -4 8 -17 18 -29 16 -20 53 -39 171 -89 24 -10 50 -28
58 -41 9 -13 21 -23 28 -23 8 0 20 -7 29 -15 9 -9 17 -11 21 -5 4 6 12 6 24
-2 15 -9 22 -7 40 11 14 14 34 21 59 21 20 0 54 3 75 6 34 6 37 9 37 40 0 25
-7 38 -32 55 -26 19 -50 24 -142 30 -61 3 -136 14 -167 23 -58 16 -219 30
-219 18z"/>
<path d="M18332 2293 c-18 -2 -30 -9 -27 -14 4 -5 2 -9 -3 -9 -5 0 -12 -9 -15
-20 -4 -16 4 -26 32 -45 21 -13 44 -30 52 -37 8 -8 28 -23 44 -33 17 -10 59
-37 95 -60 36 -23 104 -65 152 -93 48 -28 96 -58 105 -66 26 -21 233 -216 334
-313 47 -46 89 -83 93 -83 3 0 6 100 6 223 l0 222 -78 24 c-42 14 -96 36 -119
49 -23 13 -46 24 -50 24 -4 0 -46 18 -92 39 -46 22 -87 39 -91 39 -4 0 -10 7
-14 15 -3 8 -12 15 -20 15 -9 0 -22 13 -31 30 -10 19 -20 27 -30 24 -8 -3 -27
4 -41 15 -50 39 -208 67 -302 54z"/>
<path d="M16840 2253 c-20 -8 -33 -32 -35 -61 0 -13 -8 -28 -18 -33 -9 -6 -17
-16 -17 -24 0 -7 -4 -15 -8 -17 -19 -7 -71 -133 -78 -186 -3 -31 -10 -61 -14
-67 -4 -5 -17 -40 -29 -78 -26 -85 -36 -104 -60 -112 -26 -8 -64 -72 -48 -79
9 -3 9 -5 0 -5 -7 -1 -13 -9 -13 -18 0 -24 -82 -197 -103 -218 -9 -9 -17 -21
-17 -26 0 -5 -35 -44 -79 -87 -88 -87 -115 -134 -137 -237 -9 -38 -17 -77 -19
-85 -7 -34 -47 -125 -57 -131 -10 -6 -13 -17 -17 -64 -1 -5 -5 -4 -10 3 -5 9
-11 -4 -15 -37 -4 -28 -18 -84 -32 -124 -14 -39 -27 -82 -30 -95 -5 -27 -13
-38 -68 -94 -32 -33 -37 -44 -31 -66 16 -67 17 -93 2 -110 -26 -29 -87 -154
-87 -178 l0 -24 1690 0 1690 0 0 473 -1 472 -79 70 c-44 39 -93 75 -109 82
-37 16 -44 27 -51 83 -5 42 -7 46 -45 57 -106 31 -154 43 -174 43 -20 0 -38
11 -98 60 -25 21 -153 63 -153 50 0 -4 25 -23 55 -41 30 -18 55 -40 55 -49 0
-9 12 -23 26 -31 30 -16 164 -156 164 -171 0 -6 15 -27 33 -48 56 -64 67 -80
67 -94 0 -8 4 -16 8 -18 4 -1 34 -50 67 -108 32 -58 61 -107 64 -110 3 -3 12
-18 20 -33 12 -22 12 -34 3 -61 -20 -54 -15 -82 18 -106 17 -12 30 -27 30 -34
0 -8 7 -19 16 -27 55 -46 70 -158 30 -229 -15 -26 -26 -37 -29 -28 -4 9 -6 7
-6 -5 -1 -15 -4 -16 -23 -6 -40 20 -68 52 -68 76 0 13 -8 38 -17 56 -9 18 -20
55 -23 82 -4 42 -8 50 -25 50 -14 0 -27 14 -42 45 -13 25 -32 58 -44 73 -31
39 -125 194 -148 243 -10 23 -33 57 -51 78 -27 31 -32 42 -28 77 3 38 1 44
-31 68 -20 14 -65 55 -101 91 -100 98 -161 150 -187 156 -13 4 -23 12 -23 20
0 7 -11 21 -26 30 -24 16 -26 16 -57 -7 -26 -20 -43 -24 -97 -23 -37 0 -84 7
-108 17 -23 9 -52 17 -64 17 -12 0 -35 11 -52 24 -48 36 -92 56 -125 56 -37 0
-106 15 -186 40 -63 20 -129 15 -145 -11 -17 -26 -198 29 -223 69 -4 6 -13 12
-20 12 -12 1 -70 120 -70 146 0 7 -3 14 -7 14 -8 0 -30 69 -30 94 0 9 16 51
36 93 43 91 57 142 56 200 -1 59 -14 77 -74 108 -29 15 -69 35 -88 45 -36 19
-154 34 -180 23z m685 -1023 c17 -30 48 -71 68 -91 41 -41 42 -46 23 -72 -12
-16 -19 -17 -55 -7 -23 6 -39 15 -36 20 3 5 -7 16 -22 24 -16 9 -21 16 -13 16
9 0 3 7 -12 16 -16 8 -28 19 -28 24 0 6 -5 9 -12 8 -17 -4 -31 72 -18 100 8
19 17 23 42 20 27 -3 37 -11 63 -58z m429 -640 c13 -13 -18 -40 -45 -40 -9 0
-19 -7 -23 -15 -3 -8 -12 -12 -21 -9 -8 3 -15 2 -15 -3 0 -5 -16 -27 -36 -48
-44 -49 -62 -81 -70 -132 -4 -29 -2 -42 10 -52 9 -7 16 -17 16 -21 0 -5 16
-36 35 -70 32 -57 37 -80 15 -80 -16 0 -91 84 -97 109 -3 14 -14 43 -24 63
-26 51 -24 79 10 137 16 27 27 52 24 55 -3 3 8 8 23 11 16 3 36 11 44 16 8 5
23 12 33 15 10 4 17 16 17 30 0 41 74 65 104 34z"/>
<path d="M7427 2168 c-16 -5 -38 -20 -50 -32 -34 -35 -153 -216 -142 -216 2 0
-12 -16 -31 -34 -26 -25 -36 -44 -37 -68 l-2 -33 55 -1 c30 -1 74 -6 98 -12
28 -6 44 -7 48 0 4 7 9 6 13 -1 4 -6 17 -13 29 -16 12 -2 26 -6 30 -9 7 -4 72
185 72 210 0 6 8 22 19 35 41 53 36 88 -21 150 -10 11 -18 24 -18 29 0 12 -26
12 -63 -2z"/>
<path d="M17920 2091 c0 -14 50 -59 126 -114 67 -48 141 -107 189 -151 28 -25
54 -45 58 -46 4 0 23 -16 43 -35 19 -19 47 -43 62 -52 15 -10 61 -45 103 -78
78 -61 104 -78 194 -125 28 -15 59 -31 70 -37 11 -6 42 -21 68 -34 81 -40 87
-43 87 -51 0 -5 4 -8 10 -8 5 0 46 -25 91 -55 45 -30 83 -55 86 -55 3 0 14
-11 24 -24 10 -13 30 -26 44 -28 l25 -5 0 134 c0 134 -8 173 -35 173 -8 0 -15
5 -15 11 0 5 -13 15 -30 20 -16 6 -30 16 -30 22 0 20 -38 -24 -43 -51 -4 -16
-18 -34 -35 -43 -38 -22 -68 -6 -103 53 -23 39 -29 43 -67 45 -31 1 -48 8 -62
25 -11 12 -19 27 -20 31 0 4 -9 17 -20 29 -20 22 -28 68 -11 68 4 0 23 -5 40
-11 22 -8 29 -14 21 -19 -9 -5 -1 -13 22 -24 19 -9 41 -29 49 -44 20 -38 27
-42 87 -42 37 0 52 4 52 13 0 16 -31 47 -46 47 -6 0 -39 21 -75 46 -35 25 -83
54 -106 65 -23 10 -56 32 -75 49 -18 16 -40 30 -49 30 -30 0 -48 -11 -42 -26
3 -8 0 -14 -7 -14 -6 0 -89 39 -183 86 -183 91 -209 104 -218 117 -6 9 -42 29
-143 81 -65 34 -136 48 -136 27z"/>
<path d="M17728 2043 c-24 -4 -26 -6 -15 -24 6 -10 19 -19 29 -19 9 0 28 -10
42 -23 13 -12 37 -29 53 -37 15 -8 33 -19 39 -25 61 -53 185 -135 204 -135 4
0 13 -7 20 -15 7 -9 41 -30 76 -47 36 -18 60 -36 57 -42 -3 -6 -2 -8 2 -3 5 4
19 0 31 -8 34 -22 41 1 8 28 -14 12 -57 50 -95 85 -37 34 -73 62 -79 62 -5 0
-28 18 -51 40 -23 22 -46 37 -52 33 -5 -3 -15 0 -21 8 -17 23 -135 109 -163
120 -25 9 -36 9 -85 2z"/>
<path d="M17484 1906 c-13 -9 -25 -36 -33 -70 -7 -31 -16 -56 -21 -56 -5 0
-12 -9 -15 -20 -4 -11 -10 -18 -15 -15 -13 8 -20 -21 -7 -34 6 -6 23 -11 38
-11 38 0 80 -17 96 -39 9 -14 31 -21 75 -26 65 -6 80 -11 208 -63 75 -31 160
-52 205 -52 17 0 25 6 25 18 -1 29 -32 55 -124 102 -54 28 -106 63 -135 92
-34 36 -54 48 -76 48 -32 1 -67 24 -77 52 -4 9 -24 26 -46 37 -21 11 -44 27
-51 35 -16 20 -21 20 -47 2z"/>
<path d="M7120 1772 c0 -5 -21 -15 -47 -22 -27 -7 -53 -17 -59 -21 -6 -5 -13
-6 -16 -3 -3 3 -11 -9 -17 -27 -6 -18 -20 -38 -31 -46 -11 -8 -32 -35 -47 -61
-14 -26 -37 -56 -50 -67 -21 -18 -23 -24 -13 -49 16 -43 4 -64 -61 -105 -57
-36 -119 -112 -119 -146 0 -7 -4 -17 -10 -20 -5 -3 -10 -14 -10 -23 0 -9 -6
-29 -14 -43 -7 -15 -19 -51 -26 -80 -6 -30 -18 -67 -26 -84 -7 -16 -18 -58
-25 -92 -13 -71 -7 -82 51 -99 27 -8 34 -15 32 -30 -11 -64 -9 -69 32 -72 43
-4 116 25 116 46 0 6 4 12 9 12 17 0 110 91 106 103 -9 22 10 65 42 101 18 19
47 63 64 98 17 35 35 71 40 80 5 10 9 27 9 37 0 11 4 22 9 25 5 4 12 24 16 46
4 22 12 46 18 53 7 6 23 32 36 57 14 25 32 56 41 70 25 37 47 74 47 80 1 3 8
22 17 44 21 50 20 63 -4 109 -11 20 -20 46 -20 56 0 11 -9 22 -19 26 -11 3
-21 16 -23 28 -3 22 -48 39 -48 19z"/>
<path d="M6013 457 c-35 -13 -93 -60 -187 -152 -128 -125 -169 -180 -164 -222
l3 -28 148 -3 c81 -1 147 -5 147 -9 0 -4 -7 -15 -17 -25 -15 -17 -13 -18 62
-18 75 0 78 1 61 19 -15 17 -14 46 3 61 19 16 91 162 91 183 0 8 9 36 20 62
11 26 20 61 20 78 0 28 -5 34 -43 50 -48 20 -98 21 -144 4z"/>
<path d="M6684 350 c-12 -5 -43 -33 -69 -64 -27 -30 -52 -53 -56 -50 -9 5 -33
-38 -43 -80 -4 -15 -20 -56 -36 -90 l-29 -61 111 -3 c61 -1 112 -1 113 0 2 2
5 47 8 100 3 66 10 104 21 119 10 15 16 44 16 81 0 60 -1 62 -36 48z"/>
</g>
</svg>
